<svg width="48" height="48" viewBox="0 0 48 48" fill="none" xmlns="http://www.w3.org/2000/svg">
<rect width="48" height="48" rx="24" fill="#262626"/>
<path d="M35.497 30.1039C35.0661 31.0948 34.5561 32.007 33.9651 32.8456C33.1596 33.9889 32.5001 34.7802 31.9918 35.2197C31.2039 35.941 30.3597 36.3104 29.4557 36.3314C28.8067 36.3314 28.024 36.1476 27.113 35.7747C26.199 35.4035 25.359 35.2197 24.5909 35.2197C23.7854 35.2197 22.9215 35.4035 21.9975 35.7747C21.072 36.1476 20.3265 36.3419 19.7565 36.3612C18.8896 36.398 18.0255 36.018 17.163 35.2197C16.6125 34.7417 15.924 33.9224 15.0991 32.7616C14.2141 31.522 13.4865 30.0846 12.9165 28.4459C12.306 26.6758 12 24.9618 12 23.3024C12 21.4016 12.4126 19.7622 13.239 18.3883C13.8886 17.2848 14.7526 16.4143 15.8341 15.7753C16.9156 15.1362 18.0841 14.8106 19.3425 14.7897C20.031 14.7897 20.934 15.0018 22.056 15.4184C23.175 15.8365 23.8934 16.0486 24.2084 16.0486C24.4439 16.0486 25.242 15.8006 26.595 15.3064C27.8745 14.848 28.9544 14.6583 29.8391 14.733C32.2363 14.9256 34.0372 15.8663 35.2349 17.5611C33.091 18.8542 32.0305 20.6654 32.0516 22.9889C32.0709 24.7986 32.7305 26.3047 34.0267 27.5005C34.6141 28.0555 35.2701 28.4844 36 28.789C35.8417 29.246 35.6746 29.6837 35.497 30.1039ZM29.9991 8.56743C29.9991 9.98594 29.4785 11.3104 28.4409 12.5363C27.1886 13.9937 25.674 14.8358 24.0315 14.7029C24.0106 14.5327 23.9984 14.3536 23.9984 14.1654C23.9984 12.8036 24.5939 11.3463 25.6515 10.1547C26.1795 9.55138 26.8509 9.04972 27.6653 8.64955C28.4778 8.25534 29.2464 8.03733 29.9692 8C29.9903 8.18963 29.9991 8.37928 29.9991 8.56742V8.56743Z" fill="white"/>
</svg>
