<svg width="56" height="23" viewBox="0 0 56 23" fill="none" xmlns="http://www.w3.org/2000/svg">
<path d="M25.9414 13.4887C28.7449 13.4887 31.0176 11.2109 31.0176 8.40109C31.0176 5.59128 28.7449 3.31348 25.9414 3.31348C23.1379 3.31348 20.8652 5.59128 20.8652 8.40109C20.8652 11.2109 23.1379 13.4887 25.9414 13.4887Z" fill="#FF5C9E"/>
<path d="M12.6658 12.5053L14.5565 14.4002C13.7111 15.287 12.6835 15.9792 11.5449 16.4288C10.4063 16.8784 9.18376 17.0747 7.96198 17.0041C5.76487 16.8671 3.70678 15.88 2.22194 14.2511C0.737094 12.6223 -0.0583803 10.479 0.003341 8.27359C0.0650623 6.06814 0.979153 3.97295 2.55276 2.43008C4.12636 0.887208 6.23642 0.0173146 8.43775 0.0039214C9.58093 0.00175411 10.7126 0.23214 11.7644 0.681151C12.8161 1.13016 13.766 1.78845 14.5565 2.61614L12.6658 4.51517C12.2792 4.90764 11.7891 5.18162 11.2528 5.30499C10.7164 5.42836 10.1562 5.39603 9.6375 5.21178C9.10742 5.01767 8.53844 4.95459 7.97884 5.0279C7.41925 5.10121 6.88556 5.30873 6.42306 5.63287C5.96057 5.95702 5.58293 6.38819 5.32219 6.88982C5.06144 7.39146 4.92529 7.94874 4.92529 8.51436C4.92529 9.07999 5.06144 9.63727 5.32219 10.1389C5.58293 10.6405 5.96057 11.0717 6.42306 11.3959C6.88556 11.72 7.41925 11.9275 7.97884 12.0009C8.53844 12.0742 9.10742 12.0111 9.6375 11.817C10.1554 11.6317 10.7152 11.598 11.2515 11.7199C11.7878 11.8418 12.2783 12.1142 12.6658 12.5053Z" fill="#F9FAFE"/>
<path d="M47.503 4.42113e-06C46.0611 -0.00147034 44.6428 0.366034 43.3823 1.0677C42.1219 1.76937 41.061 2.78197 40.3003 4.00955C40.0281 4.44106 39.7981 4.89789 39.6136 5.37371C39.2164 6.37227 39.0128 7.43755 39.0137 8.51252V23C40.3303 23 41.5931 22.4758 42.5241 21.5427C43.4551 20.6095 43.9782 19.344 43.9782 18.0243V16.2455C45.1314 16.7743 46.3882 17.0374 47.6563 17.0155C48.9243 16.9936 50.1713 16.6872 51.3057 16.1188C52.4401 15.5505 53.433 14.7346 54.2115 13.7312C54.99 12.7278 55.5343 11.5623 55.8044 10.3204C56.0745 9.07848 56.0635 7.79169 55.7723 6.55458C55.481 5.31747 54.917 4.16149 54.1215 3.17154C53.326 2.1816 52.3193 1.38287 51.1754 0.83404C50.0315 0.285205 48.7794 0.000210492 47.5112 4.42113e-06H47.503ZM47.503 12.0245C46.6979 12.023 45.9177 11.7447 45.2927 11.2361C44.6678 10.7274 44.2359 10.0193 44.0692 9.22987C44.0204 8.99254 43.9968 8.75068 43.9989 8.50837C43.9989 7.81277 44.2047 7.13282 44.5904 6.5545C44.9761 5.97619 45.5242 5.5255 46.1655 5.25949C46.8068 4.99349 47.5124 4.92411 48.193 5.06012C48.8737 5.19613 49.4988 5.53142 49.9893 6.02358C50.4797 6.51573 50.8135 7.14263 50.9484 7.82497C51.0833 8.5073 51.0133 9.21442 50.7471 9.85683C50.4809 10.4993 50.0306 11.0481 49.4532 11.4339C48.8757 11.8198 48.197 12.0253 47.503 12.0245V12.0245Z" fill="#F9FAFE"/>
<path d="M25.6106 1.68248e-05C24.2816 0.000289023 22.9712 0.313295 21.7849 0.913847C20.5986 1.5144 19.5696 2.38572 18.7806 3.45766C17.9917 4.5296 17.4649 5.77221 17.2426 7.08547C17.0203 8.39873 17.1088 9.74594 17.5009 11.0187C17.893 12.2914 18.5778 13.4541 19.5002 14.4131C20.4225 15.3722 21.5566 16.1007 22.8112 16.5403C24.0658 16.9798 25.4058 17.1179 26.7234 16.9436C28.041 16.7692 29.2994 16.2873 30.3972 15.5365C30.8654 16.0612 31.4394 16.4804 32.0813 16.7663C32.7231 17.0522 33.4182 17.1983 34.1206 17.1951V8.4379C34.1009 6.19032 33.1951 4.04174 31.6008 2.46097C30.0066 0.880199 27.8532 -0.00444881 25.6106 1.68248e-05ZM25.6106 11.9914C24.9194 11.9914 24.2436 11.786 23.6688 11.4012C23.094 11.0164 22.646 10.4694 22.3813 9.82944C22.1166 9.18946 22.0471 8.48518 22.1816 7.80564C22.3162 7.12611 22.6487 6.50181 23.1372 6.01164C23.6257 5.52148 24.2482 5.18746 24.9261 5.05181C25.6039 4.91615 26.3067 4.98493 26.9455 5.24948C27.5844 5.51403 28.1306 5.96246 28.5153 6.53809C28.8999 7.11373 29.1056 7.79072 29.1064 8.48351C29.1064 9.41313 28.7382 10.3048 28.0828 10.9625C27.4273 11.6202 26.5381 11.9903 25.6106 11.9914V11.9914Z" fill="#F9FAFE"/>
</svg>
