<svg width="100" height="93" viewBox="0 0 100 93" fill="none" xmlns="http://www.w3.org/2000/svg">
<path d="M26.0957 52.1944C40.508 52.1944 52.1915 40.5109 52.1915 26.0987C52.1915 11.6864 40.508 0.00292969 26.0957 0.00292969C11.6835 0.00292969 0 11.6864 0 26.0987C0 40.5109 11.6835 52.1944 26.0957 52.1944Z" fill="#FF5C9E"/>
<path d="M26.0953 36.8765C23.9499 36.8781 21.8529 36.2387 20.0733 35.0404C18.2938 33.842 16.9128 32.1394 16.1076 30.1508L11.3043 27.7912L15.3229 25.8015C15.3711 24.0911 15.8257 22.4167 16.6493 20.9168C17.473 19.417 18.6418 18.1348 20.0593 17.1763C21.4768 16.2178 23.1021 15.6106 24.8008 15.4048C26.4995 15.1991 28.2227 15.4008 29.828 15.9932C31.3734 16.567 33.0511 16.6851 34.6616 16.3334C36.2722 15.9817 37.7479 15.175 38.9133 14.0091L44.9328 8.01761C41.3254 4.26296 36.6775 1.67304 31.5865 0.580776C26.4956 -0.511487 21.1943 -0.0561639 16.3641 1.88821C11.534 3.83258 7.39574 7.17713 4.48139 11.4919C1.56704 15.8067 0.00976562 20.8945 0.00976562 26.1013C0.00976562 31.3082 1.56704 36.396 4.48139 40.7108C7.39574 45.0256 11.534 48.3701 16.3641 50.3145C21.1943 52.2589 26.4956 52.7142 31.5865 51.6219C36.6775 50.5297 41.3254 47.9397 44.9328 44.1851L38.9414 38.1936C37.7749 37.0293 36.2989 36.224 34.6886 35.8733C33.0782 35.5226 31.401 35.6413 29.8561 36.2151C28.6521 36.6587 27.3783 36.8827 26.0953 36.8765Z" fill="#F9FAFE"/>
<path d="M24.5829 24.7143C24.5852 25.1344 24.4728 25.5472 24.2579 25.9081C24.0495 25.5486 23.7504 25.2501 23.3903 25.0426C23.0303 24.8351 22.6221 24.7259 22.2065 24.7259C21.791 24.7259 21.3827 24.8351 21.0227 25.0426C20.6627 25.2501 20.3635 25.5486 20.1552 25.9081C19.9402 25.5472 19.8279 25.1344 19.8301 24.7143C19.8301 24.084 20.0805 23.4796 20.5261 23.0339C20.9718 22.5883 21.5763 22.3379 22.2065 22.3379C22.8368 22.3379 23.4412 22.5883 23.8869 23.0339C24.3326 23.4796 24.5829 24.084 24.5829 24.7143Z" fill="#F9FAFE"/>
<path d="M73.8982 0.00293335C69.466 0.000583536 65.1062 1.12793 61.2306 3.27852C57.3551 5.42911 54.0916 8.53198 51.7483 12.2942C50.9239 13.6084 50.2204 14.9947 49.6465 16.4361C48.4204 19.5118 47.7926 22.7932 47.7969 26.1043C47.7969 26.1603 47.7969 26.222 47.7969 26.278V70.5556C49.7986 70.5563 51.7809 70.1627 53.6305 69.3971C55.48 68.6316 57.1607 67.5092 58.5764 66.0941C59.9921 64.6789 61.1151 62.9987 61.8813 61.1494C62.6475 59.3001 63.0418 57.318 63.0418 55.3162V49.8684C66.5879 51.4904 70.4524 52.2973 74.3512 52.2297C78.2501 52.1621 82.0842 51.2218 85.572 49.4779C89.0597 47.734 92.1124 45.2308 94.5057 42.1522C96.8991 39.0736 98.5722 35.4979 99.4022 31.6878C100.232 27.8777 100.198 23.9301 99.3019 20.135C98.4059 16.3399 96.671 12.7937 94.2246 9.75717C91.7782 6.72058 88.6826 4.27072 85.1651 2.5876C81.6476 0.904474 77.7977 0.0308605 73.8982 0.0309588V0.00293335Z" fill="#F9FAFE"/>
<path d="M73.9042 18.3362H81.6779V26.1044C81.6779 28.1706 80.8571 30.1521 79.3961 31.6132C77.9351 33.0742 75.9535 33.895 73.8873 33.895H66.1191V26.1156C66.1206 24.0518 66.9415 22.0731 68.4013 20.6144C69.8611 19.1556 71.8404 18.3362 73.9042 18.3362Z" fill="#575FCC"/>
<path d="M38.7671 85.6939L39.9721 86.8989C39.2263 87.6756 38.2652 88.2115 37.2124 88.4376C36.1595 88.6637 35.0632 88.5698 34.0642 88.1678C33.0652 87.7658 32.2093 87.0742 31.6065 86.1819C31.0037 85.2896 30.6816 84.2374 30.6816 83.1606C30.6816 82.0837 31.0037 81.0315 31.6065 80.1392C32.2093 79.2469 33.0652 78.5553 34.0642 78.1534C35.0632 77.7514 36.1595 77.6574 37.2124 77.8835C38.2652 78.1096 39.2263 78.6455 39.9721 79.4222L38.7671 80.6216C38.5222 80.8711 38.2112 81.0453 37.8705 81.1237C37.5299 81.2022 37.174 81.1816 36.8447 81.0644C36.4852 80.9381 36.1 80.9035 35.7237 80.9635C35.4022 80.9968 35.0917 81.0992 34.8135 81.2637C34.5353 81.4282 34.296 81.651 34.1119 81.9166C33.9278 82.1823 33.8033 82.4846 33.747 82.8029C33.6907 83.1212 33.7039 83.4478 33.7856 83.7605C33.8674 84.0732 34.0158 84.3646 34.2207 84.6146C34.4255 84.8645 34.682 85.0673 34.9726 85.2088C35.2631 85.3504 35.5809 85.4275 35.904 85.4348C36.2271 85.4421 36.548 85.3795 36.8447 85.2511C37.1742 85.1353 37.5297 85.1154 37.8701 85.1938C38.2104 85.2722 38.5215 85.4456 38.7671 85.6939Z" fill="#F9FAFE"/>
<path d="M60.923 77.7466C60.0077 77.7458 59.1073 77.9786 58.307 78.4229C57.5067 78.8672 56.833 79.5083 56.3495 80.2855C56.1733 80.5576 56.025 80.8468 55.9068 81.1487C55.6582 81.7845 55.5308 82.4613 55.5313 83.144V92.3301C56.3672 92.3287 57.1683 91.9956 57.7589 91.404C58.3494 90.8124 58.6811 90.0106 58.6811 89.1747V88.0537C59.3831 88.3809 60.1486 88.5493 60.923 88.5469C61.6318 88.5469 62.3337 88.4073 62.9885 88.1361C63.6433 87.8648 64.2384 87.4673 64.7395 86.9661C65.2407 86.4649 65.6383 85.8699 65.9096 85.2151C66.1808 84.5602 66.3204 83.8584 66.3204 83.1496C66.3204 82.4408 66.1808 81.7389 65.9096 81.0841C65.6383 80.4292 65.2407 79.8342 64.7395 79.333C64.2384 78.8319 63.6433 78.4343 62.9885 78.163C62.3337 77.8918 61.6318 77.7522 60.923 77.7522V77.7466ZM60.923 85.3746C60.4122 85.372 59.9176 85.195 59.5211 84.8729C59.1246 84.5508 58.85 84.103 58.7428 83.6036C58.711 83.4525 58.6959 83.2983 58.6979 83.144C58.6956 82.9896 58.7107 82.8354 58.7428 82.6844C58.8278 82.2681 59.0293 81.8845 59.3239 81.5783C59.6185 81.2722 59.9941 81.056 60.4068 80.9551C60.8195 80.8542 61.2525 80.8726 61.6551 81.0082C62.0578 81.1439 62.4136 81.3912 62.6811 81.7213C62.9486 82.0514 63.1168 82.4507 63.1661 82.8727C63.2154 83.2947 63.1438 83.7221 62.9595 84.105C62.7753 84.4878 62.486 84.8104 62.1255 85.0352C61.7649 85.26 61.3479 85.3777 60.923 85.3746Z" fill="#F9FAFE"/>
<path d="M46.9956 77.7466C46.1503 77.7462 45.3167 77.9443 44.562 78.3251C43.8072 78.7059 43.1525 79.2585 42.6505 79.9387C42.1485 80.6188 41.8133 81.4073 41.6718 82.2407C41.5304 83.0742 41.5866 83.9291 41.8361 84.7368C42.0856 85.5445 42.5213 86.2823 43.1081 86.8908C43.6949 87.4992 44.4164 87.9613 45.2145 88.2399C46.0126 88.5184 46.865 88.6056 47.703 88.4944C48.541 88.3832 49.3411 88.0768 50.039 87.5997C50.3339 87.9326 50.6964 88.1988 51.1023 88.3805C51.5083 88.5622 51.9483 88.6553 52.393 88.6534V83.0991C52.3797 81.6759 51.8054 80.3154 50.7948 79.3132C49.7842 78.311 48.4189 77.748 46.9956 77.7466ZM46.9956 85.3522C46.5522 85.3522 46.1188 85.2207 45.7501 84.9744C45.3814 84.7281 45.0941 84.3779 44.9244 83.9683C44.7547 83.5586 44.7103 83.1078 44.7968 82.673C44.8833 82.2381 45.0968 81.8386 45.4104 81.5251C45.7239 81.2115 46.1234 80.998 46.5582 80.9115C46.9931 80.825 47.4439 80.8694 47.8536 81.0391C48.2632 81.2088 48.6134 81.4961 48.8597 81.8648C49.106 82.2335 49.2375 82.6669 49.2375 83.1103C49.2397 83.4062 49.1834 83.6995 49.0717 83.9734C48.9601 84.2474 48.7953 84.4965 48.5869 84.7065C48.3785 84.9164 48.1306 85.0831 47.8575 85.1968C47.5844 85.3105 47.2915 85.3691 46.9956 85.369V85.3522Z" fill="#F9FAFE"/>
</svg>
