<svg width="69" height="48" viewBox="0 0 69 48" fill="none" xmlns="http://www.w3.org/2000/svg">
<g clip-path="url(#clip0_414_14751)">
<path d="M16.731 16.8191C16.7325 17.105 16.656 17.3859 16.5097 17.6316C16.3679 17.3869 16.1643 17.1838 15.9193 17.0425C15.6742 16.9013 15.3964 16.8269 15.1135 16.8269C14.8307 16.8269 14.5529 16.9013 14.3079 17.0425C14.0628 17.1838 13.8592 17.3869 13.7174 17.6316C13.5711 17.3859 13.4946 17.105 13.4961 16.8191C13.4961 16.3901 13.6666 15.9787 13.9699 15.6754C14.2732 15.372 14.6846 15.2017 15.1135 15.2017C15.5425 15.2017 15.9539 15.372 16.2572 15.6754C16.5606 15.9787 16.731 16.3901 16.731 16.8191Z" fill="#FFF8F3"/>
<path d="M20.3099 24.6465C18.5213 25.3024 16.5481 25.2387 14.8056 24.4689C13.063 23.699 11.6872 22.283 10.9677 20.519L7.70241 18.9131L10.4375 17.5589C10.4703 16.3948 10.7797 15.2551 11.3403 14.2343C11.9008 13.2135 12.6964 12.3408 13.6612 11.6884C14.6259 11.0361 15.7321 10.6228 16.8883 10.4828C18.0444 10.3427 19.2173 10.48 20.3099 10.8832C21.3617 11.2738 22.5035 11.3542 23.5997 11.1148C24.6959 10.8754 25.7002 10.3263 26.4935 9.53282L30.5713 5.45494C28.1161 2.89948 24.9526 1.13674 21.4877 0.393332C18.0227 -0.350076 14.4146 -0.0401831 11.1271 1.28318C7.83963 2.60655 5.02309 4.88289 3.03954 7.8196C1.05599 10.7563 -0.00390625 14.2191 -0.00390625 17.763C-0.00390625 21.3068 1.05599 24.7696 3.03954 27.7063C5.02309 30.643 7.83963 32.9194 11.1271 34.2428C14.4146 35.5661 18.0227 35.876 21.4877 35.1326C24.9526 34.3892 28.1161 32.6265 30.5713 30.071L26.4935 25.9931C25.6996 25.2007 24.695 24.6526 23.5989 24.4139C22.5029 24.1752 21.3614 24.256 20.3099 24.6465Z" fill="#575FCC"/>
<path d="M16.731 16.8191C16.7325 17.105 16.656 17.3859 16.5097 17.6316C16.3679 17.3869 16.1643 17.1838 15.9193 17.0425C15.6742 16.9013 15.3964 16.8269 15.1135 16.8269C14.8307 16.8269 14.5529 16.9013 14.3079 17.0425C14.0628 17.1838 13.8592 17.3869 13.7174 17.6316C13.5711 17.3859 13.4946 17.105 13.4961 16.8191C13.4961 16.3901 13.6666 15.9787 13.9699 15.6754C14.2732 15.372 14.6846 15.2017 15.1135 15.2017C15.5425 15.2017 15.9539 15.372 16.2572 15.6754C16.5606 15.9787 16.731 16.3901 16.731 16.8191Z" fill="#FFF8F3"/>
<path d="M16.731 16.8191C16.7325 17.105 16.656 17.3859 16.5097 17.6316C16.3679 17.3869 16.1643 17.1838 15.9193 17.0425C15.6742 16.9013 15.3964 16.8269 15.1135 16.8269C14.8307 16.8269 14.5529 16.9013 14.3079 17.0425C14.0628 17.1838 13.8592 17.3869 13.7174 17.6316C13.5711 17.3859 13.4946 17.105 13.4961 16.8191C13.4961 16.3901 13.6666 15.9787 13.9699 15.6754C14.2732 15.372 14.6846 15.2017 15.1135 15.2017C15.5425 15.2017 15.9539 15.372 16.2572 15.6754C16.5606 15.9787 16.731 16.3901 16.731 16.8191Z" fill="#575FCC"/>
<path d="M50.3001 6.56508e-06C47.9666 -0.0020003 45.6556 0.45612 43.4994 1.34818C41.3431 2.24024 39.3839 3.54873 37.7339 5.19875C36.0839 6.84878 34.7754 8.80796 33.8833 10.9642C32.9913 13.1204 32.5332 15.4314 32.5352 17.7649C32.5352 17.8031 32.5352 17.845 32.5352 17.8832V48C33.8976 48.0005 35.2467 47.7326 36.5055 47.2116C37.7644 46.6906 38.9082 45.9266 39.8718 44.9634C40.8353 44.0002 41.5997 42.8567 42.1212 41.598C42.6427 40.3394 42.911 38.9903 42.911 37.6279V33.92C45.3246 35.024 47.9548 35.5731 50.6084 35.5271C53.262 35.4812 55.8716 34.8412 58.2454 33.6543C60.6192 32.4673 62.6969 30.7636 64.3258 28.6683C65.9547 26.573 67.0935 24.1393 67.6584 21.5461C68.2233 18.9529 68.2 16.2661 67.5902 13.6831C66.9804 11.1001 65.7995 8.68652 64.1345 6.61978C62.4694 4.55304 60.3625 2.88563 57.9684 1.74008C55.5744 0.594521 52.9541 -6.03653e-05 50.3001 6.56508e-06ZM55.5911 17.7573C55.5916 18.4534 55.4549 19.1428 55.1888 19.7861C54.9228 20.4294 54.5325 21.014 54.0405 21.5064C53.5484 21.9988 52.9641 22.3895 52.321 22.656C51.6779 22.9225 50.9886 23.0597 50.2925 23.0597H45.0053V17.7687C45.0053 16.3635 45.5636 15.0158 46.5572 14.0221C47.5509 13.0284 48.8986 12.4701 50.3039 12.4701H55.5911V17.7573Z" fill="#FF5C9E"/>
</g>
<defs>
<clipPath id="clip0_414_14751">
<rect width="68.0613" height="48" fill="white"/>
</clipPath>
</defs>
</svg>
