<svg width="48" height="48" viewBox="0 0 48 48" fill="none" xmlns="http://www.w3.org/2000/svg">
<rect x="0.25" y="0.25" width="47.5" height="47.5" rx="23.75" fill="white"/>
<path fill-rule="evenodd" clip-rule="evenodd" d="M38.808 24.3545C38.808 23.2483 38.7088 22.1847 38.5244 21.1636H23.832V27.1979H32.2277C31.866 29.1479 30.7669 30.8001 29.1148 31.9063V35.8205H34.1564C37.1062 33.1047 38.808 29.1054 38.808 24.3545Z" fill="#4285F4"/>
<path fill-rule="evenodd" clip-rule="evenodd" d="M23.8333 39.5999C28.0453 39.5999 31.5766 38.203 34.1577 35.8204L29.116 31.9062C27.7191 32.8422 25.9322 33.3953 23.8333 33.3953C19.7702 33.3953 16.3311 30.6511 15.1044 26.9639H9.89258V31.0057C12.4595 36.104 17.7351 39.5999 23.8333 39.5999Z" fill="#34A853"/>
<path fill-rule="evenodd" clip-rule="evenodd" d="M15.1035 26.964C14.7915 26.028 14.6142 25.0281 14.6142 24C14.6142 22.9718 14.7915 21.972 15.1035 21.036V16.9941H9.89169C8.83515 19.1001 8.23242 21.4827 8.23242 24C8.23242 26.5172 8.83515 28.8998 9.89169 31.0058L15.1035 26.964Z" fill="#FBBC05"/>
<path fill-rule="evenodd" clip-rule="evenodd" d="M23.8333 14.6044C26.1237 14.6044 28.18 15.3915 29.7968 16.9374L34.2711 12.463C31.5695 9.94572 28.0382 8.3999 23.8333 8.3999C17.7351 8.3999 12.4595 11.8957 9.89258 16.9941L15.1044 21.0359C16.3311 17.3486 19.7702 14.6044 23.8333 14.6044Z" fill="#EA4335"/>
<rect x="0.25" y="0.25" width="47.5" height="47.5" rx="23.75" stroke="#C7C7D7" stroke-width="0.5"/>
</svg>
