<svg width="28" height="28" viewBox="0 0 28 28" fill="none" xmlns="http://www.w3.org/2000/svg">
<path d="M11.6244 22.4322C12.2076 22.3089 15.7615 22.3089 16.3447 22.4322C16.8433 22.5474 17.3825 22.8165 17.3825 23.404C17.3535 23.9633 17.0253 24.4592 16.572 24.7741C15.9841 25.2323 15.2942 25.5225 14.573 25.6271C14.1741 25.6788 13.7822 25.68 13.3972 25.6271C12.6749 25.5225 11.985 25.2323 11.3983 24.7729C10.9437 24.4592 10.6156 23.9633 10.5866 23.404C10.5866 22.8165 11.1258 22.5474 11.6244 22.4322ZM14.0534 2.33301C16.4803 2.33301 18.9593 3.48453 20.4318 5.39512C21.3873 6.62537 21.8256 7.85444 21.8256 9.76503V10.2621C21.8256 11.7273 22.2128 12.591 23.0651 13.5862C23.7109 14.3194 23.9173 15.2606 23.9173 16.2817C23.9173 17.3016 23.5822 18.2698 22.9109 19.0559C22.032 19.9983 20.7925 20.5999 19.5274 20.7045C17.6943 20.8608 15.8599 20.9924 14.0012 20.9924C12.1414 20.9924 10.3082 20.9136 8.47503 20.7045C7.20885 20.5999 5.96934 19.9983 5.09159 19.0559C4.42024 18.2698 4.08398 17.3016 4.08398 16.2817C4.08398 15.2606 4.29154 14.3194 4.93622 13.5862C5.81513 12.591 6.17689 11.7273 6.17689 10.2621V9.76503C6.17689 7.80274 6.6662 6.51961 7.67381 5.26351C9.17189 3.43165 11.5732 2.33301 13.9491 2.33301H14.0534Z" fill="#739EF1"/>
</svg>
