<svg width="16" height="16" viewBox="0 0 16 16" fill="none" xmlns="http://www.w3.org/2000/svg">
<path d="M15.2 0.798402H12.5776C12.3 0.323353 11.7896 0 11.2 0H4.8C4.2104 0 3.7 0.323353 3.4224 0.798402H0.8C0.3584 0.798402 0 1.15609 0 1.5968V4.79042C0 5.03313 0.1104 5.26227 0.3 5.41397L4.2424 8.56127C4.9648 9.46826 6.008 10.107 7.2 10.3074V11.1776H5.6C5.1584 11.1776 4.8 11.5353 4.8 11.976V13.5728H11.2V11.976C11.2 11.5353 10.8416 11.1776 10.4 11.1776H8.8V10.3074C9.992 10.107 11.0352 9.46905 11.7568 8.56207L15.6992 5.41477C15.8896 5.26227 16 5.03313 16 4.79042V1.5968C16 1.15609 15.6416 0.798402 15.2 0.798402ZM1.6 4.40718V2.39521H3.2V5.58882C3.2 5.62235 3.204 5.65509 3.2048 5.68862L1.6 4.40718ZM14.4 4.40718L12.7952 5.68862C12.796 5.65509 12.8 5.62235 12.8 5.58882V2.39521H14.4V4.40718Z" fill="#FABF48"/>
<path d="M12 14.4032H3.99996V16H12V14.4032Z" fill="#FABF48"/>
</svg>
