<svg width="28" height="28" viewBox="0 0 28 28" fill="none" xmlns="http://www.w3.org/2000/svg">
<path d="M16.6438 4.125C17.735 4.13624 18.6238 4.69811 19.1413 5.70949C19.2748 5.97638 19.4612 6.36618 19.6563 6.77738L19.8918 7.2746L20.0075 7.51873L20.12 7.76595C20.165 7.84462 20.2438 7.9008 20.345 7.9008C23.045 7.9008 25.25 10.1034 25.25 12.8004V19.4754C25.25 22.1724 23.045 24.375 20.345 24.375H7.655C4.94375 24.375 2.75 22.1724 2.75 19.4754V12.8004C2.75 10.1034 4.94375 7.9008 7.655 7.9008C7.745 7.9008 7.835 7.85585 7.86875 7.76595L7.93625 7.6311C8.25125 6.96809 8.63375 6.15899 8.85875 5.70949C9.37625 4.69811 10.2538 4.13624 11.345 4.125H16.6438ZM14 11.3282C12.8188 11.3282 11.705 11.789 10.8613 12.6318C10.0288 13.4746 9.5675 14.5759 9.57875 15.7446C9.57875 16.9245 10.04 18.0258 10.8725 18.8686C11.7163 19.7002 12.8188 20.1609 14 20.1609C15.215 20.1609 16.3175 19.6665 17.1163 18.8686C17.915 18.0708 18.41 16.9695 18.4213 15.7446C18.4213 14.5759 17.96 13.4634 17.1275 12.6206C16.295 11.789 15.1813 11.3282 14 11.3282ZM14 13.0139C14.7313 13.0139 15.4175 13.2948 15.935 13.8117C16.4525 14.3287 16.7338 15.0142 16.7338 15.7446C16.7225 17.2504 15.5075 18.4753 14 18.4753C13.2688 18.4753 12.5825 18.1944 12.065 17.6774C11.5475 17.1605 11.2663 16.475 11.2663 15.7446V15.7334C11.255 15.0254 11.5363 14.3399 12.0538 13.823C12.5825 13.2948 13.2688 13.0139 14 13.0139ZM20.3113 11.0585C19.7488 11.0585 19.2988 11.5193 19.2988 12.0812C19.2988 12.643 19.7488 13.0925 20.3113 13.0925C20.8738 13.0925 21.335 12.643 21.335 12.0812C21.335 11.5193 20.8738 11.0585 20.3113 11.0585Z" fill="#555670"/>
</svg>
