<svg width="28" height="28" viewBox="0 0 28 28" fill="none" xmlns="http://www.w3.org/2000/svg">
<path d="M14.8361 2.33398C15.7184 2.33398 16.5172 2.82398 16.9584 3.54732C17.173 3.89732 17.3161 4.32898 17.2803 4.78398C17.2564 5.13398 17.3638 5.48398 17.5545 5.81065C18.1626 6.80232 19.5099 7.17565 20.5591 6.61565C21.7394 5.93898 23.2298 6.34732 23.9094 7.50232L24.7082 8.87898C25.3997 10.034 25.0182 11.5156 23.8259 12.1806C22.8125 12.7757 22.4548 14.094 23.0629 15.0973C23.2536 15.4123 23.4682 15.6807 23.8021 15.844C24.2194 16.0657 24.5413 16.4157 24.7678 16.7657C25.209 17.489 25.1732 18.3757 24.744 19.1573L23.9094 20.5573C23.4682 21.304 22.6456 21.7707 21.799 21.7707C21.3817 21.7707 20.9168 21.654 20.5352 21.4207C20.2252 21.2223 19.8675 21.1523 19.486 21.1523C18.3057 21.1523 17.3161 22.1207 17.2803 23.2757C17.2803 24.6173 16.1834 25.6673 14.8123 25.6673H13.1908C11.8077 25.6673 10.7108 24.6173 10.7108 23.2757C10.687 22.1207 9.69737 21.1523 8.51701 21.1523C8.12356 21.1523 7.76587 21.2223 7.4678 21.4207C7.08627 21.654 6.60936 21.7707 6.20398 21.7707C5.34553 21.7707 4.52286 21.304 4.08171 20.5573L3.25904 19.1573C2.81789 18.399 2.79405 17.489 3.23519 16.7657C3.42596 16.4157 3.78364 16.0657 4.18902 15.844C4.52286 15.6807 4.73747 15.4123 4.94016 15.0973C5.5363 14.094 5.17862 12.7757 4.16517 12.1806C2.98481 11.5156 2.60328 10.034 3.28288 8.87898L4.08171 7.50232C4.77324 6.34732 6.25167 5.93898 7.44395 6.61565C8.48124 7.17565 9.82852 6.80232 10.4366 5.81065C10.6274 5.48398 10.7347 5.13398 10.7108 4.78398C10.687 4.32898 10.8181 3.89732 11.0447 3.54732C11.4858 2.82398 12.2846 2.35732 13.155 2.33398H14.8361ZM14.0134 10.7107C12.1416 10.7107 10.6274 12.1807 10.6274 14.0123C10.6274 15.844 12.1416 17.3023 14.0134 17.3023C15.8853 17.3023 17.3638 15.844 17.3638 14.0123C17.3638 12.1807 15.8853 10.7107 14.0134 10.7107Z" fill="#575FCC"/>
</svg>
