<svg width="16" height="17" viewBox="0 0 16 17" fill="none" xmlns="http://www.w3.org/2000/svg">
<rect x="2" y="4.5" width="12" height="10" rx="1.33333" stroke="#DADBE7" stroke-width="0.666667"/>
<path d="M2 7.16667C2 5.90959 2 5.28105 2.39052 4.89052C2.39052 4.89052 2.39052 4.89052 2.39052 4.89052C2.78105 4.5 3.40959 4.5 4.66667 4.5H11.3333C12.5904 4.5 13.219 4.5 13.6095 4.89052C13.6095 4.89052 13.6095 4.89052 13.6095 4.89052C14 5.28105 14 5.90959 14 7.16667H2Z" fill="#DADBE7"/>
<path d="M4.66602 2.5L4.66602 4.5" stroke="#DADBE7" stroke-width="0.666667" stroke-linecap="round"/>
<path d="M11.334 2.5L11.334 4.5" stroke="#DADBE7" stroke-width="0.666667" stroke-linecap="round"/>
<rect x="4.66602" y="8.5" width="2.66667" height="1.33333" rx="0.333333" fill="#DADBE7"/>
<rect x="4.66602" y="11.167" width="2.66667" height="1.33333" rx="0.333333" fill="#DADBE7"/>
<rect x="8.66602" y="8.5" width="2.66667" height="1.33333" rx="0.333333" fill="#DADBE7"/>
<rect x="8.66602" y="11.167" width="2.66667" height="1.33333" rx="0.333333" fill="#DADBE7"/>
</svg>
