<svg width="28" height="28" viewBox="0 0 28 28" fill="none" xmlns="http://www.w3.org/2000/svg">
<path d="M13.4088 2.33398C16.3052 2.33398 18.6673 4.65565 18.6673 7.51398V13.1023H11.5452C11.0348 13.1023 10.6312 13.499 10.6312 14.0007C10.6312 14.4907 11.0348 14.899 11.5452 14.899H18.6673V20.4757C18.6673 23.334 16.3052 25.6673 13.3851 25.6673H7.60433C4.69615 25.6673 2.33398 23.3457 2.33398 20.4873V7.52565C2.33398 4.65565 4.70802 2.33398 7.6162 2.33398H13.4088ZM21.6309 9.97588C21.9809 9.61422 22.5526 9.61422 22.9026 9.96422L26.3092 13.3592C26.4842 13.5342 26.5776 13.7559 26.5776 14.0009C26.5776 14.2342 26.4842 14.4676 26.3092 14.6309L22.9026 18.0259C22.7276 18.2009 22.4942 18.2942 22.2726 18.2942C22.0392 18.2942 21.8059 18.2009 21.6309 18.0259C21.2809 17.6759 21.2809 17.1042 21.6309 16.7542L23.4976 14.8992H18.6676V13.1026H23.4976L21.6309 11.2476C21.2809 10.8976 21.2809 10.3259 21.6309 9.97588Z" fill="#575FCC"/>
</svg>
