<svg width="80" height="80" viewBox="0 0 80 80" fill="none" xmlns="http://www.w3.org/2000/svg">
<path d="M67.2534 51.0427H67.2791L39.5 69L11.7172 51.0427H11.7466C8.7499 49.1088 6.28973 46.4711 4.58813 43.3677C2.88653 40.2642 1.99707 36.7927 2.00001 33.2664C2.00001 27.6272 4.27665 22.2189 8.3291 18.2314C12.3815 14.2438 17.8778 12.0036 23.6089 12.0036C26.5948 12 29.549 12.6071 32.2839 13.7862C35.0189 14.9654 37.4749 16.691 39.4963 18.8535C41.5178 16.6899 43.9743 14.9633 46.71 13.7835C49.4456 12.6037 52.4006 11.9964 55.3875 12C61.1188 12 66.6155 14.2401 70.6685 18.2275C74.7216 22.2149 76.999 27.6232 77 33.2628C77.0019 36.7894 76.112 40.2611 74.4105 43.3649C72.7091 46.4688 70.2495 49.1073 67.2534 51.0427V51.0427Z" fill="#EBECF4"/>
<path d="M39.9829 27.334C43.5631 27.334 46.4438 30.1512 46.4438 33.6293V35.4182C48.4532 36.0454 49.9173 37.8645 49.9173 40.0371V45.7968C49.9173 48.4866 47.6874 50.6673 44.9382 50.6673H35.0642C32.3139 50.6673 30.084 48.4866 30.084 45.7968V40.0371C30.084 37.8645 31.5493 36.0454 33.5575 35.4182V33.6293C33.5693 30.1512 36.4501 27.334 39.9829 27.334ZM39.9947 40.6156C39.4257 40.6156 38.9633 41.0678 38.9633 41.6243V44.1981C38.9633 44.7662 39.4257 45.2183 39.9947 45.2183C40.5756 45.2183 41.038 44.7662 41.038 44.1981V41.6243C41.038 41.0678 40.5756 40.6156 39.9947 40.6156ZM40.0066 29.3629C37.6 29.3629 35.644 31.2642 35.6321 33.6061V35.1666H44.3692V33.6293C44.3692 31.2758 42.4131 29.3629 40.0066 29.3629Z" fill="#DADBE7"/>
</svg>
