<svg width="36" height="36" viewBox="0 0 36 36" fill="none" xmlns="http://www.w3.org/2000/svg">
<g clip-path="url(#clip0_1532_16173)">
<rect x="6" y="7" width="23" height="22" fill="#C7C7D7"/>
<path fill-rule="evenodd" clip-rule="evenodd" d="M26.3884 0C32.5084 0 36.0005 3.45605 36.0005 9.59413V26.4064C36.0005 32.5084 32.5264 36.0005 26.4064 36.0005H9.59413C3.45605 36.0005 0 32.5084 0 26.4064V9.59413C0 3.45605 3.45605 0 9.59413 0H26.3884ZM16.8113 21.1098C16.8113 20.0143 15.9395 19.1341 14.8518 19.1341H12.2443C11.1642 19.1341 10.2848 20.0143 10.2848 21.1098V23.7396C10.2848 24.8274 11.1642 25.7146 12.2443 25.7146H14.8518C15.9395 25.7146 16.8113 24.8274 16.8113 23.7396V21.1098ZM25.7139 21.1098C25.7139 20.0143 24.8344 19.1341 23.7544 19.1341H21.1469C20.0592 19.1341 19.1874 20.0143 19.1874 21.1098V23.7396C19.1874 24.8274 20.0592 25.7146 21.1469 25.7146H23.7544C24.8344 25.7146 25.7139 24.8274 25.7139 23.7396V21.1098ZM16.8113 12.2615C16.8113 11.1729 15.9395 10.2858 14.8518 10.2858H12.2443C11.1642 10.2858 10.2848 11.1729 10.2848 12.2615V14.8913C10.2848 15.9868 11.1642 16.8662 12.2443 16.8662H14.8518C15.9395 16.8662 16.8113 15.9868 16.8113 14.8913V12.2615ZM25.7139 12.2615C25.7139 11.1729 24.8344 10.2858 23.7544 10.2858H21.1469C20.0592 10.2858 19.1874 11.1729 19.1874 12.2615V14.8913C19.1874 15.9868 20.0592 16.8662 21.1469 16.8662H23.7544C24.8344 16.8662 25.7139 15.9868 25.7139 14.8913V12.2615Z" fill="#EBECF4"/>
</g>
<defs>
<clipPath id="clip0_1532_16173">
<rect width="36" height="36" fill="white"/>
</clipPath>
</defs>
</svg>
