<svg width="29" height="28" viewBox="0 0 29 28" fill="none" xmlns="http://www.w3.org/2000/svg">
<path d="M10.131 0C10.6256 0 11.0142 0.393064 11.0142 0.867052C11.0142 1.21387 11.3086 1.49133 11.6619 1.49133H12.8278C14.606 1.50289 16.0545 2.92486 16.0662 4.65896V4.87861C17.185 4.87861 18.3037 4.90173 19.4342 4.91329C23.5206 4.91329 26.5 7.82659 26.5 11.8497V17.0173C26.5 21.0405 23.5206 23.9538 19.4342 23.9538C17.7974 23.9884 16.1605 24 14.5118 24C12.8631 24 11.2027 23.9884 9.56575 23.9538C5.47939 23.9538 2.5 21.0405 2.5 17.0173V11.8497C2.5 7.82659 5.47939 4.91329 9.57753 4.91329C11.1202 4.89017 12.6982 4.86705 14.2998 4.86705V4.67052C14.2998 3.87283 13.6286 3.22543 12.8278 3.22543H11.6619C10.3312 3.22543 9.24779 2.16185 9.24779 0.867052C9.24779 0.393064 9.64818 0 10.131 0ZM11.0025 11.4798C10.5079 11.4798 10.1192 11.8728 10.1192 12.3468V13.5607H8.87095C8.38813 13.5607 7.98773 13.9538 7.98773 14.4277C7.98773 14.9133 8.38813 15.2948 8.87095 15.2948H10.1192V16.5202C10.1192 16.9942 10.5079 17.3873 11.0025 17.3873C11.4853 17.3873 11.8857 16.9942 11.8857 16.5202V15.2948H13.1222C13.605 15.2948 14.0054 14.9133 14.0054 14.4277C14.0054 13.9538 13.605 13.5607 13.1222 13.5607H11.8857V12.3468C11.8857 11.8728 11.4853 11.4798 11.0025 11.4798ZM20.2586 15.5838H20.1408C19.645 15.5838 19.2576 15.9769 19.2576 16.4509C19.2576 16.9364 19.645 17.3179 20.1408 17.3179H20.2586C20.7414 17.3179 21.1418 16.9364 21.1418 16.4509C21.1418 15.9769 20.7414 15.5838 20.2586 15.5838ZM18.2448 11.6069H18.1271C17.6325 11.6069 17.2439 12 17.2439 12.474C17.2439 12.9595 17.6325 13.341 18.1271 13.341H18.2448C18.7277 13.341 19.1281 12.9595 19.1281 12.474C19.1281 12 18.7277 11.6069 18.2448 11.6069Z" fill="#DADBE7"/>
</svg>
