<svg width="29" height="28" viewBox="0 0 29 28" fill="none" xmlns="http://www.w3.org/2000/svg">
<path d="M11.1566 24.2352V20.6679C11.1566 19.7573 11.9002 19.019 12.8175 19.019H16.1707C16.6112 19.019 17.0337 19.1928 17.3452 19.502C17.6567 19.8112 17.8317 20.2306 17.8317 20.6679V24.2352C17.8289 24.6138 17.9784 24.9779 18.2471 25.2466C18.5158 25.5152 18.8814 25.6663 19.2628 25.6663H21.5505C22.6189 25.6691 23.6446 25.2497 24.401 24.5006C25.1575 23.7516 25.5827 22.7345 25.5827 21.6738V11.511C25.5827 10.6542 25.2001 9.84149 24.5381 9.29179L16.7557 3.12152C15.402 2.03966 13.4623 2.07459 12.149 3.20448L4.5442 9.29179C3.85088 9.82529 3.43649 10.6404 3.41602 11.511V21.6634C3.41602 23.8742 5.22129 25.6663 7.44822 25.6663H9.68369C10.4758 25.6663 11.1195 25.0319 11.1253 24.2456L11.1566 24.2352Z" fill="#575FCC"/>
</svg>
