<svg width="75" height="57" viewBox="0 0 75 57" fill="none" xmlns="http://www.w3.org/2000/svg">
<path d="M65.2534 39.0427H65.2791L37.5 57L9.71719 39.0427H9.74662C6.7499 37.1088 4.28973 34.4711 2.58813 31.3677C0.886533 28.2642 -0.00293188 24.7927 7.26041e-06 21.2664C7.26041e-06 15.6272 2.27665 10.2189 6.3291 6.23135C10.3815 2.24381 15.8778 0.00364021 21.6089 0.00364021C24.5948 4.36097e-05 27.549 0.607065 30.2839 1.78623C33.0189 2.9654 35.4749 4.69097 37.4963 6.85348C39.5178 4.68986 41.9743 2.96335 44.71 1.78354C47.4456 0.603724 50.4006 -0.00362175 53.3875 1.62474e-05C59.1188 1.61656e-05 64.6155 2.24007 68.6685 6.22751C72.7216 10.2149 74.999 15.6232 75 21.2628C75.0019 24.7894 74.112 28.2611 72.4105 31.3649C70.7091 34.4688 68.2495 37.1073 65.2534 39.0427V39.0427Z" fill="#EBECF4"/>
</svg>
