<svg width="29" height="28" viewBox="0 0 29 28" fill="none" xmlns="http://www.w3.org/2000/svg">
<path d="M14.524 2.33301C21.1507 2.33301 26.1673 7.76616 26.1673 13.9821C26.1673 21.1913 20.2873 25.6663 14.5007 25.6663C12.5873 25.6663 10.464 25.1522 8.76065 24.1474C8.16565 23.7852 7.66398 23.5165 7.02232 23.7268L4.66565 24.4278C4.07065 24.6148 3.53398 24.1474 3.70898 23.5165L4.49065 20.8992C4.61898 20.537 4.59565 20.1514 4.40898 19.8476C3.40565 18.0015 2.83398 15.9801 2.83398 14.0172C2.83398 7.87132 7.74565 2.33301 14.524 2.33301ZM19.8557 12.5333C19.0273 12.5333 18.3623 13.1993 18.3623 14.0289C18.3623 14.8468 19.0273 15.5245 19.8557 15.5245C20.684 15.5245 21.349 14.8468 21.349 14.0289C21.349 13.1993 20.684 12.5333 19.8557 12.5333ZM14.4773 12.5333C13.6607 12.5216 12.984 13.1993 12.984 14.0172C12.984 14.8468 13.649 15.5128 14.4773 15.5245C15.3057 15.5245 15.9707 14.8468 15.9707 14.0289C15.9707 13.1993 15.3057 12.5333 14.4773 12.5333ZM9.09898 12.5333C8.27065 12.5333 7.60565 13.1993 7.60565 14.0289C7.60565 14.8468 8.28232 15.5245 9.09898 15.5245C9.92732 15.5128 10.5923 14.8468 10.5923 14.0289C10.5923 13.1993 9.92732 12.5333 9.09898 12.5333Z" fill="#DADBE7"/>
</svg>
