<svg width="36" height="36" viewBox="0 0 36 36" fill="none" xmlns="http://www.w3.org/2000/svg">
<g clip-path="url(#clip0_1532_16162)">
<rect x="6" y="7" width="23" height="22" fill="#C7C7D7"/>
<path d="M26.3882 0C32.5083 0 36.0003 3.45603 36.0003 9.59408V26.4062C36.0003 32.5083 32.5263 36.0003 26.4062 36.0003H9.59408C3.45603 36.0003 0 32.5083 0 26.4062V9.59408C0 3.45603 3.45603 0 9.59408 0H26.3882ZM17.9821 9.91808C17.1541 9.91808 16.4881 10.5841 16.4881 11.4121V16.4881H11.3941C10.9981 16.4881 10.6201 16.6501 10.3321 16.9201C10.0621 17.2081 9.90008 17.5843 9.90008 17.9821C9.90008 18.8102 10.5661 19.4762 11.3941 19.4942H16.4881V24.5882C16.4881 25.4162 17.1541 26.0822 17.9821 26.0822C18.8102 26.0822 19.4762 25.4162 19.4762 24.5882V19.4942H24.5882C25.4162 19.4762 26.0822 18.8102 26.0822 17.9821C26.0822 17.1541 25.4162 16.4881 24.5882 16.4881H19.4762V11.4121C19.4762 10.5841 18.8102 9.91808 17.9821 9.91808Z" fill="#EBECF4"/>
</g>
<defs>
<clipPath id="clip0_1532_16162">
<rect width="36" height="36" fill="white"/>
</clipPath>
</defs>
</svg>
