<svg width="16" height="17" viewBox="0 0 16 17" fill="none" xmlns="http://www.w3.org/2000/svg">
<path fill-rule="evenodd" clip-rule="evenodd" d="M8.26492 14.3779C9.33208 13.8297 13.253 11.5567 13.253 7.75344C13.253 4.85204 10.9009 2.5 7.99953 2.5C5.09814 2.5 2.74609 4.85204 2.74609 7.75344C2.74609 11.5567 6.66698 13.8297 7.73414 14.3779C7.90306 14.4647 8.09601 14.4647 8.26492 14.3779ZM7.99935 10.005C9.2428 10.005 10.2508 8.99699 10.2508 7.75353C10.2508 6.51008 9.2428 5.50206 7.99935 5.50206C6.7559 5.50206 5.74788 6.51008 5.74788 7.75353C5.74788 8.99699 6.7559 10.005 7.99935 10.005Z" fill="#DADBE7"/>
</svg>
