<svg width="255" height="298" viewBox="0 0 255 298" fill="none" xmlns="http://www.w3.org/2000/svg">
<path d="M336 148.98C336.088 204.568 314.609 258.01 276.107 298L226.912 248.666C217.323 239.08 205.194 232.452 191.964 229.568C178.733 226.683 164.955 227.661 152.262 232.388C130.669 240.377 106.824 239.632 85.7695 230.308C64.7148 220.985 48.1013 203.815 39.4418 182.43L0 162.978L33.0576 146.497C33.4571 132.402 37.1958 118.604 43.965 106.244C50.7342 93.8838 60.3393 83.317 71.9865 75.4165C83.6337 67.516 96.9886 62.5088 110.947 60.8086C124.906 59.1084 139.068 60.7642 152.262 65.6389C164.954 70.3724 178.734 71.3548 191.966 68.4696C205.198 65.5843 217.326 58.9526 226.912 49.3615L276.174 0C314.609 40.0116 336.057 93.4224 336 148.98Z" fill="#EBECF4"/>
</svg>
