<svg width="28" height="28" viewBox="0 0 28 28" fill="none" xmlns="http://www.w3.org/2000/svg">
<path d="M9.43174 2.33417C10.2055 2.35771 10.9546 2.4928 11.6805 2.73966H11.7529C11.8021 2.763 11.8389 2.78879 11.8635 2.81212C12.1349 2.89932 12.3916 2.99757 12.6372 3.13267L13.1039 3.34145C13.2881 3.43971 13.5092 3.6227 13.632 3.69762C13.7548 3.77008 13.8899 3.845 14.0005 3.92974C15.3649 2.88704 17.0217 2.32209 18.7288 2.33417C19.5038 2.33417 20.2775 2.44368 21.0132 2.69053C25.5463 4.16432 27.1798 9.13833 25.8153 13.486C25.0415 15.7077 23.7766 17.7354 22.1198 19.3922C19.7482 21.6888 17.1458 23.7275 14.3443 25.4838L14.0373 25.6692L13.718 25.4715C10.9068 23.7275 8.28956 21.6888 5.8959 19.3799C4.25017 17.7231 2.98395 15.7077 2.19793 13.486C0.810122 9.13833 2.44356 4.16432 7.02579 2.66474C7.38196 2.54193 7.74918 2.45596 8.11762 2.40806H8.265C8.61011 2.35771 8.95276 2.33417 9.29665 2.33417H9.43174ZM20.3746 6.21533C19.871 6.04216 19.3184 6.31358 19.1341 6.8294C18.9622 7.34523 19.2324 7.91018 19.7482 8.09317C20.5355 8.38793 21.0623 9.16289 21.0623 10.0214V10.0594C21.039 10.3407 21.1237 10.6121 21.2957 10.8209C21.4676 11.0297 21.7255 11.1513 21.9957 11.1771C22.4993 11.1635 22.9291 10.7595 22.966 10.2424V10.0963C23.0028 8.37565 21.9601 6.81712 20.3746 6.21533Z" fill="#FF5C9E"/>
</svg>
