<svg width="28" height="28" viewBox="0 0 28 28" fill="none" xmlns="http://www.w3.org/2000/svg">
<path d="M19.0562 2.33252C23.0089 2.33252 25.6654 5.10685 25.6654 9.23568V18.7638C25.6654 22.8927 23.0089 25.6658 19.055 25.6658H8.94236C4.98853 25.6658 2.33203 22.8927 2.33203 18.7638V9.23568C2.33203 5.10685 4.98853 2.33252 8.94236 2.33252H19.0562ZM10.3132 10.9647C8.6402 10.9647 7.2787 12.3262 7.2787 13.9992C7.2787 15.6734 8.6402 17.0349 10.3132 17.0349C11.6805 17.0349 12.8262 16.1202 13.2042 14.8742H15.6682V16.1599C15.6682 16.6429 16.0602 17.0349 16.5432 17.0349C17.0262 17.0349 17.4182 16.6429 17.4182 16.1599V14.8742H18.9699V16.1599C18.9699 16.6429 19.3619 17.0349 19.8449 17.0349C20.3279 17.0349 20.7199 16.6429 20.7199 16.1599V13.9992C20.7199 13.5162 20.3279 13.1242 19.8449 13.1242H13.2042C12.8262 11.8794 11.6805 10.9647 10.3132 10.9647ZM10.3133 12.7146C11.0215 12.7146 11.599 13.2909 11.599 14.0002C11.599 14.7084 11.0215 15.2847 10.3133 15.2847C9.60515 15.2847 9.02765 14.7084 9.02765 14.0002C9.02765 13.2909 9.60515 12.7146 10.3133 12.7146Z" fill="#DADBE7"/>
</svg>
