<svg width="302" height="302" viewBox="0 0 302 302" fill="none" xmlns="http://www.w3.org/2000/svg">
<mask id="mask0_416_23191" style="mask-type:alpha" maskUnits="userSpaceOnUse" x="0" y="0" width="302" height="302">
<rect width="302" height="302" fill="#C4C4C4"/>
</mask>
<g mask="url(#mask0_416_23191)">
<path d="M160.732 228.447C161.584 220.818 170.167 165.95 183.031 155.742C195.894 145.534 199.576 151.444 199.576 151.444L202.545 155.742L170.604 231.843L160.732 228.447Z" fill="#575FCC"/>
<path d="M239.71 261.674C252.826 279.404 253.816 283.488 254.299 312.565C254.782 341.643 260.834 390.45 260.834 390.45C242.862 399.046 213.913 402.764 193.479 394.748L192.513 385.206L177.417 382.928C172.078 347.553 174.54 307.042 180.339 264.339L239.71 261.674Z" fill="#575FCC"/>
<path d="M187.403 304.85C194.996 302.701 209.126 299.52 218.238 293.266C228.11 286.475 232.552 273.537 234.485 261.91L225.28 262.34L221.713 270.485L176.978 293.846C176.978 294.233 176.978 294.598 176.863 294.985L178.75 304.85L189.911 384.862L192.603 385.27C193.662 384.884 186.022 305.215 187.403 304.85Z" fill="#363CB3"/>
<path d="M190.969 116.479L203.119 146.738L220.331 160.966L183.191 179.878L187.149 158.988L178.818 128.836L190.969 116.479Z" fill="#FFC7E0" stroke="#262C97" stroke-width="0.5" stroke-miterlimit="10"/>
<path d="M191.014 117.833C192.349 125.656 186.918 137.648 177.644 137.175C168.371 136.702 158.775 119.509 158.407 107.431C158.038 95.3528 174.193 94.5361 174.193 94.5361L182.316 104.422L191.014 117.833Z" fill="#FFC7E0"/>
<path d="M188.392 130.383C186.091 134.402 182.317 137.367 177.599 137.088C168.395 136.529 158.73 119.422 158.362 107.344C157.993 95.2659 174.148 94.4492 174.148 94.4492L182.271 104.335L190.969 117.875" stroke="#1E1991" stroke-width="0.5" stroke-miterlimit="10"/>
<path d="M168.811 112.674L170.306 116.478" stroke="#1E1991" stroke-width="0.5" stroke-linecap="round" stroke-linejoin="round"/>
<path d="M171.016 122.861C171.753 123.743 173.525 123.592 174.974 122.539C176.424 121.486 176.999 119.896 176.263 119.015C175.527 118.133 173.732 118.262 172.282 119.337C170.832 120.412 170.303 121.98 171.016 122.861Z" fill="#FF5C9E"/>
<path d="M162.275 79.3631C170.491 77.4934 183.423 80.7171 190.35 94.0847C195.136 103.304 191.684 110.031 188.946 113.19" stroke="#1E1991" stroke-width="0.5" stroke-miterlimit="10" stroke-linecap="round"/>
<path d="M166.716 107.473C156.521 109.622 147.938 104.185 148.03 96.2545C148.122 88.3242 156.199 97.5009 156.199 97.5009L166.716 107.473Z" stroke="#1E1991" stroke-width="0.5" stroke-miterlimit="10" stroke-linecap="round"/>
<path d="M177.207 101.993C172.605 108.548 157.325 111.621 152.217 103.218C147.108 94.815 149.087 75.9456 167.657 78.8254C186.228 81.7052 195.133 102.122 192.326 107.624C191.536 109.159 190.201 110.39 188.547 111.107C186.893 111.825 185.024 111.984 183.259 111.557L177.207 101.993Z" fill="#575FCC"/>
<path d="M185.469 112.868C187.356 106.42 193.063 104.099 195.433 106.893C197.803 109.687 197.113 117.94 190.278 119.165L185.469 112.868Z" fill="#FFC7E0"/>
<path d="M185.469 112.868C187.356 106.42 193.063 104.099 195.433 106.893C197.803 109.687 197.113 117.94 190.278 119.165" stroke="#1E1991" stroke-width="0.5" stroke-miterlimit="10"/>
<path d="M189.588 113.104L195.41 106.871" stroke="#262C97" stroke-width="0.5" stroke-miterlimit="10"/>
<path d="M186.414 162.426C186.414 162.426 207.745 152.497 206.94 149.982C206.94 149.982 223.209 159.009 229.629 169.668C248.361 200.788 247.878 239.859 248.361 250.777C248.844 261.694 247.394 267.97 238.144 273.493C228.893 279.016 185.93 284.045 171.065 263.951C158.638 247.059 174.908 172.72 186.414 162.426Z" fill="#FF5C9E"/>
<path d="M233.196 179.878C237.821 192.911 240.349 206.513 240.698 220.239L195.779 215.94" stroke="#1E1991" stroke-width="0.5" stroke-miterlimit="10"/>
<g style="mix-blend-mode:multiply">
<path d="M221.622 270.485L206.688 278.286C214.764 278.639 222.854 277.915 230.712 276.137C237.316 259.073 235.774 238.227 235.774 238.227L221.622 270.485Z" fill="#575FCC"/>
</g>
<path d="M96.1597 158.902L102.028 183.854C107.342 189.343 112.948 194.58 118.826 199.542C126.512 205.796 89.4633 221.485 88.911 220.539C88.3588 219.594 73.6543 185.186 73.6543 185.186L81.9845 148.651L97.5865 147.189L96.1597 158.902Z" fill="#FFC7E0" stroke="#262C97" stroke-width="0.5" stroke-miterlimit="10"/>
<path d="M95.4011 190.989C80.5126 201.584 97.2651 243.041 107.689 272.828C118.114 302.615 55.5449 427.393 55.5449 427.393C55.5449 427.393 98.6918 435.259 158.821 406.396C190.14 391.352 189.818 384.905 189.818 384.905C189.818 384.905 177.944 278.867 167.313 258.708C156.681 238.549 112.775 194.341 112.775 194.341C112.775 194.341 103.985 184.885 95.4011 190.989Z" fill="#FABF48"/>
<path d="M113.926 297.198C135.442 308.653 178.658 304.849 178.658 304.849L176.587 294.104L113.926 297.198Z" fill="#363CB3"/>
<path d="M165.013 226.127C160.411 237.045 110.383 172.119 96.7602 183.918C85.1163 193.997 105.367 226.299 122.694 240.204C148.007 260.406 176.197 273.257 184.826 258.665C193.616 243.621 192.604 176.375 199.599 171.281C201.654 169.502 204.12 168.189 206.806 167.444C209.491 166.699 212.325 166.541 215.086 166.983C218.177 167.281 221.173 168.15 223.9 169.54C224.636 167.885 222.887 165.715 219.136 163.093C219.136 163.093 226.937 167.692 229.814 169.54C232.69 171.389 231.494 160.944 218.308 155.055C205.122 149.167 195.158 153.615 189.359 161.653C180.247 174.268 167.475 220.453 165.013 226.127Z" fill="#FFC7E0" stroke="#262C97" stroke-width="0.5" stroke-miterlimit="10"/>
<path d="M210.139 161.782C213.187 161.412 216.285 161.89 219.044 163.157" stroke="#1E1991" stroke-width="0.5" stroke-linecap="round" stroke-linejoin="round"/>
<path d="M97.4491 130.082C104.767 133.392 111.9 146.115 112.614 155.356C113.465 165.973 97.7483 167.305 88.8888 154.69C85.2069 149.446 85.5751 139.646 88.8888 135.347C90.9391 132.656 93.9923 130.778 97.4491 130.082Z" fill="#FFC7E0"/>
<path d="M88.8888 154.69C85.2069 149.446 85.5751 139.646 88.8888 135.347C90.9528 132.668 94.014 130.806 97.4722 130.125C104.79 133.435 110.474 144.288 112.637 155.399C114.202 163.351 101.89 166.488 92.7087 158.88" stroke="#1E1991" stroke-width="0.5" stroke-miterlimit="10"/>
<path d="M105.344 149.21C105.344 150.327 104.009 151.359 102.168 151.466C100.328 151.574 98.7857 150.778 98.6937 149.661C98.6016 148.543 100.028 147.512 101.869 147.512C103.71 147.512 105.275 148.092 105.344 149.21Z" fill="#FF5C9E"/>
<path d="M99.293 139.946L101.295 143.514" stroke="#1E1991" stroke-width="0.5" stroke-linecap="round" stroke-linejoin="round"/>
<path d="M86.705 145.728C92.0437 143.149 90.7781 137.669 92.4579 136.53C94.1378 135.391 109.648 135.799 107.646 125.054C105.966 116.07 95.0352 116.457 90.2948 121.787C90.2948 121.787 77.4313 110.869 60.3797 126.322C43.328 141.774 56.8819 157.957 53.4762 169.003C50.0704 180.05 14.6094 194.535 20.9837 228.857C27.3579 263.178 72.5758 267.283 88.9602 247.253C96.7611 237.69 98.556 225.074 99.2234 216.628C102.054 180.824 83.8286 163.33 86.705 145.728Z" fill="#15154C"/>
<path d="M92.2949 120.928C95.4475 118.563 104.353 115.619 108.403 121.529C111.625 126.322 108.886 132.468 101.5 132.812" stroke="#1E1991" stroke-width="0.5" stroke-miterlimit="10" stroke-linecap="round"/>
<path d="M15.7812 224.88C16.6787 202.766 31.8894 189.635 49.5164 174.784C67.1433 159.933 63.9447 157.097 63.9447 157.097" stroke="#1E1991" stroke-width="0.5" stroke-miterlimit="10" stroke-linecap="round"/>
<path d="M91.6959 176.138C107.804 204.076 106.93 248.456 72.4121 257.117" stroke="#1E1991" stroke-width="0.5" stroke-miterlimit="10" stroke-linecap="round"/>
<path d="M90.2942 153.614C90.2942 153.614 82.5853 157.913 76.4872 153.614C70.3891 149.316 75.9579 144.91 79.3636 144.287C82.1984 143.949 85.0683 144.583 87.4407 146.071L90.2942 153.614Z" fill="#FFC7E0"/>
<path d="M90.2915 153.615C90.2915 153.615 82.1224 158.386 76.4845 153.615C75.5756 152.986 74.8941 152.113 74.5314 151.113C74.1686 150.113 74.142 149.033 74.4549 148.018C74.7679 147.003 75.4055 146.102 76.2824 145.435C77.1593 144.768 78.2335 144.368 79.3609 144.287C82.1855 144.094 85.0053 144.717 87.438 146.071" stroke="#1E1991" stroke-width="0.5" stroke-miterlimit="10"/>
<path d="M75.1738 146.437L85.1149 148.113" stroke="#262C97" stroke-width="0.5" stroke-miterlimit="10"/>
<path d="M200.472 216.993C204.476 217.638 223.162 218.992 236.163 220.324C236.163 220.324 238.465 273.838 217.639 285.293C187.149 302.12 156.382 300.616 133.9 300.036C111.417 299.455 99.9574 291.439 100.579 290.687C101.2 289.935 111.532 292.836 113.971 292.191C116.411 291.547 104.767 284.218 103.087 274.525C101.407 264.833 103.731 261.631 103.731 261.631C103.731 261.631 109.921 270.657 118.62 273.064C123.959 274.525 122.693 273.429 122.693 273.429C122.693 273.429 113.626 260.685 116.066 259.331C118.505 257.977 125.27 265.778 135.833 273.429C144.508 279.726 195.962 270.979 200.012 262.684C204.062 254.388 200.472 216.993 200.472 216.993Z" fill="#FFC7E0"/>
<path d="M102.582 266.015C106.425 273.945 120.853 281.188 120.853 281.188" stroke="#1E1991" stroke-width="0.5" stroke-linecap="round" stroke-linejoin="round"/>
<path d="M103.086 274.525C106.952 279.738 112.045 284.053 117.974 287.141" stroke="#1E1991" stroke-width="0.5" stroke-linecap="round" stroke-linejoin="round"/>
<path d="M236.095 219.829C236.095 219.829 238.396 273.837 217.686 285.292C187.195 302.12 156.429 300.615 133.946 300.035C111.464 299.455 100.004 291.438 100.626 290.686C101.247 289.934 111.579 292.835 114.018 292.191C116.458 291.546 104.814 284.217 103.134 274.525C101.454 264.832 103.778 261.63 103.778 261.63C103.778 261.63 109.968 270.656 118.667 273.063C124.005 274.525 122.74 273.429 122.74 273.429C122.74 273.429 113.673 260.684 116.112 259.33C118.552 257.976 125.317 265.778 135.879 273.429C144.555 279.726 196.009 270.979 200.059 262.683C204.109 254.387 200.45 216.477 200.45 216.477" stroke="#1E1991" stroke-width="0.5" stroke-miterlimit="10"/>
<path d="M242.47 108.484C242.47 108.484 238.42 97.158 234.623 105.325C232.322 110.332 236.326 122.131 236.326 122.131C236.326 122.131 252.25 114.544 251.146 107.323C250.478 103.004 242.47 108.484 242.47 108.484Z" fill="#FF5C9E"/>
<path d="M48.2913 93.0883C48.2913 93.0883 47.3939 81.182 54.2283 87.3715C58.4395 91.1755 59.544 103.533 59.544 103.533C59.544 103.533 41.687 102.093 39.8 95.13C38.6264 90.8962 48.2913 93.0883 48.2913 93.0883Z" fill="#FF5C9E"/>
</g>
</svg>
