<svg width="375" height="405" viewBox="0 0 375 405" fill="none" xmlns="http://www.w3.org/2000/svg">
<path d="M456 202.463C456.12 278.008 426.969 350.636 374.716 404.982L307.953 337.936C294.938 324.91 278.478 315.903 260.522 311.982C242.566 308.061 223.868 309.392 206.642 315.815C177.337 326.673 144.976 325.659 116.402 312.989C87.8273 300.318 65.2803 276.985 53.5282 247.922L0 221.487L44.8639 199.09C45.406 179.934 50.4801 161.182 59.6668 144.385C68.8535 127.588 81.8891 113.228 97.696 102.491C113.503 91.7542 131.627 84.9494 150.572 82.6388C169.516 80.3283 188.735 82.5784 206.642 89.2032C223.866 95.636 242.567 96.9711 260.525 93.05C278.483 89.129 294.943 80.1165 307.953 67.0822L374.808 0C426.97 54.3758 456.078 126.961 456 202.463Z" fill="#EBECF4"/>
<path d="M196.168 220.581C196.536 217.036 200.244 191.546 205.801 186.803C211.359 182.061 212.949 184.806 212.949 184.806L214.232 186.803L200.433 222.159L196.168 220.581Z" fill="#575FCC"/>
<path d="M229.135 289.874C223.623 291.926 217.669 292.477 211.876 291.471L210.763 291.301C210.415 295.92 210.389 300.557 210.683 305.18C212.513 326.327 213.228 342.572 211.827 343.83C211.498 344.119 211.986 347.105 210.882 347.734C215.266 347.544 219.641 347.344 224.035 347.294C223.596 346.949 223.25 346.498 223.029 345.984C222.809 345.469 222.72 344.907 222.772 344.349C223.08 342.622 230.069 326.986 230.656 309.793C231.163 294.606 228.787 290.622 228.787 290.622L229.135 289.874Z" fill="#DADBE7"/>
<path d="M223.646 341.464C220.266 344.988 216.687 344.399 213.029 341.464L212.422 339.127L202.182 343.94L200.761 344.259C192.569 345.527 188.92 348.413 189.119 353.465H227.066C227.066 350.729 227.623 344.459 223.646 341.464Z" fill="#DADBE7"/>
<path d="M232.515 293.538C227.004 295.591 221.049 296.142 215.257 295.135L214.153 294.966C213.797 299.584 213.767 304.222 214.064 308.844C215.903 329.991 218.587 348.692 217.185 349.95C216.857 350.25 215.376 350.769 214.263 351.398C218.647 351.208 223.031 351.009 227.415 350.959C226.976 350.613 226.63 350.163 226.41 349.648C226.189 349.133 226.101 348.571 226.153 348.013C226.461 346.286 233.45 330.65 234.036 313.457C234.553 298.271 232.167 294.287 232.167 294.287L232.515 293.538Z" fill="#FFC7E0" stroke="#262C97" stroke-width="0.5" stroke-miterlimit="10"/>
<path d="M230.289 236.017C235.956 244.254 236.383 246.151 236.592 259.66C236.801 273.169 239.415 295.844 239.415 295.844C231.651 299.838 219.144 301.565 210.316 297.841L209.899 293.408L203.377 292.35C201.07 275.915 202.134 257.094 204.64 237.255L230.289 236.017Z" fill="#575FCC"/>
<path d="M207.692 256.076C210.973 255.078 217.077 253.6 221.014 250.694C225.279 247.539 227.197 241.529 228.032 236.127L224.056 236.327L222.515 240.111L203.188 250.964C203.188 251.144 203.188 251.313 203.139 251.493L203.954 256.076L208.776 293.248L209.939 293.438C210.396 293.258 207.095 256.246 207.692 256.076Z" fill="#363CB3"/>
<path d="M209.232 168.562L214.481 182.62L221.917 189.23L205.871 198.016L207.581 188.311L203.982 174.303L209.232 168.562Z" fill="#FFC7E0" stroke="#262C97" stroke-width="0.5" stroke-miterlimit="10"/>
<path d="M209.25 169.191C209.827 172.825 207.48 178.397 203.474 178.177C199.468 177.957 195.322 169.97 195.163 164.358C195.004 158.747 201.983 158.368 201.983 158.368L205.492 162.961L209.25 169.191Z" fill="#FFC7E0"/>
<path d="M208.119 175.022C207.125 176.889 205.494 178.267 203.456 178.137C199.48 177.877 195.304 169.93 195.145 164.318C194.986 158.707 201.965 158.328 201.965 158.328L205.475 162.921L209.233 169.211" stroke="#1E1991" stroke-width="0.5" stroke-miterlimit="10"/>
<path d="M199.658 166.794L200.304 168.562" stroke="#1E1991" stroke-width="0.5" stroke-linecap="round" stroke-linejoin="round"/>
<path d="M200.611 171.527C200.929 171.936 201.694 171.867 202.321 171.377C202.947 170.888 203.196 170.149 202.877 169.74C202.559 169.33 201.784 169.39 201.158 169.89C200.531 170.389 200.303 171.118 200.611 171.527Z" fill="#FF5C9E"/>
<path d="M196.834 151.319C200.383 150.45 205.97 151.948 208.963 158.158C211.031 162.441 209.539 165.567 208.356 167.034" stroke="#1E1991" stroke-width="0.5" stroke-miterlimit="10" stroke-linecap="round"/>
<path d="M198.753 164.378C194.348 165.377 190.64 162.851 190.68 159.166C190.72 155.482 194.209 159.745 194.209 159.745L198.753 164.378Z" stroke="#1E1991" stroke-width="0.5" stroke-miterlimit="10" stroke-linecap="round"/>
<path d="M203.287 161.832C201.298 164.878 194.697 166.305 192.49 162.401C190.283 158.497 191.138 149.731 199.161 151.069C207.184 152.407 211.031 161.892 209.818 164.448C209.477 165.161 208.9 165.733 208.186 166.067C207.471 166.4 206.664 166.474 205.901 166.275L203.287 161.832Z" fill="#575FCC"/>
<path d="M206.855 166.884C207.671 163.889 210.136 162.811 211.16 164.109C212.184 165.407 211.886 169.241 208.933 169.81L206.855 166.884Z" fill="#FFC7E0"/>
<path d="M206.855 166.884C207.671 163.889 210.136 162.811 211.16 164.109C212.184 165.407 211.886 169.241 208.933 169.81" stroke="#1E1991" stroke-width="0.5" stroke-miterlimit="10"/>
<path d="M208.635 166.994L211.15 164.098" stroke="#262C97" stroke-width="0.5" stroke-miterlimit="10"/>
<path d="M207.262 189.908C207.262 189.908 216.478 185.296 216.13 184.127C216.13 184.127 223.159 188.321 225.933 193.273C234.025 207.731 233.816 225.883 234.025 230.955C234.234 236.027 233.608 238.942 229.611 241.508C225.615 244.074 207.054 246.411 200.631 237.075C195.263 229.227 202.292 194.691 207.262 189.908Z" fill="#FF5C9E"/>
<path d="M227.476 198.016C229.473 204.071 230.566 210.39 230.717 216.767L211.311 214.77" stroke="#1E1991" stroke-width="0.5" stroke-miterlimit="10"/>
<g style="mix-blend-mode:multiply">
<path d="M222.474 240.111L216.021 243.735C219.511 243.899 223.006 243.563 226.401 242.736C229.254 234.809 228.588 225.124 228.588 225.124L222.474 240.111Z" fill="#575FCC"/>
</g>
<path d="M203.546 293.817C201.557 305.409 182.161 339.676 181.505 340.994C180.849 342.312 180.978 348.722 180.978 348.722L169.297 349.95C169.297 349.95 175.202 321.624 182.817 300.537C190.433 279.449 203.546 293.817 203.546 293.817Z" fill="#DADBE7"/>
<path d="M192.253 350.589C189.27 351.398 186.844 350.12 182.898 348.862C180.154 347.993 176.217 345.048 176.217 345.048C176.843 343.75 178.414 341.803 180.193 342.652C184.279 345.268 187.153 347.374 191.845 347.973L192.253 350.589Z" fill="#DADBE7"/>
<path d="M199.836 354.374L166.84 354.474L167.347 350.709L190.57 351.708L191.883 347.964C197.241 348.932 201.049 350.799 199.836 354.374Z" fill="#DADBE7"/>
<path d="M197.958 295.216C195.969 306.818 176.573 341.074 175.917 342.392C175.261 343.71 175.4 350.12 175.4 350.12L163.719 351.349C163.719 351.349 169.624 323.022 177.229 301.935C184.835 280.848 197.958 295.216 197.958 295.216Z" fill="#FFC7E0" stroke="#262C97" stroke-width="0.5" stroke-miterlimit="10"/>
<path d="M164.733 346.456C169.227 348.522 172.776 348.742 174.794 345.976C178.551 347.374 182.397 348.515 186.307 349.391C192.759 350.549 194.757 354.673 193.713 355.152C183.95 354.803 176.295 356.081 161.701 355.102C161.89 353.185 160.956 349.621 164.733 346.456Z" fill="#FF5C9E"/>
<path d="M186.674 351.987C183.692 352.806 181.256 351.518 177.319 350.27C174.576 349.401 170.639 346.446 170.639 346.446C171.255 345.148 172.836 343.201 174.615 344.049C178.711 346.665 181.634 348.772 186.277 349.371L186.674 351.987Z" fill="#FF5C9E"/>
<path d="M194.25 355.771L161.264 355.871L161.771 352.107L184.994 353.106L186.307 349.361C191.665 350.33 195.473 352.207 194.25 355.771Z" fill="#FABF48"/>
<path d="M182.348 351.907C182.31 350.615 182.694 349.345 183.442 348.293" stroke="#1E1991" stroke-width="0.5" stroke-miterlimit="10"/>
<path d="M178.9 351.308C178.93 350.519 179.122 349.744 179.464 349.033C179.807 348.322 180.292 347.689 180.889 347.175" stroke="#1E1991" stroke-width="0.5" stroke-miterlimit="10"/>
<path d="M175.52 349.761C175.885 348.128 176.86 346.699 178.244 345.767" stroke="#1E1991" stroke-width="0.5" stroke-miterlimit="10"/>
<path d="M168.272 188.271L170.807 199.863C173.103 202.414 175.525 204.846 178.064 207.152C181.385 210.057 165.379 217.346 165.14 216.907C164.902 216.467 158.549 200.482 158.549 200.482L162.148 183.509L168.888 182.83L168.272 188.271Z" fill="#FFC7E0" stroke="#262C97" stroke-width="0.5" stroke-miterlimit="10"/>
<path d="M167.943 203.178C161.511 208.101 168.749 227.361 173.252 241.199C177.756 255.038 150.725 313.008 150.725 313.008C150.725 313.008 169.365 316.662 195.343 303.253C208.873 296.264 208.734 293.268 208.734 293.268C208.734 293.268 203.604 244.005 199.011 234.639C194.418 225.274 175.449 204.736 175.449 204.736C175.449 204.736 171.652 200.343 167.943 203.178Z" fill="#FABF48"/>
<path d="M175.947 252.522C185.243 257.843 203.913 256.076 203.913 256.076L203.018 251.084L175.947 252.522Z" fill="#363CB3"/>
<path d="M151.48 308.515C163.569 311.73 194.309 302.454 208.734 289.864" stroke="#1E1991" stroke-width="0.5" stroke-miterlimit="10"/>
<path d="M198.018 219.503C196.03 224.575 174.416 194.412 168.531 199.893C163.501 204.576 172.249 219.583 179.735 226.043C190.671 235.428 202.849 241.399 206.578 234.619C210.375 227.63 209.938 196.389 212.96 194.022C213.848 193.196 214.913 192.586 216.073 192.24C217.234 191.893 218.458 191.82 219.651 192.025C220.986 192.164 222.28 192.568 223.458 193.214C223.777 192.445 223.021 191.436 221.4 190.218C221.4 190.218 224.771 192.355 226.013 193.214C227.256 194.072 226.739 189.22 221.043 186.484C215.346 183.748 211.041 185.815 208.536 189.549C204.599 195.41 199.082 216.867 198.018 219.503Z" fill="#FFC7E0" stroke="#262C97" stroke-width="0.5" stroke-miterlimit="10"/>
<path d="M217.514 189.609C218.831 189.437 220.169 189.66 221.361 190.248" stroke="#1E1991" stroke-width="0.5" stroke-linecap="round" stroke-linejoin="round"/>
<path d="M168.828 174.882C171.99 176.42 175.072 182.331 175.38 186.624C175.748 191.556 168.958 192.175 165.13 186.314C163.54 183.878 163.699 179.325 165.13 177.328C166.016 176.078 167.335 175.206 168.828 174.882Z" fill="#FFC7E0"/>
<path d="M165.13 186.314C163.54 183.878 163.699 179.325 165.13 177.328C166.022 176.084 167.344 175.218 168.838 174.902C172 176.44 174.455 181.482 175.39 186.644C176.066 190.338 170.747 191.796 166.781 188.261" stroke="#1E1991" stroke-width="0.5" stroke-miterlimit="10"/>
<path d="M172.24 183.768C172.24 184.287 171.664 184.766 170.868 184.816C170.073 184.866 169.407 184.497 169.367 183.978C169.327 183.459 169.944 182.979 170.739 182.979C171.534 182.979 172.21 183.249 172.24 183.768Z" fill="#FF5C9E"/>
<path d="M169.625 179.465L170.49 181.122" stroke="#1E1991" stroke-width="0.5" stroke-linecap="round" stroke-linejoin="round"/>
<path d="M164.187 182.151C166.493 180.953 165.946 178.406 166.672 177.877C167.398 177.348 174.098 177.538 173.233 172.546C172.508 168.372 167.785 168.552 165.737 171.028C165.737 171.028 160.18 165.956 152.813 173.135C145.447 180.313 151.302 187.832 149.831 192.964C148.36 198.096 133.04 204.825 135.793 220.771C138.547 236.716 158.082 238.623 165.161 229.317C168.531 224.874 169.306 219.013 169.595 215.09C170.818 198.455 162.944 190.328 164.187 182.151Z" fill="#15154C"/>
<path d="M166.602 170.629C167.964 169.53 171.811 168.162 173.561 170.908C174.953 173.135 173.769 175.99 170.578 176.15" stroke="#1E1991" stroke-width="0.5" stroke-miterlimit="10" stroke-linecap="round"/>
<path d="M133.547 218.923C133.935 208.649 140.506 202.549 148.121 195.65C155.737 188.75 154.355 187.432 154.355 187.432" stroke="#1E1991" stroke-width="0.5" stroke-miterlimit="10" stroke-linecap="round"/>
<path d="M166.343 196.279C173.302 209.258 172.924 229.876 158.012 233.9" stroke="#1E1991" stroke-width="0.5" stroke-miterlimit="10" stroke-linecap="round"/>
<path d="M165.737 185.815C165.737 185.815 162.407 187.812 159.772 185.815C157.138 183.818 159.544 181.771 161.015 181.481C162.24 181.324 163.48 181.619 164.505 182.31L165.737 185.815Z" fill="#FFC7E0"/>
<path d="M165.736 185.815C165.736 185.815 162.207 188.031 159.771 185.815C159.379 185.523 159.084 185.117 158.927 184.653C158.771 184.188 158.759 183.686 158.894 183.215C159.03 182.743 159.305 182.325 159.684 182.015C160.063 181.705 160.527 181.519 161.014 181.482C162.234 181.392 163.452 181.681 164.503 182.31" stroke="#1E1991" stroke-width="0.5" stroke-miterlimit="10"/>
<path d="M159.205 182.48L163.5 183.259" stroke="#262C97" stroke-width="0.5" stroke-miterlimit="10"/>
<path d="M213.337 215.259C215.067 215.559 223.139 216.188 228.756 216.807C228.756 216.807 229.75 241.668 220.753 246.99C207.581 254.808 194.289 254.109 184.576 253.839C174.863 253.57 169.912 249.846 170.18 249.496C170.449 249.147 174.912 250.495 175.966 250.195C177.02 249.896 171.99 246.491 171.264 241.988C170.538 237.485 171.542 235.997 171.542 235.997C171.542 235.997 174.217 240.191 177.975 241.309C180.281 241.988 179.734 241.479 179.734 241.479C179.734 241.479 175.817 235.558 176.871 234.929C177.925 234.3 180.848 237.924 185.411 241.479C189.159 244.404 211.388 240.34 213.138 236.486C214.888 232.632 213.337 215.259 213.337 215.259Z" fill="#FFC7E0"/>
<path d="M171.045 238.034C172.705 241.718 178.939 245.083 178.939 245.083" stroke="#1E1991" stroke-width="0.5" stroke-linecap="round" stroke-linejoin="round"/>
<path d="M171.264 241.988C172.934 244.409 175.134 246.414 177.696 247.849" stroke="#1E1991" stroke-width="0.5" stroke-linecap="round" stroke-linejoin="round"/>
<path d="M228.728 216.577C228.728 216.577 229.722 241.668 220.775 246.99C207.602 254.808 194.31 254.109 184.597 253.839C174.884 253.57 169.933 249.846 170.202 249.496C170.47 249.147 174.934 250.495 175.988 250.195C177.042 249.895 172.011 246.491 171.285 241.988C170.56 237.485 171.564 235.997 171.564 235.997C171.564 235.997 174.238 240.191 177.996 241.309C180.302 241.988 179.756 241.478 179.756 241.478C179.756 241.478 175.839 235.558 176.892 234.929C177.946 234.3 180.869 237.924 185.432 241.478C189.18 244.404 211.41 240.34 213.159 236.486C214.909 232.632 213.328 215.02 213.328 215.02" stroke="#1E1991" stroke-width="0.5" stroke-miterlimit="10"/>
<path d="M226.451 348.053C226.62 347.055 229.085 341.184 231.173 333.466C225.93 332.987 220.742 332.028 215.674 330.6C216.439 341.424 217.424 349.112 216.549 349.9L216.121 350.22C217.772 350.45 227.415 350.909 227.415 350.909C227.032 350.55 226.743 350.101 226.575 349.603C226.407 349.105 226.364 348.572 226.451 348.053Z" fill="#FABF48"/>
<path d="M216.082 331.409L217.225 335.173L219.661 332.388L221.212 336.152L223.25 333.286L224.831 336.431L226.839 333.915L228.589 337.2L230.497 334.305" stroke="#1E1991" stroke-width="0.5" stroke-miterlimit="10"/>
<path d="M227.364 345.337C223.984 348.862 220.137 348.043 216.429 345.108L215.434 343.111L205.602 347.554L204.181 347.873C195.979 349.142 192.34 352.027 192.539 357.079H230.476C230.496 354.343 231.341 348.333 227.364 345.337Z" fill="#15154C"/>
<path d="M230.347 351.677C229.341 352.286 228.6 353.252 228.269 354.383C228.269 354.383 201.427 355.382 192.837 354.563C192.61 355.391 192.516 356.251 192.559 357.109H230.496C230.576 355.297 230.526 353.482 230.347 351.677Z" fill="#FABF48"/>
<path d="M231.481 164.848C231.481 164.848 229.732 159.586 228.091 163.38C227.097 165.706 228.827 171.188 228.827 171.188C228.827 171.188 235.707 167.663 235.229 164.309C234.941 162.302 231.481 164.848 231.481 164.848Z" fill="#FF5C9E"/>
<path d="M147.592 157.695C147.592 157.695 147.204 152.164 150.157 155.039C151.976 156.807 152.453 162.548 152.453 162.548C152.453 162.548 144.739 161.879 143.924 158.644C143.417 156.677 147.592 157.695 147.592 157.695Z" fill="#FF5C9E"/>
<path d="M110.372 150.678C110.372 150.678 109.184 133.728 118.232 142.539C123.807 147.955 125.27 165.548 125.27 165.548C125.27 165.548 101.629 163.498 99.1309 153.585C97.5771 147.557 110.372 150.678 110.372 150.678Z" fill="#FF5C9E"/>
<path d="M245.897 120.678C245.897 120.678 247.085 103.728 238.037 112.539C232.462 117.955 231 135.548 231 135.548C231 135.548 254.641 133.498 257.139 123.585C258.692 117.557 245.897 120.678 245.897 120.678Z" fill="#FF5C9E"/>
</svg>
