<svg width="375" height="405" viewBox="0 0 375 405" fill="none" xmlns="http://www.w3.org/2000/svg">
<path d="M456 202.463C456.12 278.008 426.969 350.636 374.716 404.982L307.953 337.936C294.938 324.91 278.478 315.903 260.522 311.982C242.566 308.061 223.868 309.392 206.642 315.815C177.337 326.673 144.976 325.659 116.402 312.989C87.8273 300.318 65.2803 276.985 53.5282 247.922L0 221.487L44.8639 199.09C45.406 179.934 50.4801 161.182 59.6668 144.385C68.8535 127.588 81.8891 113.228 97.696 102.491C113.503 91.7542 131.627 84.9494 150.572 82.6388C169.516 80.3283 188.735 82.5784 206.642 89.2032C223.866 95.636 242.567 96.9711 260.525 93.05C278.483 89.129 294.943 80.1165 307.953 67.0822L374.808 0C426.97 54.3758 456.078 126.961 456 202.463Z" fill="#EBECF4"/>
<path d="M168.469 143.264C168.463 143.766 168.308 144.255 168.024 144.669C167.74 145.083 167.34 145.404 166.874 145.59C166.407 145.777 165.896 145.821 165.405 145.716C164.914 145.612 164.465 145.364 164.114 145.005C163.764 144.645 163.528 144.189 163.437 143.695C163.346 143.202 163.403 142.692 163.602 142.231C163.801 141.77 164.132 141.378 164.554 141.105C164.975 140.832 165.468 140.691 165.97 140.698C166.64 140.712 167.278 140.989 167.745 141.469C168.213 141.949 168.473 142.594 168.469 143.264Z" fill="white"/>
<path d="M193.338 131.067L160.125 130.549C158.512 130.526 156.955 131.143 155.795 132.264C154.636 133.386 153.967 134.921 153.937 136.534L153.742 150.07C153.719 151.683 154.336 153.24 155.458 154.399C156.58 155.559 158.115 156.227 159.728 156.258L184.689 156.647C183.498 159.524 182.459 162.463 181.578 165.451C181.808 165.417 188.379 159.844 192.029 156.748L192.97 156.772C194.568 156.786 196.109 156.174 197.261 155.067C198.414 153.96 199.088 152.446 199.138 150.848L199.347 137.311C199.367 136.505 199.228 135.703 198.936 134.951C198.644 134.2 198.206 133.514 197.647 132.933C197.088 132.352 196.42 131.888 195.68 131.568C194.94 131.248 194.144 131.077 193.338 131.067Z" fill="#739EF1"/>
<path d="M178.697 143.319C178.691 143.821 178.537 144.31 178.253 144.724C177.969 145.138 177.568 145.459 177.102 145.645C176.636 145.832 176.125 145.875 175.634 145.771C175.142 145.667 174.693 145.419 174.343 145.059C173.992 144.7 173.757 144.244 173.666 143.75C173.574 143.256 173.632 142.747 173.831 142.286C174.029 141.824 174.36 141.433 174.782 141.16C175.204 140.887 175.697 140.745 176.199 140.753C176.532 140.756 176.861 140.825 177.167 140.956C177.473 141.087 177.75 141.277 177.982 141.515C178.214 141.754 178.397 142.036 178.52 142.346C178.642 142.655 178.703 142.986 178.697 143.319Z" fill="white"/>
<path d="M166.983 143.42C166.977 143.922 166.823 144.411 166.539 144.825C166.255 145.239 165.854 145.56 165.388 145.746C164.922 145.933 164.411 145.976 163.92 145.872C163.428 145.768 162.979 145.52 162.629 145.16C162.279 144.801 162.043 144.345 161.952 143.851C161.861 143.358 161.918 142.848 162.117 142.387C162.315 141.925 162.647 141.534 163.068 141.261C163.49 140.988 163.983 140.846 164.485 140.854C164.818 140.857 165.147 140.926 165.453 141.057C165.759 141.188 166.036 141.378 166.268 141.617C166.501 141.855 166.683 142.137 166.806 142.447C166.929 142.756 166.989 143.087 166.983 143.42Z" fill="white"/>
<path d="M189.64 143.575C189.637 144.082 189.484 144.575 189.199 144.994C188.915 145.413 188.512 145.738 188.042 145.927C187.573 146.116 187.058 146.161 186.562 146.057C186.067 145.953 185.614 145.703 185.261 145.341C184.908 144.978 184.67 144.518 184.579 144.02C184.488 143.522 184.547 143.009 184.748 142.544C184.95 142.08 185.285 141.686 185.711 141.413C186.138 141.14 186.635 140.999 187.142 141.01C187.811 141.024 188.449 141.301 188.917 141.781C189.384 142.261 189.644 142.905 189.64 143.575Z" fill="white"/>
<path d="M192.106 130.451L158.892 129.932C157.279 129.909 155.723 130.526 154.563 131.648C153.403 132.77 152.735 134.305 152.704 135.918L152.51 149.453C152.487 151.067 153.104 152.623 154.226 153.783C155.347 154.942 156.883 155.611 158.496 155.642L183.457 156.03C182.265 158.908 181.227 161.847 180.346 164.834C180.575 164.801 187.146 159.228 190.797 156.132L191.738 156.156C193.336 156.17 194.876 155.558 196.029 154.451C197.182 153.343 197.855 151.829 197.906 150.232L198.114 136.694C198.135 135.888 197.995 135.086 197.704 134.335C197.412 133.583 196.974 132.897 196.415 132.317C195.856 131.736 195.187 131.272 194.447 130.951C193.708 130.631 192.912 130.461 192.106 130.451V130.451Z" stroke="#262C97" stroke-width="0.5" stroke-miterlimit="10"/>
<path d="M207.334 224.338C202.587 246.797 234.893 330.494 244.829 347.041H207.226C198.154 321.987 191.338 293.393 186.006 262.463C182.032 291.947 181.852 320.199 186.006 347.041H152.216C152.216 347.041 152.638 251.737 168.724 228.309C184.81 204.88 207.334 224.338 207.334 224.338Z" fill="#575FCC"/>
<path d="M205.671 260.074C209.708 258.753 215.014 284.428 227.853 308.224C219.509 286.161 211.03 259.93 208.018 241.586L190.808 241.694C190.808 241.694 173.383 215.355 165.326 233.807C148.773 271.725 183.426 322.553 183.426 322.553V322.508C182.363 302.457 183.228 282.35 186.007 262.464C188.857 278.993 192.13 294.848 195.951 309.85C195.933 308.611 192.094 264.53 205.671 260.074Z" fill="#363CB3"/>
<path d="M211.785 183.303L204.502 190.921L197.75 190.121C197.75 190.121 197.282 197.604 202.38 199.724C207.478 201.844 213.647 196.607 213.647 196.607L210.149 193.795L213.629 189.429L211.785 183.303Z" fill="#FFC7E0" stroke="#262C97" stroke-width="0.5" stroke-miterlimit="10"/>
<path d="M211.785 183.303C210.464 186.42 211.327 191.909 214.968 192.573C218.61 193.238 224.095 187.076 225.48 182.117C226.864 177.158 220.714 175.236 220.714 175.236L216.542 178.523L211.785 183.303Z" fill="#FFC7E0"/>
<path d="M211.471 188.746C211.956 190.642 213.089 192.232 214.95 192.573C218.547 193.238 224.095 187.076 225.48 182.117C226.864 177.158 220.714 175.236 220.714 175.236L216.542 178.523L211.785 183.303" stroke="#1E1991" stroke-width="0.5" stroke-miterlimit="10"/>
<path d="M218.196 182.279C218.016 182.94 218.104 183.645 218.44 184.242C218.777 184.839 219.335 185.279 219.994 185.468" stroke="#1E1991" stroke-width="0.5" stroke-miterlimit="10" stroke-linecap="round"/>
<path d="M217.297 186.609C216.893 186.941 216.146 186.707 215.634 186.088C215.121 185.468 215.031 184.695 215.436 184.363C215.841 184.03 216.587 184.264 217.1 184.884C217.612 185.504 217.702 186.258 217.297 186.609Z" fill="#FF5C9E"/>
<path d="M218.727 178.075C219.788 181.219 225.417 183.986 228.267 181.003C231.118 178.021 232.305 170.008 224.824 169.406C217.343 168.804 211.786 176.395 212.289 178.937C212.435 179.648 212.823 180.286 213.387 180.743C213.951 181.2 214.656 181.448 215.383 181.443L218.727 178.075Z" fill="#575FCC"/>
<path d="M228.869 171.274C226.424 168.965 221.263 167.618 216.038 171.22C211.228 174.526 212.442 179.062 212.846 179.736" stroke="#1E1991" stroke-width="0.5" stroke-miterlimit="10" stroke-linecap="round"/>
<path d="M221.361 180.832C224.454 183.626 228.555 183.303 230.209 180.347C231.863 177.392 227.116 179.206 227.116 179.206L221.361 180.832Z" stroke="#1E1991" stroke-width="0.5" stroke-miterlimit="10" stroke-linecap="round"/>
<path d="M214.42 181.784C214.357 178.937 212.388 177.419 211.183 178.344C209.978 179.269 209.385 182.764 211.902 183.931L214.42 181.784Z" fill="#FFC7E0"/>
<path d="M214.42 181.784C214.357 178.937 212.388 177.419 211.183 178.344C209.978 179.269 209.385 182.764 211.902 183.931" stroke="#1E1991" stroke-width="0.5" stroke-miterlimit="10"/>
<path d="M212.801 181.488L211.183 178.344" stroke="#262C97" stroke-width="0.5" stroke-miterlimit="10"/>
<path d="M202.282 190.66C202.282 190.66 200.232 196.679 204.817 197.936C209.403 199.194 212.469 195.322 212.469 195.322C212.469 195.322 217.181 198.592 218.44 201.88C219.698 205.168 218.332 216.972 216.363 221.383C214.393 225.794 197.714 234.624 197.714 234.624L166.352 212.66C166.352 212.66 172.097 192.663 182.294 188.782C189.442 186.007 202.282 190.66 202.282 190.66Z" fill="#FF5C9E"/>
<path d="M197.714 215.741C194.288 213.325 200.177 202.895 202.677 196.544C201.944 195.395 201.656 194.018 201.868 192.672L198.523 191.433L189.226 203.165L190.637 217.152C190.637 217.152 201.148 218.158 197.714 215.741Z" fill="#363CB3"/>
<path d="M239.434 337.816C241.889 335.121 241.008 329.731 239.434 330.368C238.625 330.71 239.066 337.816 239.066 337.816C238.292 334.537 235.954 330.764 233.239 331.967C230.901 333.001 233.167 337.142 238.634 337.995" stroke="#1E1991" stroke-width="0.5" stroke-miterlimit="10"/>
<path d="M218.079 347.041C218.079 347.041 225.677 345.757 229.211 343.286C232.744 340.816 239.722 337.043 239.722 337.043C246.349 337.941 249.864 341.4 250.763 347.041H218.079Z" fill="#15154C"/>
<path d="M218.079 347.041H250.763C250.63 346.218 250.428 345.407 250.161 344.616C243.597 344.805 233.401 345.191 224.085 345.568C222.115 346.179 220.109 346.671 218.079 347.041Z" fill="#FABF48"/>
<path d="M169.31 339.469C164.473 339.469 160.75 335.076 162.611 332.929C165.093 330.072 169.085 334.474 169.679 338.714C169.958 334.896 172.044 330.8 174.966 332.246C177.888 333.692 174.786 338.939 170.389 339.433" stroke="#1E1991" stroke-width="0.5" stroke-miterlimit="10"/>
<path d="M179.075 348.308C179.075 348.308 180.567 339.432 170.191 338.372C159.815 337.312 156.812 348.308 156.812 348.308H179.075Z" fill="#15154C"/>
<path d="M156.812 348.308H179.075C179.143 347.663 179.143 347.013 179.075 346.368C176.127 346.008 173.16 345.828 170.191 345.829C165.695 345.9 160.975 346.341 157.342 346.727C157.133 347.243 156.956 347.771 156.812 348.308Z" fill="#FABF48"/>
<path d="M221.361 197.002L217.333 206.471C217.333 206.471 204.151 217.592 205.671 217.152C206.867 216.765 222.755 207.926 224.355 207.18C227.997 205.455 226.981 197.047 226.981 197.047L221.361 197.002Z" fill="#FFC7E0" stroke="#262C97" stroke-width="0.5" stroke-miterlimit="10"/>
<path d="M230.469 188.333C227.511 187.058 221.918 188.953 218.439 190.759C214.959 192.565 218.439 198.511 224.733 197.694C227.358 197.344 230.389 194.559 230.955 192.304C231.286 190.966 231.113 189.553 230.469 188.333Z" fill="#FFC7E0"/>
<path d="M224.778 197.694C227.404 197.344 230.434 194.559 231 192.304C231.329 190.946 231.14 189.515 230.47 188.288C227.512 187.013 221.919 188.908 218.439 190.714C215.4 192.295 217.648 197.002 222.458 197.649" stroke="#1E1991" stroke-width="0.5" stroke-miterlimit="10"/>
<path d="M225.201 189.896C225.065 190.57 225.2 191.271 225.577 191.846C225.954 192.421 226.543 192.824 227.215 192.969" stroke="#1E1991" stroke-width="0.5" stroke-miterlimit="10" stroke-linecap="round"/>
<path d="M223.555 194.352C223.061 194.514 222.458 194.02 222.216 193.247C221.973 192.475 222.216 191.738 222.683 191.576C223.151 191.415 223.78 191.909 224.023 192.681C224.266 193.454 224.059 194.199 223.555 194.352Z" fill="#FF5C9E"/>
<path d="M228.042 187.92C227.206 189.304 227.925 194.388 228.473 196.005C229.022 197.622 224.994 198.7 223.456 201.745C221.919 204.791 220.948 207.962 223.852 209.462C226.756 210.962 230.146 214.466 229.328 218.347C228.509 222.227 225.884 230.995 231.89 237.966C237.897 244.937 252.463 242.817 253.524 226.584C254.585 210.351 241.835 207.782 238.418 204.872C235.001 201.961 233.077 199.94 233.922 195.816C235.361 189.25 230.955 185.468 228.042 187.92Z" fill="#15154C"/>
<path d="M228.042 187.92C228.042 187.92 228.869 185.71 232.106 186.923C235.343 188.136 235.703 192.573 235.91 194.244C235.981 195.907 236.472 197.525 237.336 198.948C238.201 200.371 239.411 201.552 240.855 202.383C245.153 204.881 249.334 205.411 252.841 207.333C255.38 208.685 257.508 210.696 259 213.154" stroke="#1E1991" stroke-width="0.5" stroke-miterlimit="10" stroke-linecap="round"/>
<path d="M248.399 237.571C255.646 232.459 259 213.154 241.512 207.028" stroke="#1E1991" stroke-width="0.5" stroke-miterlimit="10"/>
<path d="M224.751 196.975C224.751 196.975 225.38 200.452 228.348 201.144C231.315 201.835 231.279 198.907 230.604 197.712C229.971 196.761 229.012 196.075 227.907 195.781L224.751 196.975Z" fill="#FFC7E0"/>
<path d="M224.751 196.975C224.751 196.975 225.38 200.452 228.348 201.144C231.315 201.835 231.279 198.907 230.604 197.712C229.971 196.761 229.012 196.075 227.907 195.781" stroke="#1E1991" stroke-width="0.5" stroke-miterlimit="10"/>
<path d="M230.956 199.518L227.854 197.002" stroke="#262C97" stroke-width="0.5" stroke-miterlimit="10"/>
<path d="M162.161 217.592C154.068 218.643 121.222 241.416 121.222 241.416C115.198 243.347 99.5075 244.524 101.351 245.386C102.601 245.97 125.988 250.453 127.309 250.498C128.631 250.543 129.629 247.3 129.629 247.3C129.629 247.3 152.351 243.266 167.726 232.423C183.102 221.581 162.161 217.592 162.161 217.592Z" fill="#FFC7E0" stroke="#262C97" stroke-width="0.5" stroke-miterlimit="10"/>
<path d="M181.367 215.355C178.058 208.474 171.566 205.168 150.229 205.958C128.893 206.749 109.956 207.27 108.769 205.824C107.583 204.377 102.673 193.247 102.008 192.349C101.342 191.45 97.3681 197.254 100.551 206.911C103.734 216.568 107.178 216.792 107.178 216.792C107.549 216.361 108.023 216.03 108.555 215.829C109.088 215.628 109.662 215.564 110.226 215.642C111.979 216.002 129.297 224.204 144.538 225.237C159.779 226.27 163.879 224.338 163.879 224.338L176.467 230.959L186.537 220.628L181.367 215.355Z" fill="#FFC7E0" stroke="#262C97" stroke-width="0.5" stroke-miterlimit="10"/>
<path d="M109.471 215.957C106.89 211.699 106.252 208.169 108.769 205.824C106.929 202.226 105.334 198.507 103.995 194.694C102.08 188.352 97.7009 186.842 97.3682 187.938C98.8698 197.676 98.4921 205.474 101.19 220.018C103.069 219.595 106.746 220.116 109.471 215.957Z" fill="#FF5C9E"/>
<path d="M101.342 194.622C100.883 197.73 102.448 200.012 104.165 203.794C105.352 206.489 108.769 210.082 108.769 210.082C109.992 209.301 111.745 207.495 110.684 205.779C107.591 201.988 105.136 199.311 103.994 194.73L101.342 194.622Z" fill="#FF5C9E"/>
<path d="M96.6934 187.507L100.488 220.574L104.192 219.622L100.416 196.49L104.012 194.693C102.403 189.429 100.092 185.836 96.6934 187.507Z" fill="#FABF48"/>
<path d="M101.936 198.952C103.234 198.83 104.455 198.28 105.406 197.388" stroke="#1E1991" stroke-width="0.5" stroke-miterlimit="10"/>
<path d="M102.934 202.338C103.722 202.207 104.475 201.914 105.145 201.478C105.815 201.042 106.387 200.472 106.827 199.805" stroke="#1E1991" stroke-width="0.5" stroke-miterlimit="10"/>
<path d="M104.876 205.545C106.481 204.995 107.812 203.846 108.589 202.338" stroke="#1E1991" stroke-width="0.5" stroke-miterlimit="10"/>
<path d="M103.887 245.809C107.916 247.07 112.218 247.176 116.304 246.114C121.061 244.749 122.769 242.934 122.769 242.934C122.284 241.569 118.75 238.442 116.835 239.116C112.456 241.308 107.996 243.006 103.267 243.123L103.887 245.809Z" fill="#FF5C9E"/>
<path d="M129.63 248.028C123.812 247.893 119.802 245.207 119.235 241.209C119.235 241.209 101.54 242.476 99.0402 243.734C98.3393 244.037 97.7255 244.511 97.2544 245.112C96.7833 245.713 96.47 246.422 96.3428 247.174C96.3428 247.174 102.322 248.315 113.328 250.498C124.333 252.681 129.603 254.091 129.603 254.091L129.63 248.028Z" fill="#FF5C9E"/>
<path d="M106 242.439C99.6341 241.541 96.4331 243.104 96.3701 247.174L129.639 254.118V251.072L106.459 245.979L106 242.439Z" fill="#FABF48"/>
<path d="M115.189 242.467L114.326 240.293" stroke="#1E1991" stroke-width="0.5" stroke-miterlimit="10"/>
<path d="M111.611 243.266L111.278 241.523" stroke="#1E1991" stroke-width="0.5" stroke-miterlimit="10"/>
<path d="M108.635 243.796V242.144" stroke="#1E1991" stroke-width="0.5" stroke-miterlimit="10"/>
<path d="M208.567 211.349C215.014 209.363 226.334 202.743 231.621 208.016C236.908 213.289 223.097 230.294 215.014 240.49C206.93 250.686 203.621 257.433 204.152 265.105C204.682 272.776 211.84 296.34 211.84 296.34C211.84 296.34 206.175 290.384 195.43 285.362C184.685 280.34 170.137 275.669 166.351 258.475C160.957 234.04 178.589 210.908 178.589 210.908C181.681 214.417 185.983 216.63 190.638 217.107C198.191 217.718 208.567 211.349 208.567 211.349Z" fill="#FABF48"/>
<path d="M232.789 210.612C232.681 215.104 223.33 222.218 223.33 222.218L225.128 227.33C229.606 220.979 233.221 214.637 232.789 210.612Z" fill="#363CB3"/>
<path d="M185.341 221.23C184.793 231.831 191.24 231.947 196.473 231.615C206.876 230.959 215.877 225.003 215.877 225.003L209.708 226.467L185.341 221.23Z" fill="#363CB3"/>
<path d="M210.41 210.603C212.646 215.416 213.276 220.82 212.208 226.018" stroke="#1E1991" stroke-width="0.5" stroke-miterlimit="10"/>
<path d="M180.567 212.597C180.567 212.597 169.373 229.495 170.901 251.666C172.025 268.015 183.157 275.651 195.277 281.895C208.396 288.668 210.86 293.052 210.86 293.052" stroke="#1E1991" stroke-width="0.5" stroke-miterlimit="10"/>
<path d="M203.892 227.752C205.75 232.819 209.625 236.852 215.518 239.853" stroke="#1E1991" stroke-width="0.5" stroke-miterlimit="10"/>
<path d="M201.751 228.04C202.58 231.125 204.129 233.971 206.27 236.344C208.411 238.717 211.083 240.55 214.069 241.694" stroke="#1E1991" stroke-width="0.5" stroke-miterlimit="10"/>
<path d="M189.846 187.956C189.846 187.956 193.82 185.045 201.175 185.468C208.53 185.89 205.347 189.528 204.484 190.921C203.621 192.313 194.216 207.09 193.55 210.576C192.885 214.061 194.081 214.448 196.599 214.43C199.116 214.412 208.566 211.582 208.566 211.582C210.283 216.335 210.724 221.455 209.843 226.432C209.843 226.432 187.49 231.821 182.221 225.057C174.74 215.472 195.34 188.756 195.34 188.756C193.529 188.364 191.693 188.097 189.846 187.956Z" fill="#FFC7E0"/>
<path d="M209.843 226.674C209.843 226.674 187.499 231.795 182.221 225.057C174.758 215.508 194.971 190.202 195.34 188.756" stroke="#1E1991" stroke-width="0.5" stroke-miterlimit="10"/>
<path d="M189.847 187.956C189.901 187.21 193.812 185.036 201.176 185.468C208.54 185.899 205.348 189.528 204.485 190.921C203.622 192.313 194.217 207.09 193.551 210.576C192.886 214.062 194.082 214.448 196.599 214.43C199.117 214.412 208.567 211.582 208.567 211.582" stroke="#1E1991" stroke-width="0.5" stroke-miterlimit="10"/>
<path d="M186.474 187.92C186.474 187.92 182.626 185.162 177.06 189.394C171.494 193.625 171.431 199.06 172.69 201.773C173.949 204.486 173.814 205.016 174.614 205.366C175.414 205.716 178.121 203.111 178.849 201.063C179.577 199.015 180.584 196.571 180.584 196.571C180.584 196.571 181.565 199.347 182.383 197.47C183.243 194.094 184.623 190.872 186.474 187.92Z" fill="#FFC7E0" stroke="#262C97" stroke-width="0.5" stroke-miterlimit="10"/>
<path d="M182.49 192.214C181.581 193.521 180.933 194.991 180.584 196.544" stroke="#1E1991" stroke-width="0.5" stroke-miterlimit="10"/>
<path d="M177.456 195.152C176.997 196.679 176.503 204.324 176.503 204.324" stroke="#1E1991" stroke-width="0.5" stroke-miterlimit="10"/>
<path d="M174.686 195.152C173.949 197.532 173.787 204.324 173.787 204.324" stroke="#1E1991" stroke-width="0.5" stroke-miterlimit="10"/>
<path d="M240.136 176.107C240.136 176.107 241.377 170.987 238.149 173.205C236.153 174.571 234.795 179.853 234.795 179.853C234.795 179.853 242.123 180.509 243.436 177.571C244.218 175.829 240.136 176.107 240.136 176.107Z" fill="#FF5C9E"/>
<path d="M226.532 225.237C226.631 225.093 226.919 217.457 227.854 217.152C228.789 216.846 231.352 223.844 229.257 230.133C227.063 236.727 220.049 239.889 216.597 238.532C216.764 234.533 217.392 230.566 218.467 226.71C220.265 220.269 218.872 216.263 220.58 216.433C224.159 216.757 226.532 225.237 226.532 225.237Z" fill="#FFC7E0" stroke="#262C97" stroke-width="0.5" stroke-miterlimit="10"/>
<path d="M219.752 217.152C220.516 218.481 222.306 225.165 222.503 227.357" stroke="#1E1991" stroke-width="0.5" stroke-miterlimit="10"/>
<path d="M219.527 229.172C219.576 226.974 219.492 224.775 219.275 222.587" stroke="#1E1991" stroke-width="0.5" stroke-miterlimit="10"/>
<path d="M157.252 226.674C159.095 228.606 167.988 231.822 168.725 230.034C171.818 222.542 169.732 214.062 168.446 213.478C164.211 211.582 158.223 220.664 158.223 220.664C158.223 220.664 159.284 212.993 158.403 212.642C157.522 212.292 152.576 221.778 157.252 226.674Z" fill="#FFC7E0" stroke="#262C97" stroke-width="0.5" stroke-miterlimit="10"/>
<path d="M161.298 221.23C163.285 216.46 164.4 214.493 166.09 213.388" stroke="#1E1991" stroke-width="0.5" stroke-miterlimit="10"/>
<path d="M164.643 221.886C165.982 218.643 168.113 214.87 168.446 213.478" stroke="#1E1991" stroke-width="0.5" stroke-miterlimit="10"/>
<path d="M167.188 223.44C169.049 220.853 169.615 215.732 169.615 215.732" stroke="#1E1991" stroke-width="0.5" stroke-miterlimit="10"/>
<path d="M154.613 158.474C154.619 158.976 154.774 159.465 155.058 159.88C155.342 160.294 155.742 160.614 156.208 160.801C156.675 160.987 157.186 161.031 157.677 160.927C158.168 160.822 158.617 160.575 158.968 160.215C159.318 159.855 159.554 159.4 159.645 158.906C159.736 158.412 159.679 157.902 159.48 157.441C159.281 156.98 158.95 156.588 158.528 156.315C158.107 156.043 157.614 155.901 157.112 155.909C156.442 155.923 155.804 156.199 155.337 156.679C154.869 157.16 154.609 157.804 154.613 158.474Z" fill="white"/>
<path d="M129.744 146.277L162.957 145.759C164.57 145.736 166.127 146.353 167.287 147.475C168.446 148.596 169.115 150.132 169.145 151.745L169.34 165.28C169.363 166.893 168.746 168.45 167.624 169.61C166.502 170.769 164.967 171.438 163.354 171.468L138.393 171.857C139.584 174.735 140.623 177.674 141.504 180.661C141.274 180.628 134.703 175.055 131.053 171.959L130.112 171.983C128.514 171.997 126.973 171.385 125.821 170.277C124.668 169.17 123.994 167.656 123.944 166.058L123.735 152.521C123.715 151.715 123.854 150.913 124.146 150.162C124.438 149.41 124.876 148.724 125.435 148.144C125.994 147.563 126.662 147.099 127.402 146.778C128.142 146.458 128.938 146.288 129.744 146.277Z" fill="#FABF48"/>
<path d="M144.385 158.529C144.391 159.031 144.545 159.52 144.829 159.934C145.113 160.349 145.514 160.669 145.98 160.856C146.446 161.042 146.957 161.086 147.449 160.982C147.94 160.877 148.389 160.63 148.739 160.27C149.09 159.91 149.325 159.454 149.416 158.961C149.508 158.467 149.45 157.957 149.251 157.496C149.053 157.035 148.722 156.643 148.3 156.37C147.878 156.097 147.385 155.956 146.883 155.963C146.55 155.967 146.222 156.036 145.915 156.166C145.609 156.297 145.332 156.487 145.1 156.726C144.868 156.964 144.685 157.247 144.562 157.556C144.44 157.865 144.379 158.196 144.385 158.529Z" fill="white"/>
<path d="M156.099 158.63C156.105 159.132 156.259 159.621 156.543 160.035C156.827 160.45 157.228 160.77 157.694 160.957C158.16 161.143 158.671 161.187 159.162 161.083C159.654 160.978 160.103 160.731 160.453 160.371C160.803 160.011 161.039 159.556 161.13 159.062C161.221 158.568 161.164 158.058 160.965 157.597C160.767 157.136 160.435 156.744 160.014 156.471C159.592 156.198 159.099 156.057 158.597 156.064C158.264 156.068 157.935 156.137 157.629 156.267C157.323 156.398 157.046 156.588 156.814 156.827C156.582 157.065 156.399 157.348 156.276 157.657C156.153 157.967 156.093 158.297 156.099 158.63Z" fill="white"/>
<path d="M133.442 158.786C133.445 159.292 133.599 159.786 133.883 160.205C134.167 160.623 134.57 160.948 135.04 161.137C135.509 161.327 136.024 161.372 136.52 161.267C137.015 161.163 137.468 160.914 137.821 160.551C138.174 160.188 138.412 159.729 138.503 159.231C138.594 158.733 138.535 158.219 138.334 157.755C138.132 157.29 137.797 156.896 137.371 156.623C136.944 156.35 136.447 156.21 135.94 156.22C135.271 156.234 134.633 156.511 134.166 156.991C133.698 157.471 133.438 158.116 133.442 158.786Z" fill="white"/>
<path d="M130.976 145.661L164.19 145.143C165.803 145.12 167.359 145.737 168.519 146.858C169.679 147.98 170.347 149.515 170.378 151.128L170.572 164.664C170.595 166.277 169.978 167.834 168.856 168.993C167.735 170.153 166.199 170.821 164.586 170.852L139.625 171.241C140.817 174.118 141.855 177.057 142.736 180.045C142.507 180.011 135.936 174.438 132.285 171.342L131.344 171.366C129.746 171.38 128.206 170.768 127.053 169.661C125.9 168.554 125.227 167.04 125.176 165.442L124.968 151.905C124.947 151.099 125.087 150.297 125.378 149.545C125.67 148.794 126.108 148.108 126.667 147.527C127.226 146.946 127.895 146.482 128.635 146.162C129.374 145.842 130.17 145.671 130.976 145.661V145.661Z" stroke="#262C97" stroke-width="0.5" stroke-miterlimit="10"/>
<path d="M271.807 81.1034C273.651 81.2536 275.113 82.7668 275.113 84.617V112.054C275.126 115.165 274.394 118.235 272.979 121.009C271.564 123.783 269.506 126.182 266.975 128.008L248.613 139.719C247.997 140.102 247.286 140.305 246.56 140.305C245.834 140.305 245.122 140.102 244.506 139.719L226.139 128.008C223.608 126.182 221.55 123.782 220.134 121.008C218.719 118.234 217.988 115.165 218 112.054V84.6168C218 82.7666 219.462 81.2536 221.306 81.1031C233.448 80.1125 243.156 76.5833 246.511 72.0149C246.518 72.0054 246.529 72 246.541 72C246.553 72 246.564 72.0053 246.571 72.0148C249.966 76.5837 259.652 80.1132 271.807 81.1034Z" fill="#68D1A2"/>
<path d="M247.881 103.091H244.957C243.696 103.089 242.486 102.59 241.593 101.703C240.7 100.815 240.197 99.612 240.193 98.3563V97.7895C240.197 96.5338 240.7 95.3306 241.593 94.4433C242.486 93.5559 243.696 93.0568 244.957 93.0552H247.881C249.142 93.0568 250.352 93.5561 251.243 94.4436C252.135 95.3311 252.637 96.5344 252.639 97.7895V98.3563C252.637 99.6114 252.135 100.815 251.243 101.702C250.352 102.59 249.142 103.089 247.881 103.091ZM244.957 94.9489C244.2 94.9489 243.473 95.248 242.937 95.7805C242.4 96.313 242.098 97.0355 242.097 97.7895V98.3563C242.098 99.1103 242.4 99.8327 242.937 100.365C243.473 100.898 244.2 101.197 244.957 101.197H247.881C248.638 101.197 249.364 100.898 249.9 100.365C250.435 99.8322 250.736 99.1097 250.736 98.3563V97.7895C250.736 97.0361 250.435 96.3136 249.9 95.7809C249.364 95.2482 248.638 94.9489 247.881 94.9489H244.957Z" fill="#F9FAFE"/>
<path d="M238.422 99.1912H254.229C254.823 99.1912 255.394 99.4261 255.814 99.8443C256.234 100.263 256.47 100.83 256.47 101.421V109.002C256.47 110.942 255.696 112.803 254.318 114.176C252.94 115.548 251.07 116.32 249.121 116.322H244.501C242.425 116.322 240.434 115.502 238.965 114.041C237.496 112.581 236.671 110.601 236.669 108.535V100.929C236.671 100.468 236.856 100.026 237.185 99.6998C237.513 99.3741 237.958 99.1912 238.422 99.1912Z" fill="#F9FAFE"/>
<path fill-rule="evenodd" clip-rule="evenodd" d="M248.513 104.494C248.889 105.56 248.325 106.728 247.253 107.102C247.172 107.13 247.09 107.153 247.008 107.171V110.821C247.008 110.948 246.958 111.071 246.871 111.161C246.783 111.251 246.664 111.302 246.54 111.302C246.416 111.302 246.297 111.251 246.209 111.161C246.121 111.071 246.072 110.948 246.072 110.821V107.156C245.425 106.994 244.869 106.522 244.632 105.849C244.256 104.782 244.82 103.615 245.892 103.241C246.963 102.867 248.137 103.428 248.513 104.494Z" fill="#68D1A2"/>
<path d="M272.285 83.0592C274.421 83.247 276.113 84.9986 276.113 87.1427V114.054C276.126 117.165 275.394 120.235 273.979 123.009C272.564 125.783 270.506 128.182 267.975 130.008L249.613 141.719C248.997 142.102 248.286 142.305 247.56 142.305C246.834 142.305 246.122 142.102 245.506 141.719L227.139 130.008C224.608 128.182 222.55 125.782 221.134 123.008C219.719 120.234 218.988 117.165 219 114.054V87.1425C219 84.9985 220.692 83.2469 222.828 83.0588C234.726 82.0108 244.204 78.5176 247.511 74.0149C247.518 74.0054 247.529 74 247.541 74V74C247.553 74 247.564 74.0053 247.571 74.0148C250.918 78.518 260.375 82.0116 272.285 83.0592Z" stroke="#262C97" stroke-width="0.5" stroke-miterlimit="10"/>
<path d="M247.881 103.091H244.957C243.696 103.089 242.486 102.59 241.593 101.703C240.7 100.815 240.197 99.612 240.193 98.3563V97.7895C240.197 96.5338 240.7 95.3306 241.593 94.4433C242.486 93.5559 243.696 93.0568 244.957 93.0552H247.881C249.142 93.0568 250.352 93.5561 251.243 94.4436C252.135 95.3311 252.637 96.5344 252.639 97.7895V98.3563C252.637 99.6114 252.135 100.815 251.243 101.702C250.352 102.59 249.142 103.089 247.881 103.091ZM244.957 94.9489C244.2 94.9489 243.473 95.248 242.937 95.7805C242.4 96.313 242.098 97.0355 242.097 97.7895V98.3563C242.098 99.1103 242.4 99.8327 242.937 100.365C243.473 100.898 244.2 101.197 244.957 101.197H247.881C248.638 101.197 249.364 100.898 249.9 100.365C250.435 99.8322 250.736 99.1097 250.736 98.3563V97.7895C250.736 97.0361 250.435 96.3136 249.9 95.7809C249.364 95.2482 248.638 94.9489 247.881 94.9489H244.957Z" fill="#F9FAFE"/>
<path d="M238.422 99.1912H254.229C254.823 99.1912 255.394 99.4261 255.814 99.8443C256.234 100.263 256.47 100.83 256.47 101.421V109.002C256.47 110.942 255.696 112.803 254.318 114.176C252.94 115.548 251.07 116.32 249.121 116.322H244.501C242.425 116.322 240.434 115.502 238.965 114.041C237.496 112.581 236.671 110.601 236.669 108.535V100.929C236.671 100.468 236.856 100.026 237.185 99.6998C237.513 99.3741 237.958 99.1912 238.422 99.1912Z" fill="#F9FAFE"/>
<path fill-rule="evenodd" clip-rule="evenodd" d="M248.513 104.494C248.889 105.56 248.325 106.728 247.253 107.102C247.172 107.13 247.09 107.153 247.008 107.171V110.821C247.008 110.948 246.958 111.071 246.871 111.161C246.783 111.251 246.664 111.302 246.54 111.302C246.416 111.302 246.297 111.251 246.209 111.161C246.121 111.071 246.072 110.948 246.072 110.821V107.156C245.425 106.994 244.869 106.522 244.632 105.849C244.256 104.782 244.82 103.615 245.892 103.241C246.963 102.867 248.137 103.428 248.513 104.494Z" fill="#68D1A2"/>
</svg>
