<svg width="279" height="355" viewBox="0 0 279 355" fill="none" xmlns="http://www.w3.org/2000/svg">
<path d="M139.601 76H279V215.299C279 252.35 264.281 287.884 238.082 314.083C211.883 340.282 176.35 355 139.299 355H0V215.5C0.0266429 178.493 14.7464 143.011 40.9237 116.852C67.101 90.694 102.594 76 139.601 76Z" fill="#EBECF4"/>
<path d="M241.718 47.7105L181.158 30.1948L161.429 98.5077L221.99 116.023L241.718 47.7105Z" fill="#739EF1"/>
<path d="M241.929 49.4866L179.895 30.8938L159.243 99.8995L221.278 118.492L241.929 49.4866Z" stroke="#1E1991" stroke-width="0.5" stroke-miterlimit="10"/>
<path d="M237.382 50.2271L182.795 34.439L167.793 86.3833L222.38 102.171L237.382 50.2271Z" fill="#575FCC"/>
<mask id="mask0_1503_19494" style="mask-type:alpha" maskUnits="userSpaceOnUse" x="167" y="34" width="71" height="69">
<path d="M237.382 50.2271L182.795 34.439L167.793 86.3833L222.38 102.171L237.382 50.2271Z" fill="#575FCC"/>
</mask>
<g mask="url(#mask0_1503_19494)">
<path d="M178.785 74.1838C174.658 75.8122 176.026 88.2029 179.701 93.7458C183.376 99.2887 190.477 92.6674 190.477 92.6674L178.785 74.1838Z" fill="#FF5C9E"/>
<path d="M205.93 102.89C205.327 104.301 204.303 105.491 202.999 106.298C201.587 107.128 198.43 103.818 198.43 103.753C198.672 102.38 199.032 101.03 199.507 99.7198C199.755 99.6227 203.3 99.3208 203.3 99.3208L205.93 102.89Z" fill="#FFC7E0" stroke="#262C97" stroke-width="0.23" stroke-miterlimit="10"/>
<path d="M182.504 90.9312C177.687 90.9312 164.422 106.762 164.422 106.762C164.422 108.617 165.683 110.256 167.558 111.798C167.558 111.798 179.271 104.745 182.849 102.319C186.426 99.8925 186.081 91.535 186.081 91.535L182.504 90.9312Z" fill="#363CB3"/>
<path d="M180.078 95.126C173.483 102.405 171.457 106.341 169.582 110.568C173.084 108.412 180.196 104.098 182.847 102.319C186.414 99.8816 185.336 90.4565 185.336 90.4565C183.41 91.8053 181.645 93.3722 180.078 95.126V95.126Z" fill="#363CB3"/>
<path d="M202.998 61.6636C202.783 68.4358 201.296 69.9024 206.974 71.369C212.653 72.8357 210.757 64.6615 210.757 64.6615L202.998 61.6636Z" fill="#15154C"/>
<path d="M205.919 62.8066L202.988 68.2956C202.988 68.2956 205.715 68.9211 205.941 69.374C206.167 69.8269 198.861 75.1649 196.717 72.2209C194.572 69.277 197.794 64.2301 197.794 64.2301L199.475 65.934L202.04 62.8713L205.919 62.8066Z" fill="#FFC7E0" stroke="#262C97" stroke-width="0.23" stroke-miterlimit="10"/>
<path d="M205.337 57.0266C202.32 56.2286 200.499 59.3883 200.057 62.1921C199.615 64.9959 202.331 65.7076 205.176 63.3244C205.757 62.7694 206.193 62.0796 206.445 61.316C206.697 60.5524 206.757 59.7385 206.62 58.9462C206.375 58.2016 205.931 57.538 205.337 57.0266V57.0266Z" fill="#FFC7E0"/>
<path d="M205.176 63.3244C205.758 62.7695 206.194 62.0797 206.445 61.3161C206.697 60.5525 206.757 59.7385 206.62 58.9462C206.42 58.2586 206.009 57.6513 205.446 57.21C202.428 56.412 200.499 59.3668 200.058 62.1921C199.745 64.1764 201.135 65.1577 203.118 64.5215" stroke="#1E1991" stroke-width="0.23" stroke-miterlimit="10"/>
<path d="M203.709 60.3589C203.765 60.7257 203.962 61.056 204.258 61.2796C204.554 61.5032 204.925 61.6023 205.293 61.5559" stroke="#1E1991" stroke-width="0.23" stroke-miterlimit="10" stroke-linecap="round"/>
<path d="M202.632 59.8735C202.262 59.8883 201.902 59.7577 201.628 59.5097C201.354 59.2617 201.188 58.9161 201.166 58.5471" stroke="#1E1991" stroke-width="0.23" stroke-miterlimit="10" stroke-linecap="round"/>
<path d="M205.196 57.2745C205.07 57.9539 205.137 58.6551 205.39 59.2979C205.644 59.9406 206.073 60.4989 206.629 60.9087C205.934 62.371 205.55 63.9615 205.5 65.58C205.45 67.1984 205.735 68.8097 206.338 70.3122C208.321 75.7904 216.715 80.6432 223.095 76.5992C226.328 74.5395 227.049 68.8456 219.517 65.9556C215.778 64.5105 212.168 61.8469 211.198 59.4852C208.321 52.6159 202.685 54.0933 201.834 58.2667C203.029 58.2827 204.201 57.9369 205.196 57.2745V57.2745Z" fill="#15154C"/>
<path d="M205.801 66.991C206.393 72.7064 208.947 76.2759 214.475 78.0876C220.003 79.8992 223.042 76.5994 223.915 75.37" stroke="#1E1991" stroke-width="0.23" stroke-miterlimit="10" stroke-linecap="round"/>
<path d="M205.197 57.2747C204.991 57.5956 204.863 57.9612 204.826 58.3412C204.789 58.7211 204.842 59.1045 204.982 59.4597C205.122 59.8148 205.345 60.1315 205.631 60.3835C205.918 60.6355 206.26 60.8156 206.63 60.9088" stroke="#1E1991" stroke-width="0.23" stroke-miterlimit="10" stroke-linecap="round"/>
<path d="M201.834 58.2992C204.183 51.6671 209.593 54.3523 211.662 58.8168C213.59 62.9902 219.302 64.3166 219.302 64.3166" stroke="#1E1991" stroke-width="0.23" stroke-miterlimit="10" stroke-linecap="round"/>
<path d="M205.326 62.5802C205.683 62.961 206.134 63.2397 206.634 63.3876C207.134 63.5354 207.665 63.5471 208.171 63.4214C209.701 62.8606 208.839 61.545 208.171 61.1999C207.613 60.9559 206.985 60.9214 206.404 61.1029L205.326 62.5802Z" fill="#FFC7E0"/>
<path d="M205.326 62.5802C205.683 62.961 206.134 63.2397 206.634 63.3876C207.134 63.5354 207.665 63.5471 208.171 63.4214C209.701 62.8606 208.839 61.545 208.171 61.1999C207.613 60.9559 206.985 60.9214 206.404 61.1029" stroke="#1E1991" stroke-width="0.23" stroke-miterlimit="10"/>
<path d="M208.872 61.9118L206.738 61.6746" stroke="#262C97" stroke-width="0.23" stroke-miterlimit="10"/>
<path d="M180.875 46.9868C179.733 45.5634 175.595 38.7695 174.592 37.0118C173.59 35.254 172.33 36.8177 172.879 40.3224C173.094 42.1033 173.577 43.8413 174.312 45.4771C174.312 45.4771 172.103 41.5302 171.909 42.0586C171.715 42.587 175.638 49.7044 176.284 50.3837C176.931 51.0631 180.875 46.9868 180.875 46.9868Z" fill="#FFC7E0" stroke="#262C97" stroke-width="0.23" stroke-miterlimit="10"/>
<path d="M179.098 44.9488C177.503 43.6763 175.661 40.5059 175.262 40.4627C174.863 40.4196 175.478 44.7763 176.437 46.3507" stroke="#1E1991" stroke-width="0.23" stroke-miterlimit="10"/>
<path d="M174.971 43.6653C174.095 41.4856 173.452 39.2191 173.053 36.9038" stroke="#1E1991" stroke-width="0.23" stroke-miterlimit="10"/>
<path d="M173.473 36.3323C173.828 37.5401 175.218 40.4625 175.218 40.4625" stroke="#1E1991" stroke-width="0.23" stroke-miterlimit="10"/>
<path d="M203.774 68.3497C203.774 68.3497 209.636 69.8378 209.614 73.1161C209.593 76.3944 196.823 79.2629 196.823 79.2629L188.203 76.8689L189.28 67.3036C183.3 62.0627 178.505 56.4227 175.811 50.0495C177.182 48.5487 178.852 47.3512 180.714 46.5339C188.03 56.4443 193.645 58.9569 199.14 65.3194C194.755 70.5604 198.86 74.0112 203.774 68.3497Z" fill="#FABF48"/>
<path d="M198.753 64.8665C197.837 65.7723 195.283 69.3525 197.309 71.3368C199.334 73.321 203.612 69.6006 204.464 68.5222" stroke="#1E1991" stroke-width="0.23" stroke-miterlimit="10"/>
<path d="M201.716 74.5396C197.61 76.4914 190.046 74.8307 190.046 74.8307L188.559 77.4404L195.304 79.8236L203.031 77.4835L201.716 74.5396Z" fill="#363CB3"/>
<path d="M187.891 70.9055L187.04 75.8014L184.087 75.0897C184.087 75.0897 182.827 82.4335 185.908 82.4227C188.99 82.4119 191.038 78.7885 191.038 78.7885L191.641 76.1249L190.434 76.0386L190.865 72.6094L187.891 70.9055Z" fill="#FFC7E0" stroke="#262C97" stroke-width="0.23" stroke-miterlimit="10"/>
<path d="M187.039 75.8013L186.727 77.613" stroke="#1E1991" stroke-width="0.23" stroke-miterlimit="10"/>
<path d="M188.172 71.0455C188.549 72.8249 190.629 74.9924 192.482 74.1621C194.336 73.3317 194.821 68.8995 193.905 66.2683C192.989 63.637 189.659 64.6938 189.659 64.6938L188.84 67.4545L188.172 71.0455Z" fill="#FFC7E0"/>
<path d="M189.713 73.5044C190.06 73.8586 190.502 74.105 190.985 74.214C191.469 74.323 191.974 74.2901 192.439 74.1191C194.26 73.2779 194.777 68.8566 193.862 66.2253C192.946 63.594 189.616 64.6509 189.616 64.6509L188.797 67.4115L188.172 71.0026" stroke="#1E1991" stroke-width="0.23" stroke-miterlimit="10"/>
<path d="M192.201 68.177L192.212 69.1152" stroke="#1E1991" stroke-width="0.23" stroke-linecap="round" stroke-linejoin="round"/>
<path d="M190.768 60.499C188.958 60.7255 186.63 62.4185 186.34 65.837C186.217 66.6127 186.328 67.4073 186.658 68.1197C186.988 68.8322 187.522 69.4302 188.193 69.8378" stroke="#1E1991" stroke-width="0.23" stroke-miterlimit="10" stroke-linecap="round"/>
<path d="M192.189 66.9047C194.42 66.5704 195.692 64.748 195.024 63.0441C194.355 61.3403 193.483 63.9392 193.483 63.9392L192.189 66.9047Z" stroke="#1E1991" stroke-width="0.23" stroke-miterlimit="10" stroke-linecap="round"/>
<path d="M189.637 66.5272C191.081 67.6055 194.422 67.0771 194.756 64.8664C195.09 62.6558 193.139 58.752 189.648 60.8009C186.156 62.8499 186.038 67.9398 187.051 68.8996C187.338 69.1686 187.709 69.3304 188.102 69.3579C188.494 69.3854 188.884 69.2768 189.206 69.0506L189.637 66.5272Z" fill="#575FCC"/>
<path d="M188.872 69.5036C187.956 68.2635 186.62 68.1988 186.372 68.986C186.124 69.7732 186.943 71.4986 188.419 71.229L188.872 69.5036Z" fill="#FFC7E0"/>
<path d="M188.872 69.5036C187.956 68.2635 186.62 68.1988 186.372 68.986C186.124 69.7732 186.943 71.4986 188.419 71.229" stroke="#1E1991" stroke-width="0.23" stroke-miterlimit="10"/>
<path d="M188.052 69.8702L186.371 68.9751" stroke="#262C97" stroke-width="0.23" stroke-miterlimit="10"/>
<path d="M187.277 92.2898C178.096 98.2856 173.99 103.322 171.113 109.738C168.236 116.154 162.223 131.716 162.223 131.716C162.481 133.689 167.406 138.013 172.6 139.739C172.6 139.739 179.518 118.613 181.511 115.324C183.505 112.035 188.839 109.177 188.839 109.177L193.645 93.2927L187.277 92.2898Z" fill="#575FCC"/>
<path d="M181.576 107.991C181.471 110.336 181.529 112.685 181.749 115.022C183.904 111.862 188.882 109.177 188.882 109.177L193.419 94.1445L192.126 95.9454C189.507 99.3423 181.899 101.736 181.576 107.991Z" fill="#363CB3"/>
<path d="M190.122 95.2014C185.359 101.736 184.357 104.378 184.303 112.305C184.25 120.231 187.353 137.474 187.353 137.474C191.857 137.765 197.838 136.989 201.771 133.797C201.771 133.797 195.122 116.64 196.782 107.97C197.632 103.235 198.883 98.581 200.521 94.0583L190.122 95.2014Z" fill="#575FCC"/>
<path d="M184.733 75.0464C184.733 75.0464 179.722 72.4367 177.815 74.9169C175.908 77.3972 176.371 84.8165 184.625 93.2495C192.88 101.682 198.257 93.6916 198.257 93.6916L203.645 79.7697C203.645 79.7697 197.438 77.2462 194.787 76.2973C192.136 75.3483 190.972 76.0924 190.972 76.0924C187.168 82.9078 182.211 82.8215 184.733 75.0464Z" fill="#FF5C9E"/>
<path d="M202.633 79.3491C208.204 81.1392 214.734 83.7597 214.066 89.583C213.398 95.4063 206.135 103.009 206.135 103.009C204.525 102.718 203.014 102.028 201.738 101.003C201.738 101.003 207.493 91.427 205.219 90.2193C203.255 89.2322 201.237 88.3573 199.174 87.5988L202.633 79.3491Z" fill="#FF5C9E"/>
<path d="M200.746 85.0646L199.948 85.7332L199.173 87.588C199.173 87.588 197.179 88.3321 197.912 88.6664C202.013 87.498 205.594 84.9645 208.063 81.4843C206.914 80.9325 205.734 80.45 204.528 80.0393L200.746 85.0646Z" fill="#363CB3"/>
<path d="M184.702 83.6305C182.924 83.4364 179.443 82.1531 179.228 82.3148C179.012 82.4766 182.137 84.4716 182.137 84.4716C180.31 84.0376 178.511 83.4938 176.749 82.8433C176.059 82.4119 175.478 85.2481 178.279 86.596C181.081 87.944 181.34 88.0195 181.34 88.0195C181.34 88.0195 178.646 87.4588 178.215 87.3293C177.784 87.1999 178.786 88.1489 181.2 88.6558C182.477 88.9553 183.795 89.0428 185.1 88.9146L186.178 87.5234L184.702 83.6305Z" fill="#FFC7E0" stroke="#262C97" stroke-width="0.23" stroke-miterlimit="10"/>
<path d="M180.38 85.1508C178.908 84.7617 177.505 84.1469 176.221 83.3284" stroke="#1E1991" stroke-width="0.23" stroke-miterlimit="10"/>
<path d="M176.426 84.8059C177.764 85.5337 179.172 86.1261 180.628 86.5745" stroke="#1E1991" stroke-width="0.23" stroke-miterlimit="10"/>
<path d="M207.158 69.7625C209.432 71.1428 211.533 73.5692 207.234 79.7483C202.934 85.9275 200.068 88.2352 195.499 89.4538C191.91 90.3812 185.046 89.1303 185.046 89.1303C184.192 87.3728 183.949 85.3801 184.357 83.4687C184.357 83.4687 194.141 83.4148 195.477 81.8727C196.813 80.3306 202.341 72.5016 204.734 72.0271C207.126 71.5526 207.158 69.7625 207.158 69.7625Z" fill="#FABF48"/>
<path d="M199.96 87.8684C199.96 87.8684 203.193 89.1948 204.389 89.7664C205.585 90.3379 206.382 90.4242 205.272 93.724C204.314 96.2511 203.131 98.6872 201.738 101.003L199.647 102.685C202.985 105.679 205.683 109.318 207.578 113.383C207.539 114.191 207.317 114.981 206.931 115.692C206.545 116.403 206.004 117.018 205.348 117.492C205.348 117.492 186.07 108.466 187.589 101.111C189.109 93.7564 199.96 87.8684 199.96 87.8684Z" fill="#363CB3"/>
<path d="M199.647 102.685L201.738 101.003C203.131 98.6871 204.313 96.251 205.272 93.724C206.35 90.4241 205.682 90.4133 204.389 89.7663C203.914 89.5399 203.095 89.1732 202.233 88.8281C203.925 94.8132 196.932 100.69 196.932 100.69C196.932 100.69 198.483 101.736 199.647 102.685Z" fill="#363CB3"/>
<path d="M195.154 99.7629C196.762 100.556 198.271 101.537 199.648 102.685" stroke="#1E1991" stroke-width="0.23" stroke-miterlimit="10"/>
<path d="M205.347 117.492C205.347 117.492 189.28 108.983 187.739 106.525C186.199 104.066 187.352 99.666 189.474 96.7004" stroke="#1E1991" stroke-width="0.23" stroke-miterlimit="10"/>
</g>
<path d="M97.6761 68.3531L54.7578 79.3809L67.1789 127.794L110.097 116.766L97.6761 68.3531Z" fill="#FABF48"/>
<path d="M96.126 71.1409L57.4453 81.0798L66.8891 117.888L105.57 107.949L96.126 71.1409Z" fill="#575FCC"/>
<mask id="mask1_1503_19494" style="mask-type:alpha" maskUnits="userSpaceOnUse" x="57" y="71" width="49" height="47">
<path d="M96.126 71.1412L57.4453 81.0801L66.8891 117.888L105.57 107.95L96.126 71.1412Z" fill="#575FCC"/>
</mask>
<g mask="url(#mask1_1503_19494)">
<path d="M79.9973 116.218C81.0749 128.717 111.193 167.291 118.995 174.354L99.3939 180.35C90.6978 168.703 82.6051 154.846 74.9219 139.544C77.2407 154.851 81.7557 169.742 88.3271 183.758L70.7193 189.15C70.7193 189.15 55.8271 139.317 60.493 124.533C65.159 109.748 79.9973 116.218 79.9973 116.218Z" fill="#3B36B3"/>
<path d="M84.7925 135.144C86.6891 133.818 93.5318 146.381 103.995 156.776C96.1395 146.575 87.5619 134.217 83.0899 125.126L74.1352 127.897C74.1352 127.897 60.8701 116.909 59.5986 127.822C56.98 150.252 83.1007 171.302 83.1007 171.302C79.3628 161 76.6239 150.361 74.9218 139.533C79.0274 147.707 83.2516 155.472 87.6158 162.708C87.4111 162.017 78.424 139.63 84.7925 135.144Z" fill="#1E1991"/>
<path d="M75.8037 94.0791L73.2067 99.2122L69.5645 99.8592C69.5645 99.8592 70.502 103.838 73.4976 104.173C76.4933 104.507 78.8856 100.765 78.8856 100.765L76.6334 99.8592L77.711 97.0339L75.8037 94.0791Z" fill="#FFC7E0" stroke="#262C97" stroke-width="0.23" stroke-miterlimit="10"/>
<path d="M75.8046 94.0792C75.6106 95.9125 76.8822 98.6408 78.9296 98.3928C80.977 98.1448 82.8305 94.0792 82.7658 91.2647C82.7012 88.4501 79.1882 88.4177 79.1882 88.4177L77.5395 90.8441L75.8046 94.0792Z" fill="#FFC7E0"/>
<path d="M76.559 96.9801C76.7806 97.4155 77.1208 97.7793 77.5404 98.0293C77.9599 98.2793 78.4416 98.4053 78.9297 98.3928C80.934 98.1555 82.8305 94.0792 82.7659 91.2647C82.7012 88.4501 79.1883 88.4177 79.1883 88.4177L77.5396 90.8441L75.8047 94.0792" stroke="#1E1991" stroke-width="0.23" stroke-miterlimit="10"/>
<path d="M78.9941 92.5371C79.0054 92.9109 79.1632 93.2652 79.4334 93.5235C79.7036 93.7817 80.0645 93.9233 80.4381 93.9174" stroke="#1E1991" stroke-width="0.23" stroke-miterlimit="10" stroke-linecap="round"/>
<path d="M79.2105 94.9312C79.0488 95.1684 78.6286 95.1684 78.2622 94.9312C77.8958 94.6939 77.7234 94.3057 77.885 94.0577C78.0467 93.8096 78.4669 93.8312 78.8333 94.0577C79.1997 94.2841 79.3613 94.6939 79.2105 94.9312Z" fill="#FF5C9E"/>
<path d="M78.6058 90.2508C79.6834 91.7282 83.0239 92.2782 83.9937 90.2508C84.9636 88.2234 84.3601 83.8668 80.3623 84.7402C76.3644 85.6137 74.6618 90.4557 75.3407 91.7066C75.5299 92.0556 75.8341 92.328 76.2016 92.4774C76.5691 92.6269 76.977 92.6441 77.3558 92.5262L78.6058 90.2508Z" fill="#575FCC"/>
<path d="M82.7867 85.1071C81.1487 84.2875 78.2393 84.3954 76.0841 87.1021C75.4527 87.7576 75.0746 88.6163 75.0174 89.525C74.9601 90.4336 75.2274 91.333 75.7716 92.0627" stroke="#1E1991" stroke-width="0.23" stroke-miterlimit="10" stroke-linecap="round"/>
<path d="M80.416 91.2754C82.4634 92.246 84.5647 91.4264 84.9526 89.6255C85.3406 87.8246 83.1531 89.5177 83.1531 89.5177L80.416 91.2754Z" stroke="#1E1991" stroke-width="0.23" stroke-miterlimit="10" stroke-linecap="round"/>
<path d="M76.9463 92.8714C76.4613 91.3941 75.1898 90.9196 74.7157 91.5882C74.5757 91.8501 74.4976 92.1406 74.4875 92.4374C74.4773 92.7342 74.5354 93.0294 74.6572 93.3003C74.779 93.5711 74.9612 93.8104 75.1899 93.9997C75.4187 94.1889 75.6877 94.3231 75.9764 94.392L76.9463 92.8714Z" fill="#FFC7E0"/>
<path d="M76.9463 92.8714C76.4613 91.3941 75.1898 90.9196 74.7157 91.5882C74.5757 91.8501 74.4976 92.1406 74.4875 92.4374C74.4773 92.7342 74.5354 93.0294 74.6572 93.3003C74.779 93.5711 74.9612 93.8104 75.1899 93.9997C75.4187 94.1889 75.6877 94.3231 75.9764 94.392" stroke="#1E1991" stroke-width="0.23" stroke-miterlimit="10"/>
<path d="M76.0521 92.9685L74.7051 91.5881" stroke="#262C97" stroke-width="0.23" stroke-miterlimit="10"/>
<path d="M72.0224 99.471C72.0224 99.471 71.9038 102.943 74.5008 102.868C75.276 102.812 76.0203 102.542 76.6504 102.087C77.2804 101.631 77.7712 101.009 78.0676 100.291C78.0676 100.291 81.0633 101.25 82.2163 102.749C83.3694 104.248 84.5547 110.654 84.2314 113.264C83.9082 115.873 76.559 123.088 76.559 123.088L56.7314 116.617C56.7314 116.617 56.5482 105.262 61.2573 101.617C64.587 99.0396 72.0224 99.471 72.0224 99.471Z" fill="#FF5C9E"/>
<path d="M73.6179 113.253C71.4627 112.541 72.8636 106.157 73.1653 102.469C72.5861 101.99 72.2027 101.314 72.0877 100.571L70.148 100.452L67.1523 108.055L70.1049 115.118C70.1049 115.118 75.7946 113.975 73.6179 113.253Z" fill="#1E1991"/>
<path d="M83.024 99.7192L82.4313 105.305C82.4313 105.305 77.3235 113.199 78.0347 112.703C78.7459 112.207 85.4916 105.154 86.1921 104.54C87.8192 103.062 85.955 98.835 85.955 98.835L83.024 99.7192Z" fill="#FFC7E0" stroke="#262C97" stroke-width="0.23" stroke-miterlimit="10"/>
<path d="M86.3424 93.7557C84.6075 93.5508 82.0321 95.4272 80.4588 96.9261C78.8855 98.4251 81.6873 100.97 84.8661 99.5358C85.5467 99.1538 86.1222 98.6093 86.5415 97.9508C86.9607 97.2922 87.2107 96.5401 87.2692 95.7615C87.2215 95.0005 86.8909 94.2849 86.3424 93.7557V93.7557Z" fill="#FFC7E0"/>
<path d="M84.8667 99.5358C85.5472 99.1538 86.1228 98.6093 86.542 97.9508C86.9613 97.2922 87.2113 96.5401 87.2697 95.7615C87.2221 95.0005 86.8914 94.2849 86.343 93.7557C84.6081 93.5508 82.0327 95.4272 80.4594 96.9261C79.134 98.231 81.0413 100.334 83.6921 99.9025" stroke="#1E1991" stroke-width="0.23" stroke-miterlimit="10"/>
<path d="M83.8535 95.4055C83.8891 95.7776 84.0695 96.1208 84.3558 96.361C84.6421 96.6011 85.0114 96.7188 85.3837 96.6888" stroke="#1E1991" stroke-width="0.23" stroke-miterlimit="10" stroke-linecap="round"/>
<path d="M83.7033 97.9938C83.4663 98.1555 83.0676 97.9938 82.8305 97.6271C82.5934 97.2605 82.5719 96.8399 82.8305 96.6781C83.0891 96.5164 83.4663 96.6781 83.7141 97.0448C83.962 97.4114 83.9404 97.832 83.7033 97.9938Z" fill="#FF5C9E"/>
<path d="M85.0181 93.9174C84.8026 94.7801 85.988 97.3143 86.516 98.0584C87.044 98.8025 85.1367 100.01 84.8134 101.844C84.4901 103.677 84.4901 105.488 86.2466 105.812C88.0031 106.136 90.3091 107.43 90.5569 109.586C90.8048 111.743 90.7724 116.736 95.0074 119.421C99.2423 122.106 106.505 118.699 104.479 110.05C102.453 101.401 95.4276 102.081 93.1647 101.11C90.9018 100.14 89.5979 99.374 89.4039 97.0878C89.0483 93.4537 86.1496 92.1812 85.0181 93.9174Z" fill="#15154C"/>
<path d="M85.0176 93.9173C85.0176 93.9173 85.093 92.6556 86.9788 92.7526C88.8646 92.8497 89.759 95.1251 90.1253 95.9878C90.4268 96.8441 90.9394 97.6103 91.6157 98.2154C92.292 98.8205 93.11 99.245 93.9939 99.4494C96.634 100.075 98.8861 99.6866 101.02 100.14C102.559 100.442 103.988 101.154 105.158 102.199" stroke="#1E1991" stroke-width="0.23" stroke-miterlimit="10" stroke-linecap="round"/>
<path d="M103.499 116.617C106.462 112.8 105.148 102.189 95.0723 101.779" stroke="#1E1991" stroke-width="0.23" stroke-miterlimit="10"/>
<path d="M84.7383 99.1691C84.9795 99.6381 85.3413 100.034 85.7864 100.317C86.2315 100.599 86.7439 100.758 87.2706 100.776C88.9085 100.679 88.4452 99.1475 87.8956 98.6191C87.4213 98.2255 86.8198 98.0184 86.2038 98.0368L84.7383 99.1691Z" fill="#FFC7E0"/>
<path d="M84.7383 99.1691C84.9795 99.6381 85.3413 100.034 85.7864 100.317C86.2315 100.599 86.7439 100.758 87.2706 100.776C88.9085 100.679 88.4452 99.1475 87.8956 98.6191C87.4213 98.2255 86.8198 98.0184 86.2038 98.0368" stroke="#1E1991" stroke-width="0.23" stroke-miterlimit="10"/>
<path d="M88.3803 99.5142L86.3652 98.6946" stroke="#262C97" stroke-width="0.23" stroke-miterlimit="10"/>
<path d="M65.028 115.647C62.2155 112.573 58.3039 111.883 47.3125 115.647C36.3211 119.41 26.5258 122.732 25.6745 122.117C24.8233 121.502 20.5021 116.509 20.0064 116.132C19.5108 115.755 18.3685 119.475 21.6013 124.026C24.834 128.577 26.6228 128.134 26.6228 128.134C26.7481 127.852 26.9419 127.606 27.1865 127.417C27.4312 127.229 27.7189 127.105 28.0237 127.056C28.9827 126.981 39.3383 128.523 47.4202 126.657C55.5021 124.791 57.3664 123.109 57.3664 123.109L64.9741 124.565L68.584 117.577L65.028 115.647Z" fill="#FFC7E0" stroke="#262C97" stroke-width="0.23" stroke-miterlimit="10"/>
<path d="M78.5839 109.241C81.6227 107.181 86.4826 101.93 90.0709 103.849C93.6593 105.769 89.155 116.79 86.558 123.433C83.961 130.076 83.3253 134.087 84.8016 138.013C86.2779 141.938 93.7563 153.11 93.7563 153.11C90.5287 151.487 87.0487 150.426 83.4654 149.972C77.0645 149.055 68.7348 148.893 64.0688 140.547C57.377 128.684 62.905 113.77 62.905 113.77C65.0719 115.114 67.6664 115.588 70.1679 115.097C74.1766 114.213 78.5839 109.241 78.5839 109.241Z" fill="#FABF48"/>
<path d="M91.0946 105.014C91.7412 107.365 88.002 112.563 88.002 112.563L89.7369 114.957C91.0731 110.934 91.9567 107.02 91.0946 105.014Z" fill="#1E1991"/>
<path d="M68.0352 118.084C69.436 123.702 72.8089 122.743 75.4813 121.74C78.9689 120.296 82.0746 118.063 84.5546 115.216L81.5696 116.952L68.0352 118.084Z" fill="#1E1991"/>
<path d="M79.4258 108.562C81.3535 110.722 82.5393 113.443 82.8094 116.326" stroke="#1E1991" stroke-width="0.23" stroke-miterlimit="10"/>
<path d="M64.1767 114.331C62.3672 121.594 62.7687 129.233 65.3298 136.266C68.5625 144.623 75.5237 146.845 82.8298 148.193C90.75 149.648 92.722 151.546 92.722 151.546" stroke="#1E1991" stroke-width="0.23" stroke-miterlimit="10"/>
<path d="M65.1157 99.9888C66.5684 98.3883 68.5005 97.3024 70.6222 96.8938C74.523 95.9556 73.4454 98.3604 73.2084 99.2231C72.9713 100.086 70.4282 109.317 70.6329 111.215C70.8377 113.113 71.5166 113.156 72.7881 112.746C74.7933 111.753 76.7269 110.622 78.5748 109.36C80.224 111.568 81.2645 114.171 81.592 116.909C81.592 116.909 70.8161 123.25 66.9799 120.564C61.592 116.747 68.0575 99.5251 68.0575 99.5251C67.0679 99.6157 66.0852 99.7706 65.1157 99.9888V99.9888Z" fill="#FFC7E0"/>
<path d="M81.6781 117.049C81.6781 117.049 70.8375 123.26 67.0229 120.575C61.635 116.769 68.1005 100.334 68.1005 99.5359" stroke="#1E1991" stroke-width="0.23" stroke-miterlimit="10"/>
<path d="M65.1152 99.9888C65.0183 99.5897 66.7208 97.832 70.6217 96.8938C74.5226 95.9556 73.445 98.3604 73.2079 99.2231C72.9708 100.086 70.4277 109.317 70.6325 111.215C70.8372 113.113 71.5161 113.156 72.7877 112.746C74.7928 111.753 76.7264 110.622 78.5743 109.36" stroke="#1E1991" stroke-width="0.23" stroke-miterlimit="10"/>
<path d="M63.3487 100.549C63.3487 100.549 60.9025 99.7191 58.6719 102.814C56.4413 105.909 57.2711 108.756 58.3594 109.975C59.4478 111.193 59.437 111.484 59.9219 111.527C60.4068 111.571 61.3982 109.802 61.4521 108.616C61.506 107.43 61.6461 105.985 61.6461 105.985C61.6461 105.985 62.5943 107.279 62.7237 106.157C62.6438 104.267 62.8546 102.376 63.3487 100.549V100.549Z" fill="#FFC7E0" stroke="#262C97" stroke-width="0.23" stroke-miterlimit="10"/>
<path d="M61.9463 103.375C61.6849 104.204 61.5825 105.074 61.6446 105.941" stroke="#1E1991" stroke-width="0.23" stroke-miterlimit="10"/>
<path d="M59.791 105.715C59.791 106.578 60.7501 110.654 60.7501 110.654" stroke="#1E1991" stroke-width="0.23" stroke-miterlimit="10"/>
<path d="M58.3477 106.157C58.5332 107.825 58.8612 109.474 59.3283 111.085" stroke="#1E1991" stroke-width="0.23" stroke-miterlimit="10"/>
<path d="M89.4899 85.8295C89.4899 85.8295 89.3282 82.961 87.992 84.6325C87.1731 85.657 87.3024 88.6333 87.3024 88.6333C87.3024 88.6333 91.2248 87.8137 91.4511 86.0775C91.5373 85.0315 89.4899 85.8295 89.4899 85.8295Z" fill="#FF5C9E"/>
<path d="M90.1465 113.63C90.1465 113.544 89.0689 109.511 89.5538 109.198C90.0388 108.885 92.431 112.142 92.334 115.755C92.237 119.551 89.1013 122.311 87.0646 122.149C86.5199 120.034 86.2198 117.863 86.1702 115.679C86.084 112.034 84.7263 110.158 85.6422 109.975C87.5603 109.597 90.1465 113.63 90.1465 113.63Z" fill="#FFC7E0" stroke="#262C97" stroke-width="0.23" stroke-miterlimit="10"/>
<path d="M85.3301 110.481C86.517 111.997 87.5393 113.634 88.3797 115.367" stroke="#1E1991" stroke-width="0.23" stroke-miterlimit="10"/>
<path d="M87.1199 116.811C86.7977 115.656 86.4055 114.522 85.9453 113.415" stroke="#1E1991" stroke-width="0.23" stroke-miterlimit="10"/>
<path d="M54.2523 125.352C55.5239 126.064 60.7178 126.334 60.7178 125.288C61.1381 120.877 58.7028 116.779 57.9485 116.66C55.4377 116.337 53.7459 122.052 53.7459 122.052C53.7459 122.052 53.0885 117.868 52.5713 117.825C52.054 117.782 51.0411 123.562 54.2523 125.352Z" fill="#FFC7E0" stroke="#262C97" stroke-width="0.23" stroke-miterlimit="10"/>
<path d="M57.3457 121.708C57.5289 119.799 58.0461 117.491 58.003 116.715" stroke="#1E1991" stroke-width="0.23" stroke-miterlimit="10"/>
<path d="M58.9297 122.117C59.2189 120.661 59.2189 119.163 58.9297 117.707" stroke="#1E1991" stroke-width="0.23" stroke-miterlimit="10"/>
</g>
<path d="M55.8371 44.9317C55.8405 42.063 54.9981 39.257 53.4154 36.8652C51.8328 34.4733 49.5802 32.6018 46.9397 31.4851C44.2993 30.3683 41.3883 30.0559 38.5712 30.587C35.7542 31.118 33.1563 32.4689 31.1028 34.4705C29.0493 36.4722 27.6315 39.0355 27.0269 41.8397C26.4224 44.6439 26.6578 47.5643 27.7039 50.2352C28.75 52.9061 30.5601 55.2088 32.9078 56.855C35.2554 58.5012 38.0361 59.4178 40.9018 59.4899L49.1238 67.2327L47.6906 58.0017C50.1332 56.8026 52.1912 54.9425 53.6311 52.6323C55.0711 50.3222 55.8353 47.6544 55.8371 44.9317V44.9317Z" fill="#68D1A2"/>
<path d="M46.721 40.2947C46.2513 39.9791 45.7144 39.7777 45.1532 39.7065C44.5919 39.6354 44.0218 39.6965 43.4883 39.8849C42.9683 40.0898 42.4946 40.3966 42.0949 40.7873C41.6951 41.1781 41.3775 41.6449 41.1607 42.1603C40.8412 41.7011 40.4321 41.3115 39.9579 41.0149C39.4838 40.7184 38.9545 40.521 38.4021 40.4349C37.8329 40.3508 37.252 40.4048 36.7081 40.5925C36.1642 40.7802 35.6734 41.096 35.2771 41.5133C34.7701 42.1506 34.4628 42.9237 34.3938 43.7353C34.3247 44.547 34.4971 45.3609 34.8891 46.0748C35.7063 47.4934 36.984 48.5893 38.5098 49.1806C39.5969 49.7402 40.7831 50.081 42.0012 50.1835C43.1777 49.8224 44.2748 49.2405 45.234 48.4688C46.5974 47.564 47.6122 46.2214 48.1111 44.6621C48.3348 43.8781 48.3223 43.0453 48.075 42.2684C47.8277 41.4914 47.3567 40.8048 46.721 40.2947V40.2947Z" fill="white"/>
<path d="M218.6 146.551C219.166 144.24 220.4 142.147 222.148 140.535C223.897 138.923 226.081 137.863 228.429 137.487C230.777 137.111 233.183 137.436 235.346 138.423C237.51 139.409 239.335 141.012 240.592 143.031C241.85 145.05 242.485 147.395 242.417 149.773C242.349 152.151 241.582 154.457 240.211 156.401C238.841 158.344 236.927 159.841 234.711 160.702C232.495 161.563 230.074 161.751 227.752 161.241L219.608 165.807L222.585 158.657C220.858 157.212 219.569 155.313 218.865 153.173C218.161 151.034 218.069 148.74 218.6 146.551V146.551Z" fill="#739EF1"/>
<path d="M226.858 144.627C227.305 144.456 227.787 144.395 228.263 144.45C228.738 144.506 229.193 144.675 229.589 144.944C229.969 145.212 230.291 145.553 230.537 145.947C230.783 146.342 230.947 146.781 231.021 147.24C231.368 146.935 231.774 146.702 232.213 146.558C232.652 146.413 233.116 146.358 233.577 146.398C234.046 146.446 234.496 146.607 234.889 146.866C235.282 147.125 235.607 147.475 235.837 147.886C236.13 148.505 236.23 149.198 236.125 149.875C236.019 150.552 235.713 151.181 235.246 151.682C234.303 152.652 233.058 153.272 231.716 153.441C230.73 153.673 229.708 153.715 228.706 153.567V153.567C227.839 153.046 227.08 152.365 226.468 151.559C225.548 150.557 224.993 149.272 224.896 147.915C224.859 147.234 225.026 146.557 225.376 145.971C225.726 145.386 226.242 144.918 226.858 144.627V144.627Z" fill="white"/>
<path d="M53.2608 150.829L77.6358 146.882C78.82 146.692 80.0312 146.979 81.0045 147.681C81.9778 148.382 82.6341 149.44 82.8298 150.624L84.4246 160.567C84.6145 161.752 84.3277 162.964 83.627 163.938C82.9263 164.912 81.8686 165.569 80.6854 165.765L62.3664 168.731C63.5517 170.721 64.6308 172.773 65.5992 174.877C65.4268 174.877 59.9957 171.48 56.9785 169.593L56.2888 169.712C55.1147 169.894 53.9161 169.609 52.9495 168.917C51.9828 168.226 51.3249 167.184 51.1164 166.013L49.5108 156.07C49.4092 155.479 49.4259 154.874 49.5599 154.29C49.6939 153.705 49.9425 153.153 50.2914 152.666C50.6402 152.178 51.0824 151.765 51.5921 151.449C52.1018 151.134 52.669 150.923 53.2608 150.829V150.829Z" fill="#FABF48"/>
<path d="M72.8633 157.138C72.9214 157.507 73.0876 157.85 73.3408 158.125C73.5941 158.399 73.9231 158.592 74.286 158.679C74.649 158.766 75.0296 158.744 75.3797 158.614C75.7299 158.485 76.0337 158.254 76.2528 157.952C76.4719 157.65 76.5964 157.289 76.6105 156.916C76.6246 156.542 76.5277 156.173 76.3321 155.855C76.1364 155.537 75.8508 155.284 75.5115 155.129C75.1721 154.973 74.7943 154.922 74.4258 154.981C73.9345 155.063 73.4952 155.336 73.2029 155.739C72.9105 156.143 72.7885 156.645 72.8633 157.138V157.138Z" fill="white"/>
<path d="M65.0929 158.389C65.151 158.758 65.3172 159.101 65.5705 159.375C65.8237 159.65 66.1527 159.843 66.5156 159.93C66.8786 160.017 67.2593 159.995 67.6094 159.865C67.9595 159.736 68.2634 159.505 68.4825 159.203C68.7015 158.9 68.826 158.54 68.8401 158.166C68.8542 157.793 68.7573 157.424 68.5617 157.106C68.366 156.788 68.0805 156.535 67.7411 156.379C67.4018 156.224 67.0239 156.172 66.6554 156.232C66.4109 156.27 66.1763 156.356 65.9652 156.485C65.7541 156.614 65.5706 156.784 65.4253 156.985C65.2801 157.185 65.1759 157.412 65.1189 157.653C65.0618 157.894 65.053 158.144 65.0929 158.389V158.389Z" fill="white"/>
<path d="M57.3242 159.64C57.3807 160.012 57.5465 160.359 57.8007 160.637C58.0549 160.914 58.3858 161.11 58.7515 161.199C59.1172 161.288 59.501 161.266 59.8542 161.136C60.2074 161.006 60.5139 160.774 60.7348 160.469C60.9556 160.164 61.0809 159.8 61.0946 159.424C61.1083 159.047 61.0098 158.676 60.8116 158.355C60.6135 158.035 60.3247 157.781 59.9819 157.626C59.6391 157.471 59.2579 157.421 58.8867 157.483C58.3954 157.565 57.9562 157.837 57.6638 158.241C57.3715 158.644 57.2495 159.147 57.3242 159.64Z" fill="white"/>
<path d="M96.3782 69.9843L53.2676 81.5288L66.5613 131.245L109.672 119.701L96.3782 69.9843Z" stroke="#1E1991" stroke-width="0.5" stroke-miterlimit="10"/>
<path d="M127.104 208.536C127.104 208.536 123.748 256.713 122.377 309.876H144.776L142.384 190.38L107.542 186.444C92.2251 219.37 92.4142 309.876 92.4142 309.876H121.034C119.276 288.721 123.71 234.839 127.104 208.536Z" fill="#575FCC"/>
<path d="M120.005 198.299C130.547 196.54 135.936 192.869 135.936 192.869L129.885 188.933L113.812 189.879L108.479 186.548L107.534 186.444C104.943 192.017 102.806 199.245 101.01 207.41C105.87 201.185 112.554 199.577 120.005 198.299Z" fill="#363CB3"/>
<path d="M110.284 302.212C105.689 302.212 102.153 298.03 103.921 295.986C106.285 293.271 110.076 297.462 110.643 301.493C110.899 297.86 112.884 293.924 115.664 295.334C118.444 296.743 115.494 301.711 111.315 302.212" stroke="#1E1991" stroke-width="0.5" stroke-miterlimit="10"/>
<path d="M119.568 310.661C119.568 310.661 120.996 302.222 111.125 301.2C101.254 300.178 98.4082 310.661 98.4082 310.661H119.568Z" fill="#15154C"/>
<path d="M98.4082 310.661H119.568C119.634 310.051 119.634 309.436 119.568 308.826C116.768 308.477 113.948 308.303 111.125 308.305C106.899 308.371 102.36 308.797 98.9093 309.195C98.7121 309.673 98.5447 310.162 98.4082 310.661Z" fill="#FABF48"/>
<path d="M134.253 302.212C129.648 302.212 126.112 298.03 127.88 295.986C130.244 293.271 134.045 297.462 134.602 301.493C134.867 297.86 136.853 293.924 139.632 295.334C142.412 296.743 139.453 301.711 135.274 302.212" stroke="#1E1991" stroke-width="0.5" stroke-miterlimit="10"/>
<path d="M143.527 310.661C143.527 310.661 144.955 302.222 135.094 301.2C125.232 300.178 122.367 310.661 122.367 310.661H143.527Z" fill="#15154C"/>
<path d="M122.367 310.661H143.527C143.613 310.053 143.629 309.437 143.575 308.826C140.771 308.477 137.948 308.303 135.122 308.305C130.896 308.371 126.357 308.797 122.906 309.195C122.696 309.672 122.516 310.161 122.367 310.661Z" fill="#FABF48"/>
<path d="M119.928 124.217L117.517 137.548L109.953 139.743C109.953 139.743 114.577 148.637 123.341 148.258C125.681 148.288 127.948 147.442 129.697 145.886C131.446 144.33 132.551 142.176 132.796 139.847L125.44 137.596L125.497 129.355L121.299 123.934L119.928 124.217Z" fill="#FFC7E0" stroke="#262C97" stroke-width="0.5" stroke-miterlimit="10"/>
<path d="M120.807 124.757C120.325 127.841 122.33 132.572 125.734 132.326C129.137 132.08 132.692 125.343 132.825 120.584C132.957 115.825 127.01 115.475 127.01 115.475L124.013 119.383L120.807 124.757Z" fill="#FFC7E0"/>
<path d="M121.764 129.705C122.624 131.285 123.995 132.467 125.735 132.354C129.148 132.127 132.693 125.372 132.826 120.612C132.958 115.853 127.011 115.503 127.011 115.503L124.014 119.411L120.809 124.757" stroke="#1E1991" stroke-width="0.5" stroke-miterlimit="10"/>
<path d="M128.976 122.722L128.428 124.217" stroke="#1E1991" stroke-width="0.5" stroke-linecap="round" stroke-linejoin="round"/>
<path d="M131.699 109.931C128.712 108.304 122.103 109.288 119.55 114.557C117.791 118.2 120.561 121.672 121.573 122.921" stroke="#1E1991" stroke-width="0.5" stroke-miterlimit="10" stroke-linecap="round"/>
<path d="M129.744 120.717C133.526 121.549 136.665 119.411 136.627 116.289C136.59 113.167 133.621 116.771 133.621 116.771L129.744 120.717Z" stroke="#1E1991" stroke-width="0.5" stroke-miterlimit="10" stroke-linecap="round"/>
<path d="M125.867 118.493C127.521 121.086 133.185 122.278 135.066 118.985C136.948 115.693 135.908 109.24 128.977 109.004C125.621 108.89 122.359 111.426 120.808 113.375C119.939 114.378 119.419 115.636 119.327 116.96C119.235 118.285 119.576 119.603 120.298 120.717C120.671 121.244 121.175 121.664 121.76 121.936C122.346 122.209 122.992 122.323 123.635 122.268L125.867 118.493Z" fill="#575FCC"/>
<path d="M122.841 122.789C122.151 120.253 120.005 119.326 119.173 120.433C118.341 121.54 118.558 124.795 121.064 125.277L122.841 122.789Z" fill="#FFC7E0"/>
<path d="M122.841 122.789C122.151 120.253 120.005 119.326 119.173 120.433C118.341 121.54 118.558 124.795 121.064 125.277" stroke="#1E1991" stroke-width="0.5" stroke-miterlimit="10"/>
<path d="M121.318 122.883L119.172 120.433" stroke="#262C97" stroke-width="0.5" stroke-miterlimit="10"/>
<path d="M115.551 137.898C115.551 137.898 117.281 146.943 124.06 146.414C129.828 145.959 129.27 138.485 129.27 138.485C129.27 138.485 142.384 140.453 146.884 147.095C151.385 153.737 148.775 184.788 148.775 184.788C148.775 184.788 145.806 197.94 115.967 195.338C102.125 194.127 102.106 187.513 101.784 181.468C101.625 177.15 101.825 172.828 102.38 168.543C97.7194 168.154 93.2026 166.739 89.1523 164.399C89.1523 164.399 91.4026 146.499 98.9855 142.355C106.568 138.211 115.551 137.898 115.551 137.898Z" fill="#FF5C9E"/>
<path d="M89.1523 161.911C91.3648 163.727 97.9454 166.206 104.28 166.727" stroke="#1E1991" stroke-width="0.5" stroke-miterlimit="10"/>
<path d="M146.829 147.095C143.992 142.96 137.875 140.633 133.592 139.469C141.099 145.42 143.264 149.044 144.285 152.507C145.061 155.127 147.245 153.737 148.559 152.507C148.34 150.607 147.753 148.769 146.829 147.095Z" fill="#575FCC"/>
<path d="M135 173.35L123.711 163.784L113.547 175.327L102.078 185.593C102.324 188.109 103.55 190.427 105.491 192.045C114.209 188.431 116.648 171.883 127.417 168.241L135 173.35Z" fill="#363CB3"/>
<path d="M141.335 296.091L140.285 307.274L148.643 306.025L151.726 294.199L142.176 294.568L141.335 296.091Z" fill="#FFC7E0" stroke="#262C97" stroke-width="0.5" stroke-miterlimit="10"/>
<path d="M163.052 292.808L168.593 302.572L174.729 296.744L170.484 285.295L162.863 291.076L163.052 292.808Z" fill="#FFC7E0" stroke="#262C97" stroke-width="0.5" stroke-miterlimit="10"/>
<path d="M139.473 255.492C144.493 264.367 165.474 297.898 165.474 297.898C167.205 297.777 168.877 297.221 170.337 296.282C171.796 295.342 172.995 294.05 173.822 292.524C173.822 292.524 166.656 260.355 158.978 247.64C151.301 234.924 139.473 255.492 139.473 255.492Z" fill="#363CB3"/>
<path d="M169.519 192.906C175.192 208.442 150.704 301.493 150.704 301.493C147.763 302.77 143.348 302.61 139.727 301.408L140.379 257.773C140.379 257.773 134.583 246.202 136.181 227.052C137.779 207.902 140.379 194.344 140.379 194.344L169.519 192.906Z" fill="#3B36B3"/>
<path d="M136.22 227.052C134.622 246.201 140.418 257.773 140.418 257.773C142.309 236.806 142.848 205.367 139.718 198.337C138.839 203.701 137.298 214.09 136.22 227.052Z" fill="#15154C"/>
<path d="M149.088 304.341C151.452 306.233 151.669 309.857 150.695 312.184H123.531C123.531 312.184 123.749 307.075 128.58 306.29C135.482 305.164 137.846 302.43 137.846 302.43L140.588 303.556L139.784 305.173C143.207 306.044 146.828 305.921 149.088 304.341Z" fill="#FF5C9E"/>
<path d="M120.213 312.563L151.887 312.487L151.386 308.892L129.091 309.942L127.815 306.375C122.671 307.35 119.022 309.157 120.213 312.563Z" fill="#FABF48"/>
<path d="M131.483 308.305C131.536 307.143 131.203 305.995 130.537 305.041" stroke="#1E1991" stroke-width="0.5" stroke-miterlimit="10"/>
<path d="M134.611 307.766C134.578 307.051 134.397 306.351 134.079 305.709C133.762 305.068 133.315 304.499 132.768 304.038" stroke="#1E1991" stroke-width="0.5" stroke-miterlimit="10"/>
<path d="M137.684 306.375C137.358 304.885 136.471 303.577 135.207 302.723" stroke="#1E1991" stroke-width="0.5" stroke-miterlimit="10"/>
<path d="M174.124 295.116C177.159 295.324 179.4 298.144 179.939 300.623L164.471 311.437L155.895 311.513C155.895 311.513 152.614 307.974 157.465 306.281C164.234 303.925 163.809 299.989 163.809 299.989L166.702 299.336L166.967 301.124C170.286 299.885 173.188 297.699 174.124 295.116Z" fill="#FF5C9E"/>
<path d="M157.466 306.28L159.858 309.289C160.94 309.519 162.06 309.512 163.14 309.271C164.219 309.029 165.235 308.558 166.117 307.889C169.388 305.59 178.701 297.898 178.701 297.898L180.725 300.736L164.472 311.427L154.809 311.503C152.956 309.053 153.854 307.435 157.466 306.28Z" fill="#FABF48"/>
<path d="M162.314 307.283C161.787 306.243 160.929 305.408 159.875 304.909" stroke="#1E1991" stroke-width="0.5" stroke-miterlimit="10"/>
<path d="M164.792 305.306C164.417 304.694 163.919 304.166 163.33 303.755C162.741 303.345 162.073 303.061 161.369 302.922" stroke="#1E1991" stroke-width="0.5" stroke-miterlimit="10"/>
<path d="M166.816 302.6C165.817 301.45 164.41 300.735 162.893 300.604" stroke="#1E1991" stroke-width="0.5" stroke-miterlimit="10"/>
<path d="M143.094 130.689C141.997 128.645 144.333 122.921 150.8 124.776C157.267 126.63 158.439 132.752 159.413 137.728C160.387 142.705 172.357 142.705 174.371 153.301C176.385 163.898 169.644 167.105 161.815 165.97C153.986 164.835 146.498 144.37 146.498 144.37L143.094 130.689Z" fill="#15154C"/>
<path d="M148.53 124.653C146.64 124.653 144.181 124.993 142.668 127.917C141.156 130.84 142.668 132.733 142.668 132.733" stroke="#1E1991" stroke-width="0.5" stroke-miterlimit="10" stroke-linecap="round"/>
<path d="M159.412 138.22C162.428 141.938 170.758 142.004 174.72 150.368C178.398 158.193 171.997 164.693 169.888 164.693" stroke="#1E1991" stroke-width="0.5" stroke-miterlimit="10" stroke-linecap="round"/>
<path d="M150.345 138.797L152.179 150.35C153.055 150.38 153.909 150.627 154.666 151.069C156.15 151.835 146.43 166.945 146.43 166.945C146.43 166.945 140.389 167.484 140.389 164.929C140.389 162.375 145.608 150.047 145.608 150.047L145.542 139.251L148.378 136.527L150.345 138.797Z" fill="#FFC7E0" stroke="#262C97" stroke-width="0.5" stroke-miterlimit="10"/>
<path d="M142.101 163.094C147.632 163.33 152.747 150.397 152.747 150.397C153.79 150.326 154.837 150.474 155.82 150.832L156.472 169.263L161.304 193.569C161.304 193.569 136.22 202.377 137.496 192.972C138.791 183.369 136.428 172.158 137.846 167.001C139.264 161.845 142.101 163.094 142.101 163.094Z" fill="#FABF48"/>
<path d="M159.365 183.861C156.86 181.174 141.968 169.783 141.968 169.783L138.186 169.433L137.373 171.126C137.373 172.347 137.373 173.681 137.449 175.1C146.299 181.146 155.735 191.553 161.086 192.367L159.365 183.861Z" fill="#363CB3"/>
<path d="M145.097 129.071C142.403 130.386 139.784 135.401 139.509 139.053C139.207 143.235 144.993 143.783 148.255 138.778C148.887 137.603 149.217 136.29 149.217 134.956C149.217 133.622 148.887 132.309 148.255 131.134C147.494 130.079 146.369 129.344 145.097 129.071Z" fill="#FFC7E0"/>
<path d="M148.257 138.778C148.888 137.603 149.219 136.29 149.219 134.956C149.219 133.622 148.888 132.309 148.257 131.134C147.493 130.077 146.364 129.342 145.09 129.071C142.395 130.386 140.296 134.663 139.502 139.053C138.934 142.184 143.463 143.424 146.839 140.415" stroke="#1E1991" stroke-width="0.5" stroke-miterlimit="10"/>
<path d="M144.417 132.969L143.68 134.379" stroke="#1E1991" stroke-width="0.5" stroke-linecap="round" stroke-linejoin="round"/>
<path d="M145.098 129.071C145.098 130.963 149.636 135.003 149.636 135.003L152.056 137.435C152.056 137.435 154.193 131.276 152.056 128.721C149.92 126.167 145.098 129.071 145.098 129.071Z" fill="#15154C"/>
<path d="M147.773 138.362C147.773 138.362 150.61 140.027 152.889 138.362C155.167 136.697 153.087 134.927 151.83 134.681C150.785 134.551 149.729 134.8 148.851 135.382L147.773 138.362Z" fill="#FFC7E0"/>
<path d="M147.773 138.362C147.773 138.362 150.79 140.254 152.889 138.362C153.223 138.114 153.474 137.77 153.608 137.375C153.742 136.98 153.752 136.554 153.636 136.154C153.521 135.753 153.286 135.398 152.963 135.135C152.64 134.871 152.245 134.713 151.83 134.681C150.789 134.604 149.749 134.849 148.851 135.382" stroke="#1E1991" stroke-width="0.5" stroke-miterlimit="10"/>
<path d="M153.296 135.524L149.637 136.186" stroke="#262C97" stroke-width="0.5" stroke-miterlimit="10"/>
<path d="M132.136 155.941C130.359 147.218 116.668 143.641 116.668 156.036C116.668 165.497 130.775 181.742 130.775 181.742C130.775 181.742 152.266 162.431 145.26 152.999C140.551 146.659 134.821 150.737 132.136 155.941Z" fill="#F9FAFE"/>
<path d="M132.287 155.875C130.641 146.896 116.762 143.509 116.525 156.263C116.345 166.083 130.424 182.565 130.424 182.565C130.424 182.565 152.681 162.204 145.713 152.582C141.042 146.12 135.123 150.444 132.287 155.875Z" stroke="#1E1991" stroke-width="0.51" stroke-miterlimit="10"/>
<path d="M155.791 150.832C155.791 150.832 162.902 151.863 167.572 162.933C173.009 175.8 177.131 194.278 170.579 195.678C164.027 197.078 156.841 190.948 151.385 184.977C145.93 179.007 136.607 169.556 135.482 168.373C134.357 167.19 134.669 166.727 136.125 167.484C137.581 168.241 139.746 169.499 139.746 169.499C139.746 169.499 135.019 164.513 134.471 163.273C133.922 162.034 138.319 162.507 141.666 164.106C145.013 165.705 157.919 176.661 157.919 176.661L156.444 169.262C154.569 163.29 154.343 156.922 155.791 150.832Z" fill="#FFC7E0"/>
<path d="M155.791 150.832C155.791 150.832 162.902 151.863 167.572 162.933C173.009 175.8 177.131 194.278 170.579 195.678C164.027 197.078 156.841 190.948 151.385 184.977C145.93 179.007 136.607 169.556 135.482 168.373C134.357 167.19 134.669 166.727 136.125 167.484C137.581 168.241 139.746 169.499 139.746 169.499C139.746 169.499 135.019 164.513 134.471 163.273C133.922 162.034 138.319 162.507 141.666 164.106C145.013 165.705 157.919 176.661 157.919 176.661L156.444 169.262" stroke="#1E1991" stroke-width="0.5" stroke-miterlimit="10"/>
<path d="M163.392 182.215C161.758 180.185 159.924 178.324 157.918 176.661" stroke="#1E1991" stroke-width="0.5" stroke-miterlimit="10"/>
<path d="M134.434 163.018C135.634 163.51 141.052 168.174 141.894 168.922" stroke="#1E1991" stroke-width="0.5" stroke-miterlimit="10"/>
<path d="M135.992 162.573C137.694 162.791 142.611 166.178 143.887 167.38" stroke="#1E1991" stroke-width="0.5" stroke-miterlimit="10"/>
<path d="M89.9005 164.797C89.9005 164.797 85.8538 189.33 95.2426 191.383C104.631 193.436 116.8 176.538 119.334 173.529C121.868 170.521 128.732 167.853 128.789 167.361C128.845 166.869 123.579 168.07 123.579 168.07C123.579 168.07 130.916 161.078 130.33 160.369C129.744 159.659 118.464 162.564 118.464 162.564L117.689 160.899C117.689 160.899 115.798 163.396 112.545 167.067C102.589 178.421 99.0056 178.582 102.296 168.543C97.9403 168.215 93.7093 166.936 89.9005 164.797Z" fill="#FFC7E0"/>
<path d="M117.706 160.899C117.706 160.899 115.815 163.397 112.562 167.068C102.606 178.421 99.0229 178.582 102.313 168.544" stroke="#1E1991" stroke-width="0.5" stroke-miterlimit="10"/>
<path d="M89.9005 164.797C89.9005 164.797 85.8538 189.33 95.2426 191.383C104.631 193.436 116.8 176.538 119.334 173.529C121.868 170.521 128.732 167.853 128.789 167.361C128.845 166.869 123.579 168.07 123.579 168.07C123.579 168.07 130.916 161.078 130.33 160.369C129.744 159.659 118.464 162.564 118.464 162.564" stroke="#1E1991" stroke-width="0.5" stroke-miterlimit="10"/>
<path d="M122.33 166.178C124.58 163.803 129.894 161.391 129.894 161.391" stroke="#1E1991" stroke-width="0.5" stroke-miterlimit="10"/>
<path d="M120.004 164.324C122.197 162.579 124.718 161.293 127.417 160.539" stroke="#1E1991" stroke-width="0.5" stroke-miterlimit="10"/>
<path d="M168.017 170.067C167.96 169.953 162.712 166.793 162.854 166.008C162.996 165.223 168.896 166.15 172.498 170.057C176.28 174.154 175.77 180.294 173.444 182.187C170.704 180.523 168.166 178.548 165.88 176.302C162.05 172.517 158.703 171.959 159.488 170.824C161.171 168.458 168.017 170.067 168.017 170.067Z" fill="#FFC7E0" stroke="#262C97" stroke-width="0.5" stroke-miterlimit="10"/>
<path d="M159.715 171.685C162.518 172.059 165.273 172.734 167.931 173.7" stroke="#1E1991" stroke-width="0.5" stroke-miterlimit="10"/>
<path d="M168.073 176.538C166.549 175.649 164.97 174.855 163.346 174.164" stroke="#1E1991" stroke-width="0.5" stroke-miterlimit="10"/>
<path d="M140.409 255.53C140.249 260.091 139.596 294.407 139.681 301.105" stroke="#1E1991" stroke-width="0.5" stroke-miterlimit="10"/>
</svg>
