<svg width="279" height="311" viewBox="0 0 279 311" fill="none" xmlns="http://www.w3.org/2000/svg">
<path d="M139.601 32H279V171.299C279 208.35 264.281 243.884 238.082 270.083C211.883 296.282 176.35 311 139.299 311H0V171.5C0.0266429 134.493 14.7464 99.0109 40.9237 72.8524C67.101 46.694 102.594 32 139.601 32Z" fill="#EBECF4"/>
<path d="M119.332 129.102C111.694 135.112 122.387 160.057 133.583 169.422C144.778 178.786 155.406 160.363 155.406 160.363L119.332 129.102Z" fill="#FF5C9E"/>
<path d="M194.174 171.957C193.28 176.098 192.614 178.327 190.192 180.95C187.769 183.572 179.073 178.644 179.04 178.524C179.007 178.404 178.178 169.783 178.647 169.422C179.117 169.061 186.34 166.144 186.34 166.144L194.174 171.957Z" fill="#FFC7E0" stroke="#262C97" stroke-width="0.5" stroke-miterlimit="10"/>
<path d="M111.312 205.436L103.663 216.614L112.567 221.684L122.78 210.353L114.978 205.939L111.312 205.436Z" fill="#FFC7E0" stroke="#262C97" stroke-width="0.5" stroke-miterlimit="10"/>
<path d="M137.642 161.74C127.593 164.854 109.851 206.266 109.851 206.266C111.018 210.134 114.684 212.822 119.573 214.811C119.573 214.811 139.606 192.673 145.531 185.309C151.456 177.944 145.531 160.768 145.531 160.768L137.642 161.74Z" fill="#363CB3"/>
<path d="M135.263 172.077C126.064 191.45 124.264 201 123.053 211.009C129.054 204.343 141.177 190.794 145.563 185.364C151.499 178.021 143.283 158.954 143.283 158.954C140.118 163.007 137.427 167.41 135.263 172.077Z" fill="#363CB3"/>
<path d="M113.527 220.154C114.389 224.165 113.254 228.131 110.57 229.617L84.0879 208.725C84.0879 208.725 88.1142 204.027 93.2972 206.9C100.706 211.02 104.994 210.178 104.994 210.178L106.762 213.303L104.787 214.243C107.373 217.63 110.21 219.969 113.527 220.154Z" fill="#FF5C9E"/>
<path d="M81.1641 206.54L110.952 230.72L113.233 226.951L91.4754 210.91L93.014 206.54C87.4491 203.502 82.6589 202.409 81.1641 206.54Z" fill="#FABF48"/>
<path d="M94.9238 211.533C95.8299 210.451 96.3518 209.098 96.4078 207.687" stroke="#1E1991" stroke-width="0.5" stroke-miterlimit="10"/>
<path d="M98.2949 213.369C98.8004 212.662 99.1528 211.858 99.3294 211.008C99.5061 210.157 99.5031 209.279 99.3206 208.43" stroke="#1E1991" stroke-width="0.5" stroke-miterlimit="10"/>
<path d="M102.267 214.331C103.072 212.671 103.202 210.763 102.627 209.009" stroke="#1E1991" stroke-width="0.5" stroke-miterlimit="10"/>
<path d="M162.029 87.6248C165.848 101.917 163.666 105.916 176.465 105.402C189.264 104.889 180.131 89.0124 180.131 89.0124L162.029 87.6248Z" fill="#15154C"/>
<path d="M168.87 88.1711L166.186 101.491C166.186 101.491 172.297 101.086 173.028 101.818C173.759 102.551 161.898 118.405 155.569 113.597C149.241 108.79 152.852 96.1803 152.852 96.1803L157.435 98.6826L160.861 90.6624L168.87 88.1711Z" fill="#FFC7E0" stroke="#262C97" stroke-width="0.5" stroke-miterlimit="10"/>
<path d="M164.004 76.447C157.206 76.6874 155.373 84.4562 156.224 90.5861C157.021 96.3881 163.208 96.4865 167.627 89.7338C169.46 86.9257 169.416 81.8775 167.889 79.6485C166.901 78.2542 165.561 77.1491 164.004 76.447V76.447Z" fill="#FFC7E0"/>
<path d="M167.626 89.7338C169.459 86.9257 169.415 81.8776 167.888 79.6485C167.033 78.3419 165.794 77.3338 164.342 76.7639C157.544 76.9934 155.372 84.4126 156.223 90.5861C156.823 94.9568 160.446 96.0494 164.091 93.5254" stroke="#1E1991" stroke-width="0.5" stroke-miterlimit="10"/>
<path d="M162.738 84.4456C163.08 85.1789 163.697 85.7476 164.455 86.0279C165.213 86.3082 166.051 86.2775 166.786 85.9425" stroke="#1E1991" stroke-width="0.5" stroke-miterlimit="10" stroke-linecap="round"/>
<path d="M160.152 84.1615C159.39 84.4282 158.552 84.3827 157.823 84.0349C157.094 83.6871 156.531 83.065 156.257 82.304" stroke="#1E1991" stroke-width="0.5" stroke-miterlimit="10" stroke-linecap="round"/>
<path d="M163.829 77.0592C164.069 80.3372 166.142 82.3259 169.11 83.7572C169.11 83.7572 166.841 93.3617 174.435 103.578C182.03 113.795 202.63 118.635 213.4 106.135C218.856 99.8084 216.783 87.4395 199.215 86.1392C190.486 85.4946 181.266 82.2057 177.763 77.9552C167.419 65.4005 156.562 72.022 157.424 81.3315C159.941 80.5883 162.174 79.0987 163.829 77.0592V77.0592Z" fill="#15154C"/>
<path d="M171.206 96.9893C176.051 108.582 183.645 114.417 196.302 114.734C208.96 115.051 213.259 106.189 214.296 103.064" stroke="#1E1991" stroke-width="0.5" stroke-miterlimit="10" stroke-linecap="round"/>
<path d="M163.829 77.0588C162.433 81.0798 166.383 83.8661 169.111 83.7569" stroke="#1E1991" stroke-width="0.5" stroke-miterlimit="10" stroke-linecap="round"/>
<path d="M157.479 81.3315C158.211 65.9796 171.206 68.165 178.331 76.1851C185.02 83.7026 197.787 82.8613 197.787 82.8613" stroke="#1E1991" stroke-width="0.5" stroke-miterlimit="10" stroke-linecap="round"/>
<path d="M167.474 88.0729C167.474 88.0729 171.074 90.149 173.944 88.0183C176.814 85.8876 174.162 83.6477 172.558 83.3745C171.236 83.2148 169.901 83.5452 168.805 84.3033L167.474 88.0729Z" fill="#FFC7E0"/>
<path d="M167.474 88.0729C167.474 88.0729 171.074 90.149 173.944 88.0183C176.814 85.8876 174.162 83.6477 172.558 83.3745C171.236 83.2148 169.901 83.5452 168.805 84.3033" stroke="#1E1991" stroke-width="0.5" stroke-miterlimit="10"/>
<path d="M174.479 84.4124L169.853 85.2974" stroke="#262C97" stroke-width="0.5" stroke-miterlimit="10"/>
<path d="M106.555 70.929C103.282 68.6563 90.3299 57.0741 87.1328 54.0255C83.9358 50.977 82.2881 55.0417 85.6489 62.0347C89.0096 69.0278 91.8903 71.8687 91.8903 71.8687C91.8903 71.8687 84.7869 64.9958 84.7105 66.2524C84.6341 67.509 97.3242 79.9107 99.1246 80.8832C100.925 81.8557 106.555 70.929 106.555 70.929Z" fill="#FFC7E0" stroke="#262C97" stroke-width="0.5" stroke-miterlimit="10"/>
<path d="M101.569 67.7713C97.4332 66.1323 91.5737 60.669 90.7226 60.822C89.8715 60.975 93.9196 69.8037 96.8876 72.3824" stroke="#1E1991" stroke-width="0.5" stroke-miterlimit="10"/>
<path d="M92.1197 67.6946C88.6171 64.0997 83.8379 54.7793 83.8379 54.7793" stroke="#1E1991" stroke-width="0.5" stroke-miterlimit="10"/>
<path d="M84.46 53.2935C85.9657 55.588 90.7231 60.8219 90.7231 60.8219" stroke="#1E1991" stroke-width="0.5" stroke-miterlimit="10"/>
<path d="M167.878 101.108C167.878 101.108 181.07 100.507 183.154 107.391C185.238 114.275 160.24 128.327 160.24 128.327L140.654 128.796L136.933 108.036C121.122 100.868 107.472 92.1048 97.8916 80.4679C99.4956 76.5671 102.551 73.2236 105.933 70.0002C127.462 86.0952 140.719 87.8216 156.279 97.6337C150.42 111.478 161.167 116.056 167.878 101.108Z" fill="#FABF48"/>
<path d="M155.188 96.9893C153.834 99.4696 150.768 108.582 156.279 111.5C161.789 114.417 168.347 103.851 169.438 101.109" stroke="#1E1991" stroke-width="0.5" stroke-miterlimit="10"/>
<path d="M167.473 115.357C160.13 122.022 143.282 123.344 143.282 123.344L141.82 129.736L157.435 130.458L172.089 120.624L167.473 115.357Z" fill="#363CB3"/>
<path d="M136.31 116.504L137.608 127.267L131.007 127.649C131.007 127.649 132.982 143.799 139.431 141.854C145.879 139.909 147.854 131.015 147.854 131.015L147.429 125.082L144.853 125.661L143.588 118.198L136.31 116.504Z" fill="#FFC7E0" stroke="#262C97" stroke-width="0.5" stroke-miterlimit="10"/>
<path d="M137.609 127.267L138.111 131.255" stroke="#1E1991" stroke-width="0.5" stroke-miterlimit="10"/>
<path d="M136.933 116.515C138.854 120.012 144.571 123.224 147.845 120.339C151.118 117.455 149.416 107.85 145.837 102.933C142.258 98.0164 136.017 102.332 136.017 102.332V108.615L136.933 116.515Z" fill="#FFC7E0"/>
<path d="M141.755 120.766C143.861 121.694 146.12 121.858 147.833 120.339C151.106 117.444 149.404 107.85 145.825 102.933C142.246 98.0164 136.005 102.332 136.005 102.332V108.615L136.943 116.515" stroke="#1E1991" stroke-width="0.5" stroke-miterlimit="10"/>
<path d="M143.589 108.08L144.2 110.014" stroke="#1E1991" stroke-width="0.5" stroke-linecap="round" stroke-linejoin="round"/>
<path d="M135.755 92.9026C132.121 94.5197 128.313 99.5241 129.852 106.845C130.943 111.904 134.271 113.587 136.268 114.057" stroke="#1E1991" stroke-width="0.5" stroke-miterlimit="10" stroke-linecap="round"/>
<path d="M142.76 105.402C147.201 103.304 148.717 98.6716 146.251 95.5684C143.785 92.4653 143.589 98.4203 143.589 98.4203L142.76 105.402Z" stroke="#1E1991" stroke-width="0.5" stroke-miterlimit="10" stroke-linecap="round"/>
<path d="M137.15 106.244C140.839 107.566 147.505 104.364 146.818 99.5458C146.131 94.7272 139.573 87.7669 133.571 94.2683C127.57 100.77 130.527 111.467 133.266 112.844C134.032 113.227 134.907 113.333 135.742 113.144C136.578 112.954 137.322 112.482 137.849 111.806L137.15 106.244Z" fill="#575FCC"/>
<path d="M137.456 112.942C134.772 110.931 131.924 111.641 131.913 113.433C131.902 115.225 134.696 118.329 137.609 116.843L137.456 112.942Z" fill="#FFC7E0"/>
<path d="M137.456 112.942C134.772 110.931 131.924 111.641 131.913 113.433C131.902 115.225 134.696 118.329 137.609 116.843" stroke="#1E1991" stroke-width="0.5" stroke-miterlimit="10"/>
<path d="M135.994 114.231L131.913 113.434" stroke="#262C97" stroke-width="0.5" stroke-miterlimit="10"/>
<path d="M120.337 260.517C116.267 259.14 114.062 253.065 116.059 252.869C117.085 252.748 120.718 260.321 120.718 260.321C119.627 256.507 119.856 251.273 123.348 250.945C126.349 250.672 126.392 256.234 121.231 260.277" stroke="#1E1991" stroke-width="0.5" stroke-miterlimit="10"/>
<path d="M147.855 270.056H109.883C109.698 264.527 113.528 260.047 121.122 259.84L147.855 270.056Z" fill="#15154C"/>
<path d="M110.265 266.865C109.975 267.903 109.846 268.979 109.883 270.056H147.855L141.406 267.586L139.791 267.477L110.265 266.865Z" fill="#FABF48"/>
<path d="M186.133 257.25C184.965 261.129 179.455 262.855 179.204 260.889C179.073 259.872 185.936 256.868 185.936 256.868C182.466 257.665 177.545 259.446 177.207 256.015C176.891 253.065 182.575 252.89 185.936 256.354" stroke="#1E1991" stroke-width="0.5" stroke-miterlimit="10"/>
<path d="M176.224 270.056H192.69L203.067 249.295C202.99 241.188 195.745 238.183 188.631 235.091L185.161 254.103L184.266 261.817C178.516 261.959 174.98 265.718 176.224 270.056Z" fill="#15154C"/>
<path d="M203.111 249.273C203.119 247.703 202.792 246.15 202.151 244.717C199.608 250.115 192.832 264.385 191.076 266.199C189.319 268.013 180.622 267.696 176.116 267.379C175.967 268.271 176.019 269.186 176.269 270.056H192.734L203.111 249.273Z" fill="#FABF48"/>
<path d="M148.554 161.599C133.158 179.934 127.746 193.056 125.869 208.266C123.992 223.476 121.166 259.84 121.166 259.84C122.934 263.806 135.962 269.674 147.899 270.056C147.899 270.056 149.045 221.509 151.173 213.38C153.3 205.251 162.608 195.897 162.608 195.897V159.632L148.554 161.599Z" fill="#575FCC"/>
<path d="M146.503 198.017C147.766 202.986 149.366 207.864 151.293 212.615C153.737 204.682 162.521 195.886 162.521 195.886V161.598L160.949 166.177C157.611 174.94 143.229 184.686 146.503 198.017Z" fill="#363CB3"/>
<path d="M156.278 165.881C150.452 182.544 150.015 188.707 154.915 205.315C159.814 221.924 177.174 256.015 177.174 256.015C186.765 253.83 198.768 248.366 204.966 239.221C204.966 239.221 180.262 207.534 178.254 188.379C176.247 169.225 177.294 156.921 177.294 156.921L156.278 165.881Z" fill="#575FCC"/>
<path d="M132.328 127.147C132.328 127.147 120.205 124.852 117.783 131.255C115.36 137.658 121.056 152.857 143.588 165.357C166.121 177.857 172.406 157.545 172.406 157.545L174.795 125.049C174.795 125.049 160.239 123.694 154.063 123.377C147.888 123.06 145.967 125.366 145.967 125.366C142.345 141.985 131.957 145.012 132.328 127.147Z" fill="#FF5C9E"/>
<path d="M172.416 124.83C185.205 125.049 200.492 126.404 202.783 139.035C205.075 151.666 194.665 172.11 194.665 172.11C191.125 172.537 187.534 172.051 184.234 170.7C184.234 170.7 190.191 147.055 184.681 145.908C179.947 145.09 175.171 144.539 170.376 144.258L172.416 124.83Z" fill="#FF5C9E"/>
<path d="M172.089 137.964L170.845 139.887L170.387 144.258C170.387 144.258 166.688 147.077 168.401 147.219C177.229 142.029 182.826 132.588 185.096 125.792C182.345 125.374 179.572 125.112 176.792 125.005L172.089 137.964Z" fill="#363CB3"/>
<path d="M137.642 145.121C133.78 145.831 125.716 145.361 125.356 145.831C124.996 146.301 132.787 148.486 132.787 148.486C132.787 148.486 122.235 148.956 120.511 148.486C118.787 148.016 119.42 154.321 126.087 155.359C132.754 156.397 133.365 156.397 133.365 156.397C133.365 156.397 127.386 156.922 126.393 156.922C125.4 156.922 128.106 158.276 133.463 157.807C136.326 157.636 139.14 156.986 141.789 155.884L143.251 152.289L137.642 145.121Z" fill="#FFC7E0" stroke="#262C97" stroke-width="0.5" stroke-miterlimit="10"/>
<path d="M129.6 151.032C126.284 151.145 122.972 150.744 119.779 149.841" stroke="#1E1991" stroke-width="0.5" stroke-miterlimit="10"/>
<path d="M121.122 152.803C123.512 153.688 131.008 153.895 131.008 153.895" stroke="#1E1991" stroke-width="0.5" stroke-miterlimit="10"/>
<path d="M175.832 101.928C181.44 103.381 187.376 107.129 182.281 122.754C177.185 138.379 172.668 145.034 163.829 150.355C156.911 154.551 141.777 156.288 141.777 156.288C139.06 153.852 137.074 148.771 136.758 144.881C136.758 144.881 157.184 138.587 158.995 134.522C160.807 130.458 167.419 110.593 172.089 108.08C176.759 105.567 175.832 101.928 175.832 101.928Z" fill="#FABF48"/>
<path d="M204.376 193.712L212.614 199.372C217.917 202.573 227.421 225.334 217.35 229.005C209.853 231.748 208.315 222.001 207.366 215.336C206.855 211.643 206.618 207.918 206.656 204.191L200.928 202.169L204.376 193.712Z" fill="#FFC7E0" stroke="#262C97" stroke-width="0.5" stroke-miterlimit="10"/>
<path d="M214.884 200.945C219.041 203.13 221.725 210.003 222.718 216.177C223.711 222.35 224.246 231.791 218.441 232.315C212.636 232.84 220.972 221.946 220.972 221.946L218.015 208.834L214.884 200.945Z" fill="#FABF48"/>
<path d="M213.728 199.7L217.35 216.297L215.79 213.183L208.294 214.505L208.839 217.936C208.839 217.936 207.934 216.45 207.039 214.713V214.888C207.192 220.908 210.934 235.047 218.431 232.316C228.098 228.786 219.151 204.496 213.728 199.7Z" fill="#FF5C9E"/>
<path d="M217.677 224.721C215.98 224.418 214.23 224.745 212.756 225.639" stroke="#1E1991" stroke-width="0.5" stroke-miterlimit="10"/>
<path d="M217.546 221.575C215.557 221.157 213.485 221.517 211.752 222.58" stroke="#1E1991" stroke-width="0.5" stroke-miterlimit="10"/>
<path d="M216.205 217.466C214.116 217.325 212.048 217.963 210.4 219.258" stroke="#1E1991" stroke-width="0.5" stroke-miterlimit="10"/>
<path d="M218.169 226.776C215.611 226.891 213.079 227.343 210.64 228.12C212.506 231.398 215.102 233.583 218.441 232.316C220.624 231.518 221.846 229.65 222.391 227.202C221.01 226.869 219.589 226.726 218.169 226.776V226.776Z" fill="#FABF48"/>
<path d="M172.21 144.345C172.21 144.345 179.902 145.045 182.674 145.514C185.773 146.039 187.246 145.613 187.039 153.218C186.644 159.117 185.717 164.969 184.267 170.7L180.939 175.552C188.904 178.928 196.663 184.883 204.268 192.892C204.955 196.607 204.519 200.005 202.195 202.89C202.195 202.89 156.214 196.214 154.751 179.868C153.289 163.521 172.21 144.345 172.21 144.345Z" fill="#363CB3"/>
<path d="M180.917 175.519L184.19 170.667C185.64 164.936 186.568 159.084 186.962 153.185C187.202 145.536 185.729 146.006 182.597 145.481C181.506 145.285 179.509 145.055 177.6 144.848C184.911 156.288 173.999 173.038 173.999 173.038C173.999 173.038 177.894 174.273 180.917 175.519Z" fill="#363CB3"/>
<path d="M169.678 172.241C173.536 172.888 177.305 173.988 180.906 175.519" stroke="#1E1991" stroke-width="0.5" stroke-miterlimit="10"/>
<path d="M202.161 202.857C202.161 202.857 163.218 195.209 158.461 191.067C153.704 186.926 153.311 176.972 155.886 169.433" stroke="#1E1991" stroke-width="0.5" stroke-miterlimit="10"/>
<path d="M45.1762 123.082L33.8176 156.013C33.6953 156.321 33.6445 156.653 33.6691 156.984C33.6937 157.315 33.793 157.636 33.9596 157.923C34.1261 158.21 34.3556 158.455 34.6307 158.641C34.9059 158.826 35.2195 158.947 35.5479 158.993L91.0288 168.677C91.7577 168.781 92.5002 168.632 93.1321 168.254C93.764 167.876 94.2471 167.292 94.5005 166.601L105.859 133.698C105.982 133.389 106.034 133.056 106.01 132.725C105.986 132.393 105.887 132.071 105.72 131.784C105.553 131.496 105.324 131.25 105.048 131.064C104.772 130.879 104.458 130.758 104.129 130.712L48.6535 121.033C47.9273 120.928 47.1871 121.074 46.555 121.446C45.9228 121.819 45.4365 122.396 45.1762 123.082V123.082Z" fill="white"/>
<path d="M46.4934 124.298L35.1405 157.23C35.0171 157.537 34.9653 157.869 34.989 158.2C35.0128 158.531 35.1114 158.852 35.2776 159.139C35.4437 159.427 35.673 159.672 35.9481 159.858C36.2231 160.043 36.5367 160.164 36.8652 160.21L92.3516 169.866C93.0812 169.969 93.8241 169.819 94.4567 169.442C95.0893 169.064 95.5736 168.481 95.8289 167.79L107.182 134.886C107.305 134.578 107.357 134.245 107.333 133.914C107.309 133.582 107.21 133.26 107.043 132.973C106.876 132.685 106.646 132.439 106.371 132.253C106.095 132.067 105.781 131.947 105.452 131.9L49.9763 122.222C49.2458 122.118 48.5017 122.267 47.8679 122.645C47.2341 123.022 46.749 123.606 46.4934 124.298Z" stroke="#262C97" stroke-width="0.429308" stroke-miterlimit="10"/>
<path d="M47.8887 126.062L37.6912 155.611C37.5809 155.888 37.5351 156.187 37.5572 156.485C37.5792 156.782 37.6686 157.071 37.8186 157.329C37.9686 157.587 38.1752 157.808 38.4229 157.974C38.6706 158.141 38.9529 158.249 39.2484 158.29L63.8911 162.588C64.5565 162.685 65.2344 162.533 65.7948 162.161C66.3551 161.79 66.7585 161.224 66.9274 160.573L73.67 130.181C73.7355 129.929 73.7466 129.665 73.7027 129.407C73.6588 129.15 73.5608 128.905 73.4153 128.688C73.2697 128.471 73.0798 128.288 72.8582 128.15C72.6366 128.012 72.3882 127.922 72.1295 127.887L51.0479 124.198C50.3873 124.099 49.7126 124.23 49.1373 124.569C48.5619 124.909 48.121 125.436 47.8887 126.062V126.062Z" fill="#739EF1"/>
<path d="M62.3006 149.065L64.6 149.386L72.7252 141.514L70.902 141.259L64.3057 147.827L64.1832 147.81L65.6229 140.523L63.8541 140.276L62.3006 149.065ZM72.1119 150.602C74.2889 150.905 76.1908 149.974 76.9781 148.604C78.9153 145.234 73.0801 145.95 74.1479 144.092C74.4423 143.58 75.1856 143.131 76.2741 143.283C77.2946 143.425 77.6057 144.034 77.1607 144.809L78.8206 145.04C79.9159 143.134 78.6327 142.171 77.0408 141.948C74.9999 141.664 73.2204 142.612 72.5016 143.863C70.5712 147.221 76.4546 146.344 75.2772 148.393C74.9007 149.048 73.9876 149.384 72.9671 149.241C71.8242 149.082 71.3842 148.364 71.8839 147.495L70.224 147.263C69.2451 148.966 70.1526 150.328 72.1119 150.602Z" fill="#575FCC"/>
<path d="M95.282 136.528C95.1642 136.815 95.1137 137.126 95.1344 137.436C95.1552 137.746 95.2466 138.048 95.4018 138.317C95.5569 138.586 95.7717 138.817 96.0295 138.99C96.2874 139.164 96.5816 139.276 96.8895 139.318C97.5669 139.413 98.2562 139.273 98.8431 138.922C99.4299 138.57 99.879 138.029 100.116 137.387C100.235 137.1 100.286 136.789 100.266 136.478C100.246 136.168 100.154 135.866 99.999 135.596C99.8437 135.326 99.6284 135.096 99.37 134.923C99.1115 134.749 98.8166 134.638 98.5082 134.596C97.8307 134.501 97.1409 134.64 96.5538 134.992C95.9667 135.343 95.5179 135.885 95.282 136.528V136.528Z" fill="#FF58BE"/>
<path d="M93.7024 135.512L83.1309 133.664" stroke="#FF58BE" stroke-width="0.714441" stroke-linecap="round" stroke-linejoin="round"/>
<path d="M89.6997 159.06L89.4541 161.912" stroke="#FF58BE" stroke-width="0.714441" stroke-linecap="round" stroke-linejoin="round"/>
<path d="M87.1548 158.614L86.9092 161.466" stroke="#FF58BE" stroke-width="0.714441" stroke-linecap="round" stroke-linejoin="round"/>
<path d="M84.6043 158.173L84.3643 161.019" stroke="#FF58BE" stroke-width="0.714441" stroke-linecap="round" stroke-linejoin="round"/>
<path d="M30.4287 167.684C39.8783 166.434 41.7872 192.349 56.4277 191.171C71.0681 189.993 69.656 173.126 68.3499 165.792" stroke="#262C97" stroke-width="0.429308" stroke-miterlimit="10"/>
<path d="M19.2881 179.439C19.4003 179.7 19.5851 179.924 19.8206 180.083C20.056 180.242 20.3323 180.33 20.6166 180.337C20.9717 180.352 21.3249 180.277 21.6436 180.12V180.12L21.7775 180.064C21.9471 179.981 22.1111 179.888 22.2687 179.785C23.8036 178.78 25.3441 176.67 26.1758 175.381C26.6 174.739 26.8567 174.304 26.8567 174.304L31.7741 172.942C32.142 173.709 32.5538 174.455 33.0076 175.174C33.1609 175.399 33.378 175.572 33.6307 175.671C33.8835 175.771 34.1603 175.792 34.4254 175.733C35.1007 175.593 35.7984 174.918 36.0608 173.327C36.5408 170.38 37.3501 168.376 35.3017 165.998C34.4979 165.1 33.8058 165.027 31.763 165.641C30.0048 166.166 27.9842 166.863 26.4158 167.444C25.5355 167.743 24.6727 168.092 23.8315 168.488C22.8268 169.046 22.4529 169.738 21.3254 171.502C21.1859 171.731 21.024 171.976 20.851 172.238C20.5455 172.897 20.1968 173.535 19.8072 174.147C19.3998 174.845 18.557 177.893 19.2881 179.439Z" fill="#575FCC"/>
<path d="M19.2883 179.439L19.3776 179.467C20.296 179.657 21.2305 179.76 22.1684 179.774H22.2632C23.7982 178.769 25.3387 176.659 26.1703 175.37C23.5303 175.788 21.2976 173.455 21.32 171.496C21.1804 171.725 21.0186 171.971 20.8455 172.233C20.54 172.891 20.1913 173.529 19.8018 174.142C19.3999 174.845 18.5571 177.893 19.2883 179.439Z" fill="#575FCC"/>
<path d="M31.6522 168.091C32.601 167.438 32.601 166.104 31.7973 165.641C30.0391 166.166 28.0186 166.863 26.4501 167.444C25.4064 171.2 30.3963 168.951 31.6522 168.091Z" fill="#FF5C9E"/>
<path d="M31.8076 172.936C32.1755 173.704 32.5873 174.449 33.0411 175.169C33.1944 175.393 33.4115 175.566 33.6642 175.666C33.917 175.765 34.1938 175.787 34.4589 175.727C35.458 174.187 33.8114 171.641 33.8114 171.641C33.8114 171.641 33.6551 172.227 31.8076 172.936Z" fill="#575FCC"/>
<path d="M230.006 2.14524L241.365 35.0765C241.487 35.3849 241.538 35.717 241.514 36.0479C241.489 36.3787 241.39 36.6997 241.223 36.9866C241.056 37.2736 240.827 37.519 240.552 37.7044C240.277 37.8898 239.963 38.0104 239.635 38.0571L184.154 47.702C183.424 47.8051 182.681 47.6552 182.049 47.2775C181.416 46.8998 180.932 46.3168 180.677 45.6257L169.324 12.6944C169.2 12.3857 169.149 12.053 169.173 11.7215C169.197 11.3899 169.296 11.0682 169.463 10.7805C169.629 10.4929 169.859 10.2469 170.135 10.0612C170.41 9.87541 170.725 9.75474 171.054 9.70827L226.529 0.0298269C227.264 -0.0707293 228.01 0.0846965 228.644 0.469958C229.277 0.85522 229.758 1.44681 230.006 2.14524V2.14524Z" fill="white"/>
<path d="M228.84 3.10527L240.198 36.0366C240.32 36.3453 240.371 36.6777 240.346 37.0089C240.322 37.3401 240.223 37.6614 240.056 37.9487C239.89 38.236 239.66 38.4819 239.385 38.6679C239.11 38.8539 238.796 38.9752 238.468 39.0227L182.987 48.7067C182.258 48.8094 181.516 48.6594 180.884 48.2816C180.253 47.9038 179.769 47.3211 179.515 46.6304L168.157 13.6991C168.033 13.3904 167.982 13.0577 168.006 12.7262C168.03 12.3946 168.129 12.0729 168.296 11.7852C168.462 11.4976 168.692 11.2516 168.968 11.0659C169.243 10.8801 169.558 10.7594 169.887 10.713L225.368 1.02893C226.096 0.928303 226.837 1.07921 227.469 1.45673C228.1 1.83424 228.583 2.41578 228.84 3.10527V3.10527Z" stroke="#262C97" stroke-width="0.429308" stroke-miterlimit="10"/>
<path d="M227.746 5.07563L237.949 34.6245C238.058 34.9023 238.103 35.2012 238.08 35.4988C238.057 35.7964 237.967 36.0849 237.817 36.3427C237.666 36.6005 237.46 36.8209 237.212 36.9874C236.964 37.1538 236.682 37.2619 236.386 37.3036L211.749 41.607C211.084 41.7007 210.407 41.5474 209.846 41.1762C209.286 40.805 208.881 40.2415 208.707 39.5921L201.965 9.18925C201.9 8.93612 201.89 8.67221 201.934 8.41482C201.979 8.15743 202.078 7.91239 202.224 7.69577C202.37 7.47915 202.56 7.29584 202.782 7.15788C203.003 7.01991 203.252 6.9304 203.511 6.89522L224.62 3.2058C225.276 3.11389 225.944 3.24925 226.513 3.5894C227.082 3.92954 227.517 4.454 227.746 5.07563Z" fill="#68D1A2"/>
<path d="M201.448 29.3894L203.735 28.9886L203.895 19.3236L202.081 19.6414L202.107 27.6494L201.985 27.6708L196.831 20.5615L195.072 20.8698L201.448 29.3894ZM211.353 27.8325C213.518 27.4531 214.357 26.0256 213.839 24.5333C212.563 20.8607 208.106 23.2801 207.403 21.2557C207.209 20.6976 207.462 20.0614 208.544 19.8716C209.559 19.6938 210.367 20.158 210.66 21.0016L212.31 20.7122C211.589 18.6359 209.623 18.1407 208.039 18.4182C206.01 18.7739 205.292 20.18 205.766 21.5426C207.037 25.2022 211.394 22.6212 212.17 24.8533C212.418 25.567 211.917 26.1504 210.902 26.3283C209.765 26.5275 208.751 26.0032 208.422 25.0559L206.771 25.3452C207.415 27.2009 209.404 28.174 211.353 27.8325Z" fill="#575FCC"/>
<path d="M178.733 16.5512C178.852 16.8387 178.904 17.1498 178.883 17.4603C178.863 17.7709 178.772 18.0726 178.617 18.3423C178.461 18.612 178.246 18.8424 177.988 19.0157C177.729 19.189 177.434 19.3007 177.126 19.342C176.449 19.4379 175.76 19.2991 175.173 18.9487C174.586 18.5984 174.136 18.0576 173.9 17.4163C173.781 17.1288 173.729 16.8177 173.749 16.5072C173.77 16.1966 173.861 15.8949 174.016 15.6252C174.172 15.3555 174.387 15.1251 174.645 14.9518C174.904 14.7785 175.199 14.6669 175.507 14.6255C176.184 14.5296 176.873 14.6684 177.46 15.0188C178.047 15.3691 178.496 15.9099 178.733 16.5512V16.5512Z" fill="#575FCC"/>
<path d="M180.319 15.5355L190.891 13.6936" stroke="#575FCC" stroke-width="0.714441" stroke-linecap="round" stroke-linejoin="round"/>
<path d="M184.321 39.0896L184.567 41.9362" stroke="#575FCC" stroke-width="0.714441" stroke-linecap="round" stroke-linejoin="round"/>
<path d="M186.866 38.6431L187.112 41.4952" stroke="#575FCC" stroke-width="0.714441" stroke-linecap="round" stroke-linejoin="round"/>
<path d="M189.411 38.1965L189.657 41.0487" stroke="#575FCC" stroke-width="0.714441" stroke-linecap="round" stroke-linejoin="round"/>
<path d="M243.586 47.702C234.136 46.4517 232.227 72.3725 217.587 71.1892C202.946 70.0059 204.565 51.9886 205.894 44.6768" stroke="#262C97" stroke-width="0.429308" stroke-miterlimit="10"/>
<path d="M257.741 54.0315C257.752 54.3155 257.682 54.5969 257.539 54.8422C257.395 55.0876 257.184 55.2867 256.931 55.4157C256.614 55.5791 256.261 55.6616 255.904 55.6557H255.748C255.561 55.656 255.375 55.6429 255.19 55.6166C253.37 55.3655 251.076 54.1208 249.753 53.3226C249.1 52.9208 248.676 52.6361 248.676 52.6361L243.653 53.5124C243.65 54.365 243.598 55.2167 243.496 56.0632C243.457 56.3327 243.337 56.584 243.152 56.7834C242.966 56.9829 242.724 57.121 242.458 57.1795C241.788 57.3469 240.867 57.0344 239.952 55.706C238.278 53.2501 236.665 51.7988 237.496 48.7625C237.837 47.6071 238.434 47.2443 240.538 46.9206C242.358 46.6471 244.479 46.4126 246.12 46.2619C247.046 46.1542 247.978 46.0983 248.911 46.0945C250.06 46.1838 250.691 46.6526 252.466 47.769C252.689 47.9141 252.94 48.0704 253.214 48.2322C253.771 48.697 254.358 49.124 254.972 49.5104C255.692 49.9346 257.741 52.3235 257.741 54.0315Z" fill="#575FCC"/>
<path d="M257.741 54.0314L257.679 54.0984C256.924 54.6668 256.117 55.1621 255.268 55.5775L255.184 55.6222C253.365 55.371 251.071 54.1263 249.748 53.3282C252.31 52.5746 253.331 49.5104 252.472 47.7466C252.695 47.8917 252.946 48.048 253.22 48.2099C253.777 48.6746 254.364 49.1016 254.978 49.488C255.692 49.9346 257.741 52.3235 257.741 54.0314Z" fill="#575FCC"/>
<path d="M241.727 49.0751C240.611 48.8909 240.019 47.6853 240.544 46.9206C242.364 46.6471 244.485 46.4127 246.126 46.262C248.704 49.209 243.229 49.3151 241.727 49.0751Z" fill="#739EF1"/>
<path d="M243.659 53.518C243.656 54.3705 243.604 55.2223 243.502 56.0687C243.463 56.3383 243.343 56.5895 243.158 56.789C242.972 56.9884 242.73 57.1266 242.464 57.1851C240.901 56.225 241.303 53.2166 241.303 53.2166C241.303 53.2166 241.688 53.6687 243.659 53.518Z" fill="#575FCC"/>
<path d="M85.241 97.6407C85.2434 95.5495 84.6293 93.504 83.4756 91.7604C82.3219 90.0168 80.6798 88.6525 78.7549 87.8384C76.8301 87.0243 74.708 86.7966 72.6545 87.1837C70.6009 87.5708 68.7071 88.5556 67.2101 90.0148C65.7132 91.4739 64.6796 93.3426 64.2389 95.3868C63.7982 97.431 63.9698 99.5598 64.7324 101.507C65.495 103.454 66.8145 105.133 68.5259 106.333C70.2373 107.533 72.2644 108.201 74.3534 108.253L80.3471 113.898L79.3023 107.169C81.0829 106.294 82.5832 104.938 83.6329 103.254C84.6825 101.57 85.2396 99.6256 85.241 97.6407V97.6407Z" fill="#FF5C9E"/>
<path d="M78.5958 94.2605C78.2534 94.0305 77.862 93.8837 77.4529 93.8318C77.0437 93.7799 76.6281 93.8244 76.2392 93.9618C75.8602 94.1111 75.5148 94.3348 75.2234 94.6197C74.932 94.9045 74.7005 95.2448 74.5424 95.6205C74.3095 95.2858 74.0113 95.0017 73.6656 94.7856C73.32 94.5694 72.9342 94.4255 72.5314 94.3627C72.1166 94.3014 71.693 94.3408 71.2966 94.4776C70.9001 94.6145 70.5423 94.8447 70.2534 95.1489C69.8838 95.6134 69.6598 96.177 69.6095 96.7687C69.5592 97.3604 69.6848 97.9537 69.9706 98.4741C70.5663 99.5082 71.4977 100.307 72.61 100.738C73.4024 101.146 74.2671 101.395 75.1551 101.469C76.0128 101.206 76.8126 100.782 77.5118 100.219C78.5057 99.5597 79.2455 98.581 79.6092 97.4443C79.7722 96.8727 79.7631 96.2657 79.5828 95.6993C79.4025 95.1329 79.0592 94.6324 78.5958 94.2605V94.2605Z" fill="white"/>
</svg>
