<svg width="186" height="171" viewBox="0 0 186 171" fill="none" xmlns="http://www.w3.org/2000/svg">
<path d="M49.1 96.7336C75.7426 96.7336 97.3406 75.1355 97.3406 48.493C97.3406 21.8504 75.7426 0.252327 49.1 0.252327C22.4574 0.252327 0.859375 21.8504 0.859375 48.493C0.859375 75.1355 22.4574 96.7336 49.1 96.7336Z" fill="#FF5C9E"/>
<path d="M46.3024 45.9338C46.3066 46.7104 46.0988 47.4734 45.7014 48.1407C45.3163 47.476 44.7633 46.9243 44.0977 46.5407C43.4322 46.1571 42.6775 45.9552 41.9093 45.9552C41.1412 45.9552 40.3865 46.1571 39.7209 46.5407C39.0554 46.9243 38.5023 47.476 38.1172 48.1407C37.7199 47.4734 37.5121 46.7104 37.5163 45.9338C37.5163 44.7687 37.9791 43.6513 38.803 42.8275C39.6268 42.0036 40.7442 41.5408 41.9093 41.5408C43.0744 41.5408 44.1918 42.0036 45.0157 42.8275C45.8395 43.6513 46.3024 44.7687 46.3024 45.9338V45.9338Z" fill="#F9FAFE"/>
<path d="M49.0999 68.4171C45.1339 68.4201 41.2574 67.2381 37.9677 65.0228C34.6781 62.8076 32.1252 59.66 30.6367 55.9839L21.7573 51.622L29.1861 47.9438C29.2751 44.7819 30.1156 41.6866 31.6381 38.914C33.1607 36.1413 35.3215 33.7711 37.9418 31.9992C40.5621 30.2273 43.5667 29.1048 46.7069 28.7245C49.8471 28.3442 53.0328 28.717 56.0003 29.8122C58.8571 30.873 61.9585 31.0913 64.9357 30.4411C67.913 29.7909 70.641 28.2996 72.7954 26.1444L83.9231 15.0685C77.2544 8.12765 68.6622 3.33991 59.2511 1.32075C49.8399 -0.698413 40.0399 0.143299 31.1109 3.73767C22.1819 7.33203 14.5319 13.5148 9.14443 21.4911C3.75695 29.4675 0.878174 38.8728 0.878174 48.4981C0.878174 58.1235 3.75695 67.5288 9.14443 75.5052C14.5319 83.4815 22.1819 89.6643 31.1109 93.2586C40.0399 96.853 49.8399 97.6947 59.2511 95.6755C68.6622 93.6564 77.2544 88.8686 83.9231 81.9278L72.8472 70.8519C70.6909 68.6995 67.9624 67.2109 64.9855 66.5626C62.0086 65.9144 58.9082 66.1336 56.0521 67.1945C53.8265 68.0145 51.4718 68.4286 49.0999 68.4171Z" fill="#F9FAFE"/>
<path d="M46.3024 45.9338C46.3066 46.7104 46.0988 47.4734 45.7014 48.1407C45.3163 47.476 44.7633 46.9243 44.0977 46.5407C43.4322 46.1571 42.6775 45.9552 41.9093 45.9552C41.1412 45.9552 40.3865 46.1571 39.7209 46.5407C39.0554 46.9243 38.5023 47.476 38.1172 48.1407C37.7199 47.4734 37.5121 46.7104 37.5163 45.9338C37.5163 44.7687 37.9791 43.6513 38.803 42.8275C39.6268 42.0036 40.7442 41.5408 41.9093 41.5408C43.0744 41.5408 44.1918 42.0036 45.0157 42.8275C45.8395 43.6513 46.3024 44.7687 46.3024 45.9338V45.9338Z" fill="#F9FAFE"/>
<path d="M46.3024 45.9338C46.3066 46.7104 46.0988 47.4734 45.7014 48.1407C45.3163 47.476 44.7633 46.9243 44.0977 46.5407C43.4322 46.1571 42.6775 45.9552 41.9093 45.9552C41.1412 45.9552 40.3865 46.1571 39.7209 46.5407C39.0554 46.9243 38.5023 47.476 38.1172 48.1407C37.7199 47.4734 37.5121 46.7104 37.5163 45.9338C37.5163 44.7687 37.9791 43.6513 38.803 42.8275C39.6268 42.0036 40.7442 41.5408 41.9093 41.5408C43.0744 41.5408 44.1918 42.0036 45.0157 42.8275C45.8395 43.6513 46.3024 44.7687 46.3024 45.9338V45.9338Z" fill="#F9FAFE"/>
<path d="M137.469 0.252334C129.275 0.24799 121.216 2.332 114.051 6.30759C106.887 10.2832 100.854 16.0192 96.5221 22.9739C94.9981 25.4035 93.6977 27.9662 92.6367 30.6307C90.3701 36.3164 89.2096 42.3825 89.2176 48.5033C89.2176 48.607 89.2176 48.7209 89.2176 48.8245V130.676C92.918 130.678 96.5824 129.95 100.002 128.535C103.421 127.12 106.527 125.045 109.145 122.429C111.762 119.812 113.838 116.706 115.254 113.288C116.67 109.869 117.399 106.205 117.399 102.505V92.4338C123.955 95.4323 131.099 96.9238 138.306 96.7989C145.513 96.674 152.601 94.9358 159.049 91.712C165.496 88.4881 171.139 83.8607 175.564 78.1696C179.988 72.4785 183.081 65.8684 184.615 58.8251C186.149 51.7818 186.086 44.4842 184.43 37.4685C182.774 30.4529 179.566 23.8975 175.044 18.284C170.522 12.6706 164.799 8.14178 158.296 5.03035C151.794 1.91892 144.677 0.30396 137.469 0.304142V0.252334Z" fill="#F9FAFE"/>
<path d="M137.479 34.143H151.85V48.5033C151.85 52.3229 150.332 55.986 147.631 58.6869C144.931 61.3877 141.267 62.9051 137.448 62.9051H123.088V48.5241C123.09 44.709 124.608 41.0512 127.306 38.3545C130.005 35.6578 133.664 34.143 137.479 34.143V34.143Z" fill="#575FCC"/>
<path d="M72.526 158.661L74.7536 160.889C73.3749 162.324 71.5982 163.315 69.6519 163.733C67.7057 164.151 65.6789 163.977 63.8322 163.234C61.9855 162.491 60.4033 161.213 59.289 159.563C58.1747 157.914 57.5792 155.969 57.5792 153.978C57.5792 151.987 58.1747 150.042 59.289 148.393C60.4033 146.743 61.9855 145.465 63.8322 144.722C65.6789 143.978 67.7057 143.805 69.6519 144.223C71.5982 144.641 73.3749 145.631 74.7536 147.067L72.526 149.284C72.0734 149.746 71.4983 150.068 70.8687 150.213C70.239 150.358 69.581 150.32 68.9722 150.103C68.3077 149.87 67.5955 149.805 66.9 149.916C66.3057 149.978 65.7317 150.167 65.2174 150.471C64.7031 150.776 64.2607 151.187 63.9204 151.678C63.5801 152.169 63.35 152.728 63.2459 153.317C63.1418 153.905 63.1661 154.509 63.3173 155.087C63.4684 155.665 63.7427 156.204 64.1215 156.666C64.5002 157.128 64.9744 157.503 65.5115 157.764C66.0486 158.026 66.636 158.169 67.2333 158.182C67.8306 158.196 68.4238 158.08 68.9722 157.843C69.5813 157.628 70.2387 157.592 70.8678 157.737C71.4969 157.882 72.072 158.202 72.526 158.661V158.661Z" fill="#F9FAFE"/>
<path d="M113.483 143.969C111.791 143.968 110.126 144.398 108.647 145.219C107.167 146.041 105.922 147.226 105.028 148.663C104.703 149.166 104.428 149.7 104.21 150.258C103.75 151.434 103.515 152.685 103.516 153.947V170.928C105.061 170.926 106.542 170.31 107.634 169.216C108.725 168.123 109.338 166.641 109.338 165.095V163.023C110.636 163.628 112.051 163.939 113.483 163.935C114.793 163.935 116.091 163.677 117.301 163.175C118.512 162.674 119.612 161.939 120.538 161.012C121.465 160.086 122.2 158.986 122.701 157.775C123.202 156.565 123.46 155.267 123.46 153.957C123.46 152.647 123.202 151.349 122.701 150.139C122.2 148.928 121.465 147.828 120.538 146.902C119.612 145.975 118.512 145.241 117.301 144.739C116.091 144.238 114.793 143.98 113.483 143.98V143.969ZM113.483 158.07C112.539 158.066 111.624 157.738 110.891 157.143C110.158 156.548 109.651 155.72 109.452 154.796C109.394 154.517 109.366 154.232 109.37 153.947C109.365 153.661 109.393 153.376 109.452 153.097C109.61 152.328 109.982 151.619 110.527 151.053C111.071 150.487 111.766 150.087 112.529 149.9C113.292 149.714 114.092 149.748 114.836 149.999C115.581 150.249 116.238 150.707 116.733 151.317C117.227 151.927 117.538 152.665 117.629 153.445C117.721 154.226 117.588 155.016 117.248 155.723C116.907 156.431 116.372 157.028 115.706 157.443C115.039 157.859 114.268 158.076 113.483 158.07V158.07Z" fill="#F9FAFE"/>
<path d="M87.736 143.969C86.1733 143.968 84.6323 144.335 83.2371 145.039C81.8419 145.743 80.6316 146.764 79.7036 148.022C78.7756 149.279 78.1559 150.737 77.8944 152.277C77.6329 153.818 77.7369 155.398 78.1981 156.891C78.6592 158.384 79.4647 159.748 80.5494 160.873C81.6342 161.998 82.968 162.852 84.4434 163.367C85.9188 163.882 87.4945 164.043 89.0436 163.838C90.5927 163.632 92.0719 163.066 93.362 162.184C93.9071 162.799 94.5772 163.291 95.3276 163.627C96.078 163.963 96.8914 164.135 97.7136 164.132V153.864C97.689 151.233 96.6273 148.718 94.7591 146.865C92.8909 145.013 90.3671 143.972 87.736 143.969V143.969ZM87.736 158.029C86.9163 158.029 86.115 157.786 85.4335 157.331C84.752 156.875 84.2208 156.228 83.9071 155.471C83.5934 154.713 83.5113 153.88 83.6712 153.076C83.8312 152.272 84.2258 151.534 84.8054 150.954C85.3851 150.375 86.1235 149.98 86.9274 149.82C87.7314 149.66 88.5647 149.742 89.322 150.056C90.0792 150.369 90.7265 150.901 91.1819 151.582C91.6373 152.264 91.8804 153.065 91.8804 153.885C91.8845 154.432 91.7803 154.974 91.5739 155.48C91.3674 155.987 91.0628 156.447 90.6775 156.835C90.2923 157.223 89.834 157.531 89.3292 157.742C88.8243 157.952 88.2828 158.06 87.736 158.06V158.029Z" fill="#F9FAFE"/>
</svg>
